G04 #@! TF.FileFunction,Copper,L2,Bot,Signal*
%FSLAX46Y46*%
G04 Gerber Fmt 4.6, Leading zero omitted, Abs format (unit mm)*
G04 Created by KiCad (PCBNEW 4.0.7-e0-6372~58~ubuntu16.10.1) date Tue Sep 25 01:01:21 2018*
%MOMM*%
%LPD*%
G01*
G04 APERTURE LIST*
%ADD10C,0.100000*%
%ADD11R,1.500000X1.300000*%
%ADD12R,1.700000X1.700000*%
%ADD13O,1.700000X1.700000*%
%ADD14R,1.500000X1.250000*%
%ADD15R,2.800000X2.200000*%
%ADD16R,2.800000X2.800000*%
%ADD17R,5.080000X6.350000*%
%ADD18R,1.000000X1.000000*%
%ADD19R,0.700000X1.500000*%
%ADD20R,1.000000X0.800000*%
%ADD21C,0.600000*%
%ADD22C,0.250000*%
%ADD23C,0.500000*%
%ADD24C,0.254000*%
G04 APERTURE END LIST*
D10*
D11*
X144300000Y-83100000D03*
X141600000Y-83100000D03*
D12*
X175460000Y-57800000D03*
D13*
X178000000Y-57800000D03*
X175460000Y-60340000D03*
X178000000Y-60340000D03*
X175460000Y-62880000D03*
X178000000Y-62880000D03*
X175460000Y-65420000D03*
X178000000Y-65420000D03*
X175460000Y-67960000D03*
X178000000Y-67960000D03*
X175460000Y-70500000D03*
X178000000Y-70500000D03*
X175460000Y-73040000D03*
X178000000Y-73040000D03*
X175460000Y-75580000D03*
X178000000Y-75580000D03*
X175460000Y-78120000D03*
X178000000Y-78120000D03*
X175460000Y-80660000D03*
X178000000Y-80660000D03*
X175460000Y-83200000D03*
X178000000Y-83200000D03*
X175460000Y-85740000D03*
X178000000Y-85740000D03*
X175460000Y-88280000D03*
X178000000Y-88280000D03*
X175460000Y-90820000D03*
X178000000Y-90820000D03*
X175460000Y-93360000D03*
X178000000Y-93360000D03*
X175460000Y-95900000D03*
X178000000Y-95900000D03*
X175460000Y-98440000D03*
X178000000Y-98440000D03*
X175460000Y-100980000D03*
X178000000Y-100980000D03*
X175460000Y-103520000D03*
X178000000Y-103520000D03*
X175460000Y-106060000D03*
X178000000Y-106060000D03*
D14*
X141700000Y-85000000D03*
X144200000Y-85000000D03*
X138300000Y-85000000D03*
X135800000Y-85000000D03*
X141700000Y-81200000D03*
X144200000Y-81200000D03*
X138300000Y-81200000D03*
X135800000Y-81200000D03*
D12*
X147650000Y-51499610D03*
D13*
X147650000Y-54039610D03*
X147650000Y-56579610D03*
X147650000Y-59119610D03*
X147650000Y-61659610D03*
X147650000Y-64199610D03*
X147650000Y-66739610D03*
X147650000Y-69279610D03*
X147650000Y-71819610D03*
X147650000Y-74359610D03*
X147650000Y-76899610D03*
X147650000Y-79439610D03*
X147650000Y-81979610D03*
X147650000Y-84519610D03*
D12*
X132410000Y-51499610D03*
D13*
X132410000Y-54039610D03*
X132410000Y-56579610D03*
X132410000Y-59119610D03*
X132410000Y-61659610D03*
X132410000Y-64199610D03*
X132410000Y-66739610D03*
X132410000Y-69279610D03*
X132410000Y-71819610D03*
X132410000Y-74359610D03*
X132410000Y-76899610D03*
X132410000Y-79439610D03*
X132410000Y-81979610D03*
X132410000Y-84519610D03*
D11*
X135700000Y-83100000D03*
X138400000Y-83100000D03*
D15*
X112550000Y-111550000D03*
X119950000Y-109550000D03*
D16*
X112550000Y-102150000D03*
D12*
X118000000Y-53000000D03*
D13*
X115460000Y-53000000D03*
D17*
X207200000Y-109540000D03*
X207200000Y-54400000D03*
X196290000Y-109540000D03*
X196290000Y-54400000D03*
X83600000Y-109440000D03*
X83600000Y-54300000D03*
X72690000Y-109440000D03*
X72690000Y-54300000D03*
D18*
X126600000Y-53400000D03*
X124100000Y-53400000D03*
D19*
X105150000Y-53560000D03*
X108150000Y-53560000D03*
X109650000Y-53560000D03*
D20*
X103750000Y-50700000D03*
X111050000Y-50700000D03*
X111050000Y-52910000D03*
X103750000Y-52910000D03*
D21*
X70800000Y-72700000D03*
X82000000Y-63000000D03*
X89000000Y-69000000D03*
X75000000Y-70000000D03*
X82000000Y-76000000D03*
X190800000Y-72700000D03*
X198000000Y-64000000D03*
X204700000Y-71900000D03*
X197800000Y-79300000D03*
D22*
X141600000Y-83100000D02*
X141600000Y-84900000D01*
X141600000Y-84900000D02*
X141700000Y-85000000D01*
X141700000Y-81200000D02*
X141700000Y-83000000D01*
X141700000Y-83000000D02*
X141600000Y-83100000D01*
X144200000Y-85000000D02*
X144075000Y-85000000D01*
X144075000Y-85000000D02*
X119950000Y-109125000D01*
X119950000Y-109125000D02*
X119950000Y-109550000D01*
X138400000Y-83100000D02*
X138400000Y-84900000D01*
X138400000Y-84900000D02*
X138300000Y-85000000D01*
X138300000Y-81200000D02*
X138300000Y-83000000D01*
X138300000Y-83000000D02*
X138400000Y-83100000D01*
X138400000Y-81300000D02*
X138300000Y-81200000D01*
X138300000Y-83200000D02*
X138400000Y-83100000D01*
X135800000Y-85000000D02*
X135800000Y-85875000D01*
X135800000Y-85875000D02*
X119525000Y-102150000D01*
X114200000Y-102150000D02*
X112550000Y-102150000D01*
X119525000Y-102150000D02*
X114200000Y-102150000D01*
X136389610Y-78000000D02*
X144000000Y-78000000D01*
X144000000Y-78000000D02*
X145600000Y-79600000D01*
X132410000Y-81979610D02*
X136389610Y-78000000D01*
X144400000Y-83100000D02*
X144300000Y-83100000D01*
X145600000Y-79600000D02*
X145600000Y-81900000D01*
X145600000Y-81900000D02*
X144400000Y-83100000D01*
X135700000Y-83100000D02*
X133829610Y-83100000D01*
X133829610Y-83100000D02*
X132410000Y-84519610D01*
X82000000Y-63000000D02*
X83340390Y-61659610D01*
X83340390Y-61659610D02*
X132410000Y-61659610D01*
X89299999Y-68700001D02*
X89000000Y-69000000D01*
X93800390Y-64199610D02*
X89299999Y-68700001D01*
X132410000Y-64199610D02*
X93800390Y-64199610D01*
X75000000Y-70000000D02*
X80300000Y-75300000D01*
X123849610Y-75300000D02*
X131560001Y-67589609D01*
X80300000Y-75300000D02*
X123849610Y-75300000D01*
X131560001Y-67589609D02*
X132410000Y-66739610D01*
X131560001Y-70129609D02*
X132410000Y-69279610D01*
X125689610Y-76000000D02*
X131560001Y-70129609D01*
X82000000Y-76000000D02*
X125689610Y-76000000D01*
X132410000Y-74359610D02*
X133650390Y-75600000D01*
X149100000Y-75600000D02*
X150400000Y-74300000D01*
X133650390Y-75600000D02*
X149100000Y-75600000D01*
X189200000Y-74300000D02*
X190500001Y-72999999D01*
X150400000Y-74300000D02*
X189200000Y-74300000D01*
X190500001Y-72999999D02*
X190800000Y-72700000D01*
X132410000Y-71819610D02*
X133690390Y-73100000D01*
X197700001Y-64299999D02*
X198000000Y-64000000D01*
X133690390Y-73100000D02*
X149500000Y-73100000D01*
X149500000Y-73100000D02*
X150800000Y-71800000D01*
X150800000Y-71800000D02*
X190200000Y-71800000D01*
X190200000Y-71800000D02*
X197700001Y-64299999D01*
X132410000Y-76899610D02*
X144172431Y-76899610D01*
X144172431Y-76899610D02*
X145472821Y-78200000D01*
X145472821Y-78200000D02*
X149100000Y-78200000D01*
X149100000Y-78200000D02*
X150440000Y-76860000D01*
X150440000Y-76860000D02*
X199740000Y-76860000D01*
X199740000Y-76860000D02*
X204400001Y-72199999D01*
X204400001Y-72199999D02*
X204700000Y-71900000D01*
X132410000Y-79439610D02*
X134299621Y-77549989D01*
X134299621Y-77549989D02*
X144186400Y-77549989D01*
X144186400Y-77549989D02*
X146050011Y-79413600D01*
X150000000Y-79400000D02*
X197700000Y-79400000D01*
X146050011Y-79413600D02*
X146050011Y-80113599D01*
X146050011Y-80113599D02*
X146636412Y-80700000D01*
X146636412Y-80700000D02*
X148700000Y-80700000D01*
X148700000Y-80700000D02*
X150000000Y-79400000D01*
X197700000Y-79400000D02*
X197800000Y-79300000D01*
D23*
X126600000Y-53400000D02*
X130509610Y-53400000D01*
X130509610Y-53400000D02*
X132410000Y-51499610D01*
X196290000Y-54400000D02*
X207200000Y-54400000D01*
X196290000Y-109540000D02*
X193250000Y-109540000D01*
X193250000Y-109540000D02*
X189630000Y-113160000D01*
X189630000Y-113160000D02*
X98460000Y-113160000D01*
X98460000Y-113160000D02*
X72690000Y-87390000D01*
X72690000Y-87390000D02*
X72690000Y-54300000D01*
X83600000Y-54300000D02*
X86640000Y-54300000D01*
X86640000Y-54300000D02*
X87150000Y-54810000D01*
X87150000Y-54810000D02*
X104300000Y-54810000D01*
X104300000Y-54810000D02*
X105150000Y-53960000D01*
X105150000Y-53960000D02*
X105150000Y-53560000D01*
X108150000Y-53560000D02*
X108150000Y-53960000D01*
X108150000Y-53960000D02*
X109890000Y-55700000D01*
X120800000Y-55700000D02*
X123100000Y-53400000D01*
X109890000Y-55700000D02*
X120800000Y-55700000D01*
X123100000Y-53400000D02*
X124100000Y-53400000D01*
X72690000Y-109440000D02*
X83600000Y-109440000D01*
D24*
G36*
X80463569Y-50873110D02*
X80412560Y-51125000D01*
X80412560Y-57475000D01*
X80456838Y-57710317D01*
X80595910Y-57926441D01*
X80808110Y-58071431D01*
X81060000Y-58122440D01*
X86140000Y-58122440D01*
X86375317Y-58078162D01*
X86591441Y-57939090D01*
X86736431Y-57726890D01*
X86787440Y-57475000D01*
X86787440Y-55611674D01*
X86811325Y-55627633D01*
X86867516Y-55638810D01*
X87150000Y-55695001D01*
X87150005Y-55695000D01*
X104299995Y-55695000D01*
X104300000Y-55695001D01*
X104582484Y-55638810D01*
X104638675Y-55627633D01*
X104925790Y-55435790D01*
X105404139Y-54957440D01*
X105500000Y-54957440D01*
X105735317Y-54913162D01*
X105951441Y-54774090D01*
X106096431Y-54561890D01*
X106147440Y-54310000D01*
X106147440Y-52871732D01*
X106296841Y-52810000D01*
X107152560Y-52810000D01*
X107152560Y-54310000D01*
X107196838Y-54545317D01*
X107335910Y-54761441D01*
X107548110Y-54906431D01*
X107800000Y-54957440D01*
X107895860Y-54957440D01*
X109264208Y-56325787D01*
X109264210Y-56325790D01*
X109456054Y-56453975D01*
X109551326Y-56517634D01*
X109890000Y-56585001D01*
X109890005Y-56585000D01*
X120799995Y-56585000D01*
X120800000Y-56585001D01*
X121082484Y-56528810D01*
X121138675Y-56517633D01*
X121425790Y-56325790D01*
X123292883Y-54458696D01*
X123348110Y-54496431D01*
X123600000Y-54547440D01*
X124600000Y-54547440D01*
X124835317Y-54503162D01*
X125051441Y-54364090D01*
X125196431Y-54151890D01*
X125247440Y-53900000D01*
X125247440Y-52900000D01*
X125203162Y-52664683D01*
X125064090Y-52448559D01*
X124851890Y-52303569D01*
X124600000Y-52252560D01*
X123600000Y-52252560D01*
X123364683Y-52296838D01*
X123148559Y-52435910D01*
X123093658Y-52516261D01*
X122761325Y-52582367D01*
X122474210Y-52774210D01*
X122474208Y-52774213D01*
X120433420Y-54815000D01*
X110387865Y-54815000D01*
X110451441Y-54774090D01*
X110596431Y-54561890D01*
X110647440Y-54310000D01*
X110647440Y-53957440D01*
X111550000Y-53957440D01*
X111785317Y-53913162D01*
X112001441Y-53774090D01*
X112146431Y-53561890D01*
X112197440Y-53310000D01*
X112197440Y-52970907D01*
X113975000Y-52970907D01*
X113975000Y-53029093D01*
X114088039Y-53597378D01*
X114409946Y-54079147D01*
X114891715Y-54401054D01*
X115460000Y-54514093D01*
X116028285Y-54401054D01*
X116510054Y-54079147D01*
X116539403Y-54035223D01*
X116611673Y-54209698D01*
X116790301Y-54388327D01*
X117023690Y-54485000D01*
X117714250Y-54485000D01*
X117873000Y-54326250D01*
X117873000Y-53127000D01*
X118127000Y-53127000D01*
X118127000Y-54326250D01*
X118285750Y-54485000D01*
X118976310Y-54485000D01*
X119209699Y-54388327D01*
X119388327Y-54209698D01*
X119485000Y-53976309D01*
X119485000Y-53285750D01*
X119326250Y-53127000D01*
X118127000Y-53127000D01*
X117873000Y-53127000D01*
X117853000Y-53127000D01*
X117853000Y-52873000D01*
X117873000Y-52873000D01*
X117873000Y-51673750D01*
X118127000Y-51673750D01*
X118127000Y-52873000D01*
X119326250Y-52873000D01*
X119485000Y-52714250D01*
X119485000Y-52023691D01*
X119388327Y-51790302D01*
X119209699Y-51611673D01*
X118976310Y-51515000D01*
X118285750Y-51515000D01*
X118127000Y-51673750D01*
X117873000Y-51673750D01*
X117714250Y-51515000D01*
X117023690Y-51515000D01*
X116790301Y-51611673D01*
X116611673Y-51790302D01*
X116539403Y-51964777D01*
X116510054Y-51920853D01*
X116028285Y-51598946D01*
X115460000Y-51485907D01*
X114891715Y-51598946D01*
X114409946Y-51920853D01*
X114088039Y-52402622D01*
X113975000Y-52970907D01*
X112197440Y-52970907D01*
X112197440Y-52510000D01*
X112153162Y-52274683D01*
X112014090Y-52058559D01*
X111801890Y-51913569D01*
X111550000Y-51862560D01*
X110550000Y-51862560D01*
X110314683Y-51906838D01*
X110098559Y-52045910D01*
X110016564Y-52165914D01*
X110000000Y-52162560D01*
X109924272Y-52162560D01*
X109984811Y-52016767D01*
X109985188Y-51585127D01*
X109820354Y-51186200D01*
X109515405Y-50880718D01*
X109116767Y-50715189D01*
X108685127Y-50714812D01*
X108286200Y-50879646D01*
X107980718Y-51184595D01*
X107815189Y-51583233D01*
X107814812Y-52014873D01*
X107875835Y-52162560D01*
X107800000Y-52162560D01*
X107564683Y-52206838D01*
X107348559Y-52345910D01*
X107203569Y-52558110D01*
X107152560Y-52810000D01*
X106296841Y-52810000D01*
X106513800Y-52720354D01*
X106819282Y-52415405D01*
X106984811Y-52016767D01*
X106985188Y-51585127D01*
X106820354Y-51186200D01*
X106515405Y-50880718D01*
X106116767Y-50715189D01*
X105685127Y-50714812D01*
X105286200Y-50879646D01*
X104980718Y-51184595D01*
X104815189Y-51583233D01*
X104814812Y-52014873D01*
X104875835Y-52162560D01*
X104800000Y-52162560D01*
X104783063Y-52165747D01*
X104714090Y-52058559D01*
X104501890Y-51913569D01*
X104250000Y-51862560D01*
X103250000Y-51862560D01*
X103014683Y-51906838D01*
X102798559Y-52045910D01*
X102653569Y-52258110D01*
X102602560Y-52510000D01*
X102602560Y-53310000D01*
X102646838Y-53545317D01*
X102785910Y-53761441D01*
X102998110Y-53906431D01*
X103089806Y-53925000D01*
X87516580Y-53925000D01*
X87265790Y-53674210D01*
X86978675Y-53482367D01*
X86922484Y-53471190D01*
X86787440Y-53444327D01*
X86787440Y-51125000D01*
X86743162Y-50889683D01*
X86627539Y-50710000D01*
X102602560Y-50710000D01*
X102602560Y-51100000D01*
X102646838Y-51335317D01*
X102785910Y-51551441D01*
X102998110Y-51696431D01*
X103250000Y-51747440D01*
X104250000Y-51747440D01*
X104485317Y-51703162D01*
X104701441Y-51564090D01*
X104846431Y-51351890D01*
X104897440Y-51100000D01*
X104897440Y-50710000D01*
X109902560Y-50710000D01*
X109902560Y-51100000D01*
X109946838Y-51335317D01*
X110085910Y-51551441D01*
X110298110Y-51696431D01*
X110550000Y-51747440D01*
X111550000Y-51747440D01*
X111785317Y-51703162D01*
X112001441Y-51564090D01*
X112146431Y-51351890D01*
X112197440Y-51100000D01*
X112197440Y-50710000D01*
X130912560Y-50710000D01*
X130912560Y-51745471D01*
X130143030Y-52515000D01*
X127606844Y-52515000D01*
X127564090Y-52448559D01*
X127351890Y-52303569D01*
X127100000Y-52252560D01*
X126100000Y-52252560D01*
X125864683Y-52296838D01*
X125648559Y-52435910D01*
X125503569Y-52648110D01*
X125452560Y-52900000D01*
X125452560Y-53900000D01*
X125496838Y-54135317D01*
X125635910Y-54351441D01*
X125848110Y-54496431D01*
X126100000Y-54547440D01*
X127100000Y-54547440D01*
X127335317Y-54503162D01*
X127551441Y-54364090D01*
X127605481Y-54285000D01*
X130509605Y-54285000D01*
X130509610Y-54285001D01*
X130792094Y-54228810D01*
X130848285Y-54217633D01*
X130925000Y-54166374D01*
X130925000Y-54166612D01*
X131089844Y-54166612D01*
X130968524Y-54396500D01*
X131138355Y-54806534D01*
X131528642Y-55234793D01*
X131671553Y-55301908D01*
X131330853Y-55529556D01*
X131008946Y-56011325D01*
X130895907Y-56579610D01*
X131008946Y-57147895D01*
X131330853Y-57629664D01*
X131660026Y-57849610D01*
X131330853Y-58069556D01*
X131008946Y-58551325D01*
X130895907Y-59119610D01*
X131008946Y-59687895D01*
X131330853Y-60169664D01*
X131660026Y-60389610D01*
X131330853Y-60609556D01*
X131137046Y-60899610D01*
X83340390Y-60899610D01*
X83049551Y-60957462D01*
X82802989Y-61122209D01*
X81860320Y-62064878D01*
X81814833Y-62064838D01*
X81471057Y-62206883D01*
X81207808Y-62469673D01*
X81065162Y-62813201D01*
X81064838Y-63185167D01*
X81206883Y-63528943D01*
X81469673Y-63792192D01*
X81813201Y-63934838D01*
X82185167Y-63935162D01*
X82528943Y-63793117D01*
X82792192Y-63530327D01*
X82934838Y-63186799D01*
X82934879Y-63139923D01*
X83655192Y-62419610D01*
X131137046Y-62419610D01*
X131330853Y-62709664D01*
X131660026Y-62929610D01*
X131330853Y-63149556D01*
X131137046Y-63439610D01*
X93800390Y-63439610D01*
X93509551Y-63497462D01*
X93262989Y-63662209D01*
X88860320Y-68064878D01*
X88814833Y-68064838D01*
X88471057Y-68206883D01*
X88207808Y-68469673D01*
X88065162Y-68813201D01*
X88064838Y-69185167D01*
X88206883Y-69528943D01*
X88469673Y-69792192D01*
X88813201Y-69934838D01*
X89185167Y-69935162D01*
X89528943Y-69793117D01*
X89792192Y-69530327D01*
X89934838Y-69186799D01*
X89934879Y-69139923D01*
X94115192Y-64959610D01*
X131137046Y-64959610D01*
X131330853Y-65249664D01*
X131660026Y-65469610D01*
X131330853Y-65689556D01*
X131008946Y-66171325D01*
X130895907Y-66739610D01*
X130968790Y-67106018D01*
X123534808Y-74540000D01*
X80614802Y-74540000D01*
X75935122Y-69860320D01*
X75935162Y-69814833D01*
X75793117Y-69471057D01*
X75530327Y-69207808D01*
X75186799Y-69065162D01*
X74814833Y-69064838D01*
X74471057Y-69206883D01*
X74207808Y-69469673D01*
X74065162Y-69813201D01*
X74064838Y-70185167D01*
X74206883Y-70528943D01*
X74469673Y-70792192D01*
X74813201Y-70934838D01*
X74860077Y-70934879D01*
X79762599Y-75837401D01*
X80009161Y-76002148D01*
X80300000Y-76060000D01*
X81064947Y-76060000D01*
X81064838Y-76185167D01*
X81206883Y-76528943D01*
X81469673Y-76792192D01*
X81813201Y-76934838D01*
X82185167Y-76935162D01*
X82528943Y-76793117D01*
X82562118Y-76760000D01*
X125689610Y-76760000D01*
X125980449Y-76702148D01*
X126227011Y-76537401D01*
X130904019Y-71860393D01*
X131008946Y-72387895D01*
X131330853Y-72869664D01*
X131660026Y-73089610D01*
X131330853Y-73309556D01*
X131008946Y-73791325D01*
X130895907Y-74359610D01*
X131008946Y-74927895D01*
X131330853Y-75409664D01*
X131660026Y-75629610D01*
X131330853Y-75849556D01*
X131008946Y-76331325D01*
X130895907Y-76899610D01*
X131008946Y-77467895D01*
X131330853Y-77949664D01*
X131660026Y-78169610D01*
X131330853Y-78389556D01*
X131008946Y-78871325D01*
X130895907Y-79439610D01*
X131008946Y-80007895D01*
X131330853Y-80489664D01*
X131660026Y-80709610D01*
X131330853Y-80929556D01*
X131008946Y-81411325D01*
X130895907Y-81979610D01*
X131008946Y-82547895D01*
X131330853Y-83029664D01*
X131660026Y-83249610D01*
X131330853Y-83469556D01*
X131008946Y-83951325D01*
X130895907Y-84519610D01*
X131008946Y-85087895D01*
X131330853Y-85569664D01*
X131812622Y-85891571D01*
X132380907Y-86004610D01*
X132439093Y-86004610D01*
X133007378Y-85891571D01*
X133489147Y-85569664D01*
X133811054Y-85087895D01*
X133924093Y-84519610D01*
X133851210Y-84153202D01*
X134144412Y-83860000D01*
X134323258Y-83860000D01*
X134346838Y-83985317D01*
X134449245Y-84144462D01*
X134402560Y-84375000D01*
X134402560Y-85625000D01*
X134446838Y-85860317D01*
X134561575Y-86038623D01*
X119210198Y-101390000D01*
X114597440Y-101390000D01*
X114597440Y-100750000D01*
X114553162Y-100514683D01*
X114414090Y-100298559D01*
X114201890Y-100153569D01*
X113950000Y-100102560D01*
X111150000Y-100102560D01*
X110914683Y-100146838D01*
X110698559Y-100285910D01*
X110553569Y-100498110D01*
X110502560Y-100750000D01*
X110502560Y-103550000D01*
X110546838Y-103785317D01*
X110685910Y-104001441D01*
X110898110Y-104146431D01*
X111150000Y-104197440D01*
X113950000Y-104197440D01*
X114185317Y-104153162D01*
X114401441Y-104014090D01*
X114546431Y-103801890D01*
X114597440Y-103550000D01*
X114597440Y-102910000D01*
X114866293Y-102910000D01*
X114765258Y-103153319D01*
X114764743Y-103744089D01*
X114990344Y-104290086D01*
X115407717Y-104708188D01*
X115953319Y-104934742D01*
X116544089Y-104935257D01*
X117090086Y-104709656D01*
X117508188Y-104292283D01*
X117734742Y-103746681D01*
X117735257Y-103155911D01*
X117633649Y-102910000D01*
X119525000Y-102910000D01*
X119815839Y-102852148D01*
X120062401Y-102687401D01*
X136337401Y-86412401D01*
X136430920Y-86272440D01*
X136550000Y-86272440D01*
X136785317Y-86228162D01*
X137001441Y-86089090D01*
X137049134Y-86019289D01*
X137085910Y-86076441D01*
X137298110Y-86221431D01*
X137550000Y-86272440D01*
X139050000Y-86272440D01*
X139285317Y-86228162D01*
X139501441Y-86089090D01*
X139646431Y-85876890D01*
X139697440Y-85625000D01*
X139697440Y-84375000D01*
X139653162Y-84139683D01*
X139652735Y-84139019D01*
X139746431Y-84001890D01*
X139797440Y-83750000D01*
X139797440Y-82450000D01*
X139753162Y-82214683D01*
X139650755Y-82055538D01*
X139697440Y-81825000D01*
X139697440Y-80575000D01*
X139653162Y-80339683D01*
X139514090Y-80123559D01*
X139301890Y-79978569D01*
X139050000Y-79927560D01*
X137550000Y-79927560D01*
X137314683Y-79971838D01*
X137098559Y-80110910D01*
X137052031Y-80179006D01*
X136909698Y-80036673D01*
X136676309Y-79940000D01*
X136085750Y-79940000D01*
X135927000Y-80098750D01*
X135927000Y-81073000D01*
X135947000Y-81073000D01*
X135947000Y-81327000D01*
X135927000Y-81327000D01*
X135927000Y-81347000D01*
X135673000Y-81347000D01*
X135673000Y-81327000D01*
X134573750Y-81327000D01*
X134415000Y-81485750D01*
X134415000Y-81951310D01*
X134455460Y-82048988D01*
X134353569Y-82198110D01*
X134324836Y-82340000D01*
X133852407Y-82340000D01*
X133924093Y-81979610D01*
X133851210Y-81613202D01*
X134482581Y-80981831D01*
X134573750Y-81073000D01*
X135673000Y-81073000D01*
X135673000Y-80098750D01*
X135519331Y-79945081D01*
X136704412Y-78760000D01*
X143685198Y-78760000D01*
X144840000Y-79914802D01*
X144840000Y-79940000D01*
X144485750Y-79940000D01*
X144327000Y-80098750D01*
X144327000Y-81073000D01*
X144347000Y-81073000D01*
X144347000Y-81327000D01*
X144327000Y-81327000D01*
X144327000Y-81347000D01*
X144073000Y-81347000D01*
X144073000Y-81327000D01*
X144053000Y-81327000D01*
X144053000Y-81073000D01*
X144073000Y-81073000D01*
X144073000Y-80098750D01*
X143914250Y-79940000D01*
X143323691Y-79940000D01*
X143090302Y-80036673D01*
X142949064Y-80177910D01*
X142914090Y-80123559D01*
X142701890Y-79978569D01*
X142450000Y-79927560D01*
X140950000Y-79927560D01*
X140714683Y-79971838D01*
X140498559Y-80110910D01*
X140353569Y-80323110D01*
X140302560Y-80575000D01*
X140302560Y-81825000D01*
X140346838Y-82060317D01*
X140347265Y-82060981D01*
X140253569Y-82198110D01*
X140202560Y-82450000D01*
X140202560Y-83750000D01*
X140246838Y-83985317D01*
X140349245Y-84144462D01*
X140302560Y-84375000D01*
X140302560Y-85625000D01*
X140346838Y-85860317D01*
X140485910Y-86076441D01*
X140698110Y-86221431D01*
X140950000Y-86272440D01*
X141727758Y-86272440D01*
X120197638Y-107802560D01*
X118550000Y-107802560D01*
X118314683Y-107846838D01*
X118098559Y-107985910D01*
X117953569Y-108198110D01*
X117902560Y-108450000D01*
X117902560Y-110650000D01*
X117946838Y-110885317D01*
X118085910Y-111101441D01*
X118298110Y-111246431D01*
X118550000Y-111297440D01*
X121350000Y-111297440D01*
X121585317Y-111253162D01*
X121801441Y-111114090D01*
X121946431Y-110901890D01*
X121997440Y-110650000D01*
X121997440Y-109551540D01*
X182214518Y-109551540D01*
X182637616Y-110575515D01*
X183420365Y-111359631D01*
X184443599Y-111784515D01*
X185551540Y-111785482D01*
X186575515Y-111362384D01*
X187359631Y-110579635D01*
X187784515Y-109556401D01*
X187785482Y-108448460D01*
X187362384Y-107424485D01*
X186579635Y-106640369D01*
X185556401Y-106215485D01*
X184448460Y-106214518D01*
X183424485Y-106637616D01*
X182640369Y-107420365D01*
X182215485Y-108443599D01*
X182214518Y-109551540D01*
X121997440Y-109551540D01*
X121997440Y-108450000D01*
X121953162Y-108214683D01*
X121946098Y-108203704D01*
X143877362Y-86272440D01*
X144950000Y-86272440D01*
X145185317Y-86228162D01*
X145401441Y-86089090D01*
X145546431Y-85876890D01*
X145597440Y-85625000D01*
X145597440Y-84375000D01*
X145553162Y-84139683D01*
X145552735Y-84139019D01*
X145646431Y-84001890D01*
X145697440Y-83750000D01*
X145697440Y-82877362D01*
X146137401Y-82437401D01*
X146206421Y-82334106D01*
X146248946Y-82547895D01*
X146570853Y-83029664D01*
X146900026Y-83249610D01*
X146570853Y-83469556D01*
X146248946Y-83951325D01*
X146135907Y-84519610D01*
X146248946Y-85087895D01*
X146570853Y-85569664D01*
X147052622Y-85891571D01*
X147620907Y-86004610D01*
X147679093Y-86004610D01*
X148247378Y-85891571D01*
X148729147Y-85569664D01*
X149051054Y-85087895D01*
X149164093Y-84519610D01*
X149051054Y-83951325D01*
X148729147Y-83469556D01*
X148399974Y-83249610D01*
X148729147Y-83029664D01*
X149051054Y-82547895D01*
X149164093Y-81979610D01*
X149051054Y-81411325D01*
X149028229Y-81377165D01*
X149237401Y-81237401D01*
X150314802Y-80160000D01*
X174045363Y-80160000D01*
X173945907Y-80660000D01*
X174058946Y-81228285D01*
X174380853Y-81710054D01*
X174710026Y-81930000D01*
X174380853Y-82149946D01*
X174058946Y-82631715D01*
X173945907Y-83200000D01*
X174058946Y-83768285D01*
X174380853Y-84250054D01*
X174710026Y-84470000D01*
X174380853Y-84689946D01*
X174058946Y-85171715D01*
X173945907Y-85740000D01*
X174058946Y-86308285D01*
X174380853Y-86790054D01*
X174710026Y-87010000D01*
X174380853Y-87229946D01*
X174058946Y-87711715D01*
X173945907Y-88280000D01*
X174058946Y-88848285D01*
X174380853Y-89330054D01*
X174710026Y-89550000D01*
X174380853Y-89769946D01*
X174058946Y-90251715D01*
X173945907Y-90820000D01*
X174058946Y-91388285D01*
X174380853Y-91870054D01*
X174710026Y-92090000D01*
X174380853Y-92309946D01*
X174058946Y-92791715D01*
X173945907Y-93360000D01*
X174058946Y-93928285D01*
X174380853Y-94410054D01*
X174710026Y-94630000D01*
X174380853Y-94849946D01*
X174058946Y-95331715D01*
X173945907Y-95900000D01*
X174058946Y-96468285D01*
X174380853Y-96950054D01*
X174710026Y-97170000D01*
X174380853Y-97389946D01*
X174058946Y-97871715D01*
X173945907Y-98440000D01*
X174058946Y-99008285D01*
X174380853Y-99490054D01*
X174710026Y-99710000D01*
X174380853Y-99929946D01*
X174058946Y-100411715D01*
X173945907Y-100980000D01*
X174058946Y-101548285D01*
X174380853Y-102030054D01*
X174710026Y-102250000D01*
X174380853Y-102469946D01*
X174058946Y-102951715D01*
X173945907Y-103520000D01*
X174058946Y-104088285D01*
X174380853Y-104570054D01*
X174710026Y-104790000D01*
X174380853Y-105009946D01*
X174058946Y-105491715D01*
X173945907Y-106060000D01*
X174058946Y-106628285D01*
X174380853Y-107110054D01*
X174862622Y-107431961D01*
X175430907Y-107545000D01*
X175489093Y-107545000D01*
X176057378Y-107431961D01*
X176539147Y-107110054D01*
X176730000Y-106824422D01*
X176920853Y-107110054D01*
X177402622Y-107431961D01*
X177970907Y-107545000D01*
X178029093Y-107545000D01*
X178597378Y-107431961D01*
X179079147Y-107110054D01*
X179401054Y-106628285D01*
X179514093Y-106060000D01*
X179401054Y-105491715D01*
X179079147Y-105009946D01*
X178749974Y-104790000D01*
X179079147Y-104570054D01*
X179401054Y-104088285D01*
X179514093Y-103520000D01*
X179401054Y-102951715D01*
X179079147Y-102469946D01*
X178749974Y-102250000D01*
X179079147Y-102030054D01*
X179401054Y-101548285D01*
X179514093Y-100980000D01*
X179401054Y-100411715D01*
X179079147Y-99929946D01*
X178749974Y-99710000D01*
X179079147Y-99490054D01*
X179401054Y-99008285D01*
X179514093Y-98440000D01*
X179401054Y-97871715D01*
X179079147Y-97389946D01*
X178749974Y-97170000D01*
X179079147Y-96950054D01*
X179401054Y-96468285D01*
X179514093Y-95900000D01*
X179401054Y-95331715D01*
X179079147Y-94849946D01*
X178749974Y-94630000D01*
X179079147Y-94410054D01*
X179401054Y-93928285D01*
X179514093Y-93360000D01*
X179401054Y-92791715D01*
X179079147Y-92309946D01*
X178749974Y-92090000D01*
X179079147Y-91870054D01*
X179401054Y-91388285D01*
X179514093Y-90820000D01*
X179401054Y-90251715D01*
X179079147Y-89769946D01*
X178749974Y-89550000D01*
X179079147Y-89330054D01*
X179401054Y-88848285D01*
X179514093Y-88280000D01*
X179401054Y-87711715D01*
X179079147Y-87229946D01*
X178738447Y-87002298D01*
X178881358Y-86935183D01*
X179271645Y-86506924D01*
X179441476Y-86096890D01*
X179320155Y-85867000D01*
X178127000Y-85867000D01*
X178127000Y-85887000D01*
X177873000Y-85887000D01*
X177873000Y-85867000D01*
X177853000Y-85867000D01*
X177853000Y-85613000D01*
X177873000Y-85613000D01*
X177873000Y-85593000D01*
X178127000Y-85593000D01*
X178127000Y-85613000D01*
X179320155Y-85613000D01*
X179441476Y-85383110D01*
X179271645Y-84973076D01*
X178881358Y-84544817D01*
X178738447Y-84477702D01*
X179079147Y-84250054D01*
X179401054Y-83768285D01*
X179514093Y-83200000D01*
X179401054Y-82631715D01*
X179079147Y-82149946D01*
X178749974Y-81930000D01*
X179079147Y-81710054D01*
X179401054Y-81228285D01*
X179514093Y-80660000D01*
X179414637Y-80160000D01*
X197432972Y-80160000D01*
X197613201Y-80234838D01*
X197985167Y-80235162D01*
X198328943Y-80093117D01*
X198592192Y-79830327D01*
X198734838Y-79486799D01*
X198735162Y-79114833D01*
X198593117Y-78771057D01*
X198330327Y-78507808D01*
X197986799Y-78365162D01*
X197614833Y-78364838D01*
X197271057Y-78506883D01*
X197137707Y-78640000D01*
X179410658Y-78640000D01*
X179514093Y-78120000D01*
X179414637Y-77620000D01*
X199740000Y-77620000D01*
X200030839Y-77562148D01*
X200277401Y-77397401D01*
X204839680Y-72835122D01*
X204885167Y-72835162D01*
X205228943Y-72693117D01*
X205492192Y-72430327D01*
X205634838Y-72086799D01*
X205635162Y-71714833D01*
X205493117Y-71371057D01*
X205230327Y-71107808D01*
X204886799Y-70965162D01*
X204514833Y-70964838D01*
X204171057Y-71106883D01*
X203907808Y-71369673D01*
X203765162Y-71713201D01*
X203765121Y-71760077D01*
X199425198Y-76100000D01*
X179410658Y-76100000D01*
X179514093Y-75580000D01*
X179410658Y-75060000D01*
X189200000Y-75060000D01*
X189490839Y-75002148D01*
X189737401Y-74837401D01*
X190939680Y-73635122D01*
X190985167Y-73635162D01*
X191328943Y-73493117D01*
X191592192Y-73230327D01*
X191734838Y-72886799D01*
X191735162Y-72514833D01*
X191593117Y-72171057D01*
X191330327Y-71907808D01*
X191214917Y-71859885D01*
X198139680Y-64935122D01*
X198185167Y-64935162D01*
X198528943Y-64793117D01*
X198792192Y-64530327D01*
X198934838Y-64186799D01*
X198935162Y-63814833D01*
X198793117Y-63471057D01*
X198530327Y-63207808D01*
X198186799Y-63065162D01*
X197814833Y-63064838D01*
X197471057Y-63206883D01*
X197207808Y-63469673D01*
X197065162Y-63813201D01*
X197065121Y-63860077D01*
X189885198Y-71040000D01*
X179406680Y-71040000D01*
X179514093Y-70500000D01*
X179401054Y-69931715D01*
X179079147Y-69449946D01*
X178749974Y-69230000D01*
X179079147Y-69010054D01*
X179401054Y-68528285D01*
X179514093Y-67960000D01*
X179401054Y-67391715D01*
X179079147Y-66909946D01*
X178749974Y-66690000D01*
X179079147Y-66470054D01*
X179401054Y-65988285D01*
X179514093Y-65420000D01*
X179401054Y-64851715D01*
X179079147Y-64369946D01*
X178749974Y-64150000D01*
X179079147Y-63930054D01*
X179401054Y-63448285D01*
X179514093Y-62880000D01*
X179401054Y-62311715D01*
X179079147Y-61829946D01*
X178749974Y-61610000D01*
X179079147Y-61390054D01*
X179401054Y-60908285D01*
X179514093Y-60340000D01*
X179401054Y-59771715D01*
X179079147Y-59289946D01*
X178738447Y-59062298D01*
X178881358Y-58995183D01*
X179271645Y-58566924D01*
X179441476Y-58156890D01*
X179320155Y-57927000D01*
X178127000Y-57927000D01*
X178127000Y-57947000D01*
X177873000Y-57947000D01*
X177873000Y-57927000D01*
X177853000Y-57927000D01*
X177853000Y-57673000D01*
X177873000Y-57673000D01*
X177873000Y-56479181D01*
X178127000Y-56479181D01*
X178127000Y-57673000D01*
X179320155Y-57673000D01*
X179441476Y-57443110D01*
X179271645Y-57033076D01*
X178881358Y-56604817D01*
X178356892Y-56358514D01*
X178127000Y-56479181D01*
X177873000Y-56479181D01*
X177643108Y-56358514D01*
X177118642Y-56604817D01*
X176931192Y-56810504D01*
X176913162Y-56714683D01*
X176774090Y-56498559D01*
X176561890Y-56353569D01*
X176310000Y-56302560D01*
X174610000Y-56302560D01*
X174374683Y-56346838D01*
X174158559Y-56485910D01*
X174013569Y-56698110D01*
X173962560Y-56950000D01*
X173962560Y-58650000D01*
X174006838Y-58885317D01*
X174145910Y-59101441D01*
X174358110Y-59246431D01*
X174425541Y-59260086D01*
X174380853Y-59289946D01*
X174058946Y-59771715D01*
X173945907Y-60340000D01*
X174058946Y-60908285D01*
X174380853Y-61390054D01*
X174710026Y-61610000D01*
X174380853Y-61829946D01*
X174058946Y-62311715D01*
X173945907Y-62880000D01*
X174058946Y-63448285D01*
X174380853Y-63930054D01*
X174710026Y-64150000D01*
X174380853Y-64369946D01*
X174058946Y-64851715D01*
X173945907Y-65420000D01*
X174058946Y-65988285D01*
X174380853Y-66470054D01*
X174710026Y-66690000D01*
X174380853Y-66909946D01*
X174058946Y-67391715D01*
X173945907Y-67960000D01*
X174058946Y-68528285D01*
X174380853Y-69010054D01*
X174710026Y-69230000D01*
X174380853Y-69449946D01*
X174058946Y-69931715D01*
X173945907Y-70500000D01*
X174053320Y-71040000D01*
X150800000Y-71040000D01*
X150509161Y-71097852D01*
X150262599Y-71262599D01*
X149185198Y-72340000D01*
X149060581Y-72340000D01*
X149164093Y-71819610D01*
X149051054Y-71251325D01*
X148729147Y-70769556D01*
X148399974Y-70549610D01*
X148729147Y-70329664D01*
X149051054Y-69847895D01*
X149164093Y-69279610D01*
X149051054Y-68711325D01*
X148729147Y-68229556D01*
X148399974Y-68009610D01*
X148729147Y-67789664D01*
X149051054Y-67307895D01*
X149164093Y-66739610D01*
X149051054Y-66171325D01*
X148729147Y-65689556D01*
X148399974Y-65469610D01*
X148729147Y-65249664D01*
X149051054Y-64767895D01*
X149164093Y-64199610D01*
X149051054Y-63631325D01*
X148729147Y-63149556D01*
X148399974Y-62929610D01*
X148729147Y-62709664D01*
X149051054Y-62227895D01*
X149164093Y-61659610D01*
X149051054Y-61091325D01*
X148729147Y-60609556D01*
X148399974Y-60389610D01*
X148729147Y-60169664D01*
X149051054Y-59687895D01*
X149164093Y-59119610D01*
X149051054Y-58551325D01*
X148729147Y-58069556D01*
X148399974Y-57849610D01*
X148729147Y-57629664D01*
X149051054Y-57147895D01*
X149164093Y-56579610D01*
X149051054Y-56011325D01*
X148729147Y-55529556D01*
X148399974Y-55309610D01*
X148729147Y-55089664D01*
X149051054Y-54607895D01*
X149164093Y-54039610D01*
X149051054Y-53471325D01*
X148729147Y-52989556D01*
X148685223Y-52960207D01*
X148859698Y-52887937D01*
X149038327Y-52709309D01*
X149135000Y-52475920D01*
X149135000Y-51785360D01*
X148976250Y-51626610D01*
X147777000Y-51626610D01*
X147777000Y-51646610D01*
X147523000Y-51646610D01*
X147523000Y-51626610D01*
X146323750Y-51626610D01*
X146165000Y-51785360D01*
X146165000Y-52475920D01*
X146261673Y-52709309D01*
X146440302Y-52887937D01*
X146614777Y-52960207D01*
X146570853Y-52989556D01*
X146248946Y-53471325D01*
X146135907Y-54039610D01*
X146248946Y-54607895D01*
X146570853Y-55089664D01*
X146900026Y-55309610D01*
X146570853Y-55529556D01*
X146248946Y-56011325D01*
X146135907Y-56579610D01*
X146248946Y-57147895D01*
X146570853Y-57629664D01*
X146900026Y-57849610D01*
X146570853Y-58069556D01*
X146248946Y-58551325D01*
X146135907Y-59119610D01*
X146248946Y-59687895D01*
X146570853Y-60169664D01*
X146900026Y-60389610D01*
X146570853Y-60609556D01*
X146248946Y-61091325D01*
X146135907Y-61659610D01*
X146248946Y-62227895D01*
X146570853Y-62709664D01*
X146900026Y-62929610D01*
X146570853Y-63149556D01*
X146248946Y-63631325D01*
X146135907Y-64199610D01*
X146248946Y-64767895D01*
X146570853Y-65249664D01*
X146900026Y-65469610D01*
X146570853Y-65689556D01*
X146248946Y-66171325D01*
X146135907Y-66739610D01*
X146248946Y-67307895D01*
X146570853Y-67789664D01*
X146900026Y-68009610D01*
X146570853Y-68229556D01*
X146248946Y-68711325D01*
X146135907Y-69279610D01*
X146248946Y-69847895D01*
X146570853Y-70329664D01*
X146900026Y-70549610D01*
X146570853Y-70769556D01*
X146248946Y-71251325D01*
X146135907Y-71819610D01*
X146239419Y-72340000D01*
X134005192Y-72340000D01*
X133851210Y-72186018D01*
X133924093Y-71819610D01*
X133811054Y-71251325D01*
X133489147Y-70769556D01*
X133159974Y-70549610D01*
X133489147Y-70329664D01*
X133811054Y-69847895D01*
X133924093Y-69279610D01*
X133811054Y-68711325D01*
X133489147Y-68229556D01*
X133159974Y-68009610D01*
X133489147Y-67789664D01*
X133811054Y-67307895D01*
X133924093Y-66739610D01*
X133811054Y-66171325D01*
X133489147Y-65689556D01*
X133159974Y-65469610D01*
X133489147Y-65249664D01*
X133811054Y-64767895D01*
X133924093Y-64199610D01*
X133811054Y-63631325D01*
X133489147Y-63149556D01*
X133159974Y-62929610D01*
X133489147Y-62709664D01*
X133811054Y-62227895D01*
X133924093Y-61659610D01*
X133811054Y-61091325D01*
X133489147Y-60609556D01*
X133159974Y-60389610D01*
X133489147Y-60169664D01*
X133811054Y-59687895D01*
X133924093Y-59119610D01*
X133811054Y-58551325D01*
X133489147Y-58069556D01*
X133159974Y-57849610D01*
X133489147Y-57629664D01*
X133811054Y-57147895D01*
X133924093Y-56579610D01*
X133811054Y-56011325D01*
X133489147Y-55529556D01*
X133148447Y-55301908D01*
X133291358Y-55234793D01*
X133681645Y-54806534D01*
X133851476Y-54396500D01*
X133730155Y-54166610D01*
X132537000Y-54166610D01*
X132537000Y-54186610D01*
X132283000Y-54186610D01*
X132283000Y-54166610D01*
X132263000Y-54166610D01*
X132263000Y-53912610D01*
X132283000Y-53912610D01*
X132283000Y-53892610D01*
X132537000Y-53892610D01*
X132537000Y-53912610D01*
X133730155Y-53912610D01*
X133851476Y-53682720D01*
X133681645Y-53272686D01*
X133405499Y-52969673D01*
X133495317Y-52952772D01*
X133711441Y-52813700D01*
X133856431Y-52601500D01*
X133907440Y-52349610D01*
X133907440Y-50710000D01*
X146165000Y-50710000D01*
X146165000Y-51213860D01*
X146323750Y-51372610D01*
X147523000Y-51372610D01*
X147523000Y-51352610D01*
X147777000Y-51352610D01*
X147777000Y-51372610D01*
X148976250Y-51372610D01*
X149135000Y-51213860D01*
X149135000Y-50710000D01*
X193377675Y-50710000D01*
X193298559Y-50760910D01*
X193153569Y-50973110D01*
X193102560Y-51225000D01*
X193102560Y-57575000D01*
X193146838Y-57810317D01*
X193285910Y-58026441D01*
X193498110Y-58171431D01*
X193750000Y-58222440D01*
X198830000Y-58222440D01*
X199065317Y-58178162D01*
X199281441Y-58039090D01*
X199426431Y-57826890D01*
X199477440Y-57575000D01*
X199477440Y-55285000D01*
X204012560Y-55285000D01*
X204012560Y-57575000D01*
X204056838Y-57810317D01*
X204195910Y-58026441D01*
X204408110Y-58171431D01*
X204660000Y-58222440D01*
X209740000Y-58222440D01*
X209975317Y-58178162D01*
X210191441Y-58039090D01*
X210336431Y-57826890D01*
X210387440Y-57575000D01*
X210387440Y-51225000D01*
X210343162Y-50989683D01*
X210204090Y-50773559D01*
X210185400Y-50760788D01*
X213549805Y-51430010D01*
X216559187Y-53440814D01*
X218569989Y-56450193D01*
X219290000Y-60069931D01*
X219290000Y-103930069D01*
X218569989Y-107549807D01*
X216559187Y-110559186D01*
X213549805Y-112569990D01*
X210086083Y-113258967D01*
X210099699Y-113253327D01*
X210278327Y-113074698D01*
X210375000Y-112841309D01*
X210375000Y-109825750D01*
X210216250Y-109667000D01*
X207327000Y-109667000D01*
X207327000Y-109687000D01*
X207073000Y-109687000D01*
X207073000Y-109667000D01*
X204183750Y-109667000D01*
X204025000Y-109825750D01*
X204025000Y-112841309D01*
X204121673Y-113074698D01*
X204300301Y-113253327D01*
X204388837Y-113290000D01*
X199109082Y-113290000D01*
X199281441Y-113179090D01*
X199426431Y-112966890D01*
X199477440Y-112715000D01*
X199477440Y-106365000D01*
X199453674Y-106238691D01*
X204025000Y-106238691D01*
X204025000Y-109254250D01*
X204183750Y-109413000D01*
X207073000Y-109413000D01*
X207073000Y-105888750D01*
X207327000Y-105888750D01*
X207327000Y-109413000D01*
X210216250Y-109413000D01*
X210375000Y-109254250D01*
X210375000Y-107118130D01*
X210441588Y-107279286D01*
X210898309Y-107736805D01*
X211495349Y-107984718D01*
X212141814Y-107985282D01*
X212739286Y-107738412D01*
X213196805Y-107281691D01*
X213444718Y-106684651D01*
X213445282Y-106038186D01*
X213198412Y-105440714D01*
X212741691Y-104983195D01*
X212144651Y-104735282D01*
X211498186Y-104734718D01*
X210900714Y-104981588D01*
X210443195Y-105438309D01*
X210228464Y-105955439D01*
X210099699Y-105826673D01*
X209866310Y-105730000D01*
X207485750Y-105730000D01*
X207327000Y-105888750D01*
X207073000Y-105888750D01*
X206914250Y-105730000D01*
X204533690Y-105730000D01*
X204300301Y-105826673D01*
X204121673Y-106005302D01*
X204025000Y-106238691D01*
X199453674Y-106238691D01*
X199433162Y-106129683D01*
X199294090Y-105913559D01*
X199081890Y-105768569D01*
X198830000Y-105717560D01*
X193750000Y-105717560D01*
X193514683Y-105761838D01*
X193298559Y-105900910D01*
X193153569Y-106113110D01*
X193102560Y-106365000D01*
X193102560Y-108684327D01*
X192911325Y-108722367D01*
X192624210Y-108914210D01*
X192624208Y-108914213D01*
X189263420Y-112275000D01*
X114585000Y-112275000D01*
X114585000Y-111835750D01*
X114426250Y-111677000D01*
X112677000Y-111677000D01*
X112677000Y-111697000D01*
X112423000Y-111697000D01*
X112423000Y-111677000D01*
X110673750Y-111677000D01*
X110515000Y-111835750D01*
X110515000Y-112275000D01*
X98826579Y-112275000D01*
X96875271Y-110323691D01*
X110515000Y-110323691D01*
X110515000Y-111264250D01*
X110673750Y-111423000D01*
X112423000Y-111423000D01*
X112423000Y-109973750D01*
X112677000Y-109973750D01*
X112677000Y-111423000D01*
X114426250Y-111423000D01*
X114585000Y-111264250D01*
X114585000Y-110744089D01*
X114764743Y-110744089D01*
X114990344Y-111290086D01*
X115407717Y-111708188D01*
X115953319Y-111934742D01*
X116544089Y-111935257D01*
X117090086Y-111709656D01*
X117508188Y-111292283D01*
X117734742Y-110746681D01*
X117735257Y-110155911D01*
X117509656Y-109609914D01*
X117092283Y-109191812D01*
X116546681Y-108965258D01*
X115955911Y-108964743D01*
X115409914Y-109190344D01*
X114991812Y-109607717D01*
X114765258Y-110153319D01*
X114764743Y-110744089D01*
X114585000Y-110744089D01*
X114585000Y-110323691D01*
X114488327Y-110090302D01*
X114309699Y-109911673D01*
X114076310Y-109815000D01*
X112835750Y-109815000D01*
X112677000Y-109973750D01*
X112423000Y-109973750D01*
X112264250Y-109815000D01*
X111023690Y-109815000D01*
X110790301Y-109911673D01*
X110611673Y-110090302D01*
X110515000Y-110323691D01*
X96875271Y-110323691D01*
X73575000Y-87023420D01*
X73575000Y-58122440D01*
X75230000Y-58122440D01*
X75465317Y-58078162D01*
X75681441Y-57939090D01*
X75826431Y-57726890D01*
X75877440Y-57475000D01*
X75877440Y-51125000D01*
X75833162Y-50889683D01*
X75717539Y-50710000D01*
X80575017Y-50710000D01*
X80463569Y-50873110D01*
X80463569Y-50873110D01*
G37*
X80463569Y-50873110D02*
X80412560Y-51125000D01*
X80412560Y-57475000D01*
X80456838Y-57710317D01*
X80595910Y-57926441D01*
X80808110Y-58071431D01*
X81060000Y-58122440D01*
X86140000Y-58122440D01*
X86375317Y-58078162D01*
X86591441Y-57939090D01*
X86736431Y-57726890D01*
X86787440Y-57475000D01*
X86787440Y-55611674D01*
X86811325Y-55627633D01*
X86867516Y-55638810D01*
X87150000Y-55695001D01*
X87150005Y-55695000D01*
X104299995Y-55695000D01*
X104300000Y-55695001D01*
X104582484Y-55638810D01*
X104638675Y-55627633D01*
X104925790Y-55435790D01*
X105404139Y-54957440D01*
X105500000Y-54957440D01*
X105735317Y-54913162D01*
X105951441Y-54774090D01*
X106096431Y-54561890D01*
X106147440Y-54310000D01*
X106147440Y-52871732D01*
X106296841Y-52810000D01*
X107152560Y-52810000D01*
X107152560Y-54310000D01*
X107196838Y-54545317D01*
X107335910Y-54761441D01*
X107548110Y-54906431D01*
X107800000Y-54957440D01*
X107895860Y-54957440D01*
X109264208Y-56325787D01*
X109264210Y-56325790D01*
X109456054Y-56453975D01*
X109551326Y-56517634D01*
X109890000Y-56585001D01*
X109890005Y-56585000D01*
X120799995Y-56585000D01*
X120800000Y-56585001D01*
X121082484Y-56528810D01*
X121138675Y-56517633D01*
X121425790Y-56325790D01*
X123292883Y-54458696D01*
X123348110Y-54496431D01*
X123600000Y-54547440D01*
X124600000Y-54547440D01*
X124835317Y-54503162D01*
X125051441Y-54364090D01*
X125196431Y-54151890D01*
X125247440Y-53900000D01*
X125247440Y-52900000D01*
X125203162Y-52664683D01*
X125064090Y-52448559D01*
X124851890Y-52303569D01*
X124600000Y-52252560D01*
X123600000Y-52252560D01*
X123364683Y-52296838D01*
X123148559Y-52435910D01*
X123093658Y-52516261D01*
X122761325Y-52582367D01*
X122474210Y-52774210D01*
X122474208Y-52774213D01*
X120433420Y-54815000D01*
X110387865Y-54815000D01*
X110451441Y-54774090D01*
X110596431Y-54561890D01*
X110647440Y-54310000D01*
X110647440Y-53957440D01*
X111550000Y-53957440D01*
X111785317Y-53913162D01*
X112001441Y-53774090D01*
X112146431Y-53561890D01*
X112197440Y-53310000D01*
X112197440Y-52970907D01*
X113975000Y-52970907D01*
X113975000Y-53029093D01*
X114088039Y-53597378D01*
X114409946Y-54079147D01*
X114891715Y-54401054D01*
X115460000Y-54514093D01*
X116028285Y-54401054D01*
X116510054Y-54079147D01*
X116539403Y-54035223D01*
X116611673Y-54209698D01*
X116790301Y-54388327D01*
X117023690Y-54485000D01*
X117714250Y-54485000D01*
X117873000Y-54326250D01*
X117873000Y-53127000D01*
X118127000Y-53127000D01*
X118127000Y-54326250D01*
X118285750Y-54485000D01*
X118976310Y-54485000D01*
X119209699Y-54388327D01*
X119388327Y-54209698D01*
X119485000Y-53976309D01*
X119485000Y-53285750D01*
X119326250Y-53127000D01*
X118127000Y-53127000D01*
X117873000Y-53127000D01*
X117853000Y-53127000D01*
X117853000Y-52873000D01*
X117873000Y-52873000D01*
X117873000Y-51673750D01*
X118127000Y-51673750D01*
X118127000Y-52873000D01*
X119326250Y-52873000D01*
X119485000Y-52714250D01*
X119485000Y-52023691D01*
X119388327Y-51790302D01*
X119209699Y-51611673D01*
X118976310Y-51515000D01*
X118285750Y-51515000D01*
X118127000Y-51673750D01*
X117873000Y-51673750D01*
X117714250Y-51515000D01*
X117023690Y-51515000D01*
X116790301Y-51611673D01*
X116611673Y-51790302D01*
X116539403Y-51964777D01*
X116510054Y-51920853D01*
X116028285Y-51598946D01*
X115460000Y-51485907D01*
X114891715Y-51598946D01*
X114409946Y-51920853D01*
X114088039Y-52402622D01*
X113975000Y-52970907D01*
X112197440Y-52970907D01*
X112197440Y-52510000D01*
X112153162Y-52274683D01*
X112014090Y-52058559D01*
X111801890Y-51913569D01*
X111550000Y-51862560D01*
X110550000Y-51862560D01*
X110314683Y-51906838D01*
X110098559Y-52045910D01*
X110016564Y-52165914D01*
X110000000Y-52162560D01*
X109924272Y-52162560D01*
X109984811Y-52016767D01*
X109985188Y-51585127D01*
X109820354Y-51186200D01*
X109515405Y-50880718D01*
X109116767Y-50715189D01*
X108685127Y-50714812D01*
X108286200Y-50879646D01*
X107980718Y-51184595D01*
X107815189Y-51583233D01*
X107814812Y-52014873D01*
X107875835Y-52162560D01*
X107800000Y-52162560D01*
X107564683Y-52206838D01*
X107348559Y-52345910D01*
X107203569Y-52558110D01*
X107152560Y-52810000D01*
X106296841Y-52810000D01*
X106513800Y-52720354D01*
X106819282Y-52415405D01*
X106984811Y-52016767D01*
X106985188Y-51585127D01*
X106820354Y-51186200D01*
X106515405Y-50880718D01*
X106116767Y-50715189D01*
X105685127Y-50714812D01*
X105286200Y-50879646D01*
X104980718Y-51184595D01*
X104815189Y-51583233D01*
X104814812Y-52014873D01*
X104875835Y-52162560D01*
X104800000Y-52162560D01*
X104783063Y-52165747D01*
X104714090Y-52058559D01*
X104501890Y-51913569D01*
X104250000Y-51862560D01*
X103250000Y-51862560D01*
X103014683Y-51906838D01*
X102798559Y-52045910D01*
X102653569Y-52258110D01*
X102602560Y-52510000D01*
X102602560Y-53310000D01*
X102646838Y-53545317D01*
X102785910Y-53761441D01*
X102998110Y-53906431D01*
X103089806Y-53925000D01*
X87516580Y-53925000D01*
X87265790Y-53674210D01*
X86978675Y-53482367D01*
X86922484Y-53471190D01*
X86787440Y-53444327D01*
X86787440Y-51125000D01*
X86743162Y-50889683D01*
X86627539Y-50710000D01*
X102602560Y-50710000D01*
X102602560Y-51100000D01*
X102646838Y-51335317D01*
X102785910Y-51551441D01*
X102998110Y-51696431D01*
X103250000Y-51747440D01*
X104250000Y-51747440D01*
X104485317Y-51703162D01*
X104701441Y-51564090D01*
X104846431Y-51351890D01*
X104897440Y-51100000D01*
X104897440Y-50710000D01*
X109902560Y-50710000D01*
X109902560Y-51100000D01*
X109946838Y-51335317D01*
X110085910Y-51551441D01*
X110298110Y-51696431D01*
X110550000Y-51747440D01*
X111550000Y-51747440D01*
X111785317Y-51703162D01*
X112001441Y-51564090D01*
X112146431Y-51351890D01*
X112197440Y-51100000D01*
X112197440Y-50710000D01*
X130912560Y-50710000D01*
X130912560Y-51745471D01*
X130143030Y-52515000D01*
X127606844Y-52515000D01*
X127564090Y-52448559D01*
X127351890Y-52303569D01*
X127100000Y-52252560D01*
X126100000Y-52252560D01*
X125864683Y-52296838D01*
X125648559Y-52435910D01*
X125503569Y-52648110D01*
X125452560Y-52900000D01*
X125452560Y-53900000D01*
X125496838Y-54135317D01*
X125635910Y-54351441D01*
X125848110Y-54496431D01*
X126100000Y-54547440D01*
X127100000Y-54547440D01*
X127335317Y-54503162D01*
X127551441Y-54364090D01*
X127605481Y-54285000D01*
X130509605Y-54285000D01*
X130509610Y-54285001D01*
X130792094Y-54228810D01*
X130848285Y-54217633D01*
X130925000Y-54166374D01*
X130925000Y-54166612D01*
X131089844Y-54166612D01*
X130968524Y-54396500D01*
X131138355Y-54806534D01*
X131528642Y-55234793D01*
X131671553Y-55301908D01*
X131330853Y-55529556D01*
X131008946Y-56011325D01*
X130895907Y-56579610D01*
X131008946Y-57147895D01*
X131330853Y-57629664D01*
X131660026Y-57849610D01*
X131330853Y-58069556D01*
X131008946Y-58551325D01*
X130895907Y-59119610D01*
X131008946Y-59687895D01*
X131330853Y-60169664D01*
X131660026Y-60389610D01*
X131330853Y-60609556D01*
X131137046Y-60899610D01*
X83340390Y-60899610D01*
X83049551Y-60957462D01*
X82802989Y-61122209D01*
X81860320Y-62064878D01*
X81814833Y-62064838D01*
X81471057Y-62206883D01*
X81207808Y-62469673D01*
X81065162Y-62813201D01*
X81064838Y-63185167D01*
X81206883Y-63528943D01*
X81469673Y-63792192D01*
X81813201Y-63934838D01*
X82185167Y-63935162D01*
X82528943Y-63793117D01*
X82792192Y-63530327D01*
X82934838Y-63186799D01*
X82934879Y-63139923D01*
X83655192Y-62419610D01*
X131137046Y-62419610D01*
X131330853Y-62709664D01*
X131660026Y-62929610D01*
X131330853Y-63149556D01*
X131137046Y-63439610D01*
X93800390Y-63439610D01*
X93509551Y-63497462D01*
X93262989Y-63662209D01*
X88860320Y-68064878D01*
X88814833Y-68064838D01*
X88471057Y-68206883D01*
X88207808Y-68469673D01*
X88065162Y-68813201D01*
X88064838Y-69185167D01*
X88206883Y-69528943D01*
X88469673Y-69792192D01*
X88813201Y-69934838D01*
X89185167Y-69935162D01*
X89528943Y-69793117D01*
X89792192Y-69530327D01*
X89934838Y-69186799D01*
X89934879Y-69139923D01*
X94115192Y-64959610D01*
X131137046Y-64959610D01*
X131330853Y-65249664D01*
X131660026Y-65469610D01*
X131330853Y-65689556D01*
X131008946Y-66171325D01*
X130895907Y-66739610D01*
X130968790Y-67106018D01*
X123534808Y-74540000D01*
X80614802Y-74540000D01*
X75935122Y-69860320D01*
X75935162Y-69814833D01*
X75793117Y-69471057D01*
X75530327Y-69207808D01*
X75186799Y-69065162D01*
X74814833Y-69064838D01*
X74471057Y-69206883D01*
X74207808Y-69469673D01*
X74065162Y-69813201D01*
X74064838Y-70185167D01*
X74206883Y-70528943D01*
X74469673Y-70792192D01*
X74813201Y-70934838D01*
X74860077Y-70934879D01*
X79762599Y-75837401D01*
X80009161Y-76002148D01*
X80300000Y-76060000D01*
X81064947Y-76060000D01*
X81064838Y-76185167D01*
X81206883Y-76528943D01*
X81469673Y-76792192D01*
X81813201Y-76934838D01*
X82185167Y-76935162D01*
X82528943Y-76793117D01*
X82562118Y-76760000D01*
X125689610Y-76760000D01*
X125980449Y-76702148D01*
X126227011Y-76537401D01*
X130904019Y-71860393D01*
X131008946Y-72387895D01*
X131330853Y-72869664D01*
X131660026Y-73089610D01*
X131330853Y-73309556D01*
X131008946Y-73791325D01*
X130895907Y-74359610D01*
X131008946Y-74927895D01*
X131330853Y-75409664D01*
X131660026Y-75629610D01*
X131330853Y-75849556D01*
X131008946Y-76331325D01*
X130895907Y-76899610D01*
X131008946Y-77467895D01*
X131330853Y-77949664D01*
X131660026Y-78169610D01*
X131330853Y-78389556D01*
X131008946Y-78871325D01*
X130895907Y-79439610D01*
X131008946Y-80007895D01*
X131330853Y-80489664D01*
X131660026Y-80709610D01*
X131330853Y-80929556D01*
X131008946Y-81411325D01*
X130895907Y-81979610D01*
X131008946Y-82547895D01*
X131330853Y-83029664D01*
X131660026Y-83249610D01*
X131330853Y-83469556D01*
X131008946Y-83951325D01*
X130895907Y-84519610D01*
X131008946Y-85087895D01*
X131330853Y-85569664D01*
X131812622Y-85891571D01*
X132380907Y-86004610D01*
X132439093Y-86004610D01*
X133007378Y-85891571D01*
X133489147Y-85569664D01*
X133811054Y-85087895D01*
X133924093Y-84519610D01*
X133851210Y-84153202D01*
X134144412Y-83860000D01*
X134323258Y-83860000D01*
X134346838Y-83985317D01*
X134449245Y-84144462D01*
X134402560Y-84375000D01*
X134402560Y-85625000D01*
X134446838Y-85860317D01*
X134561575Y-86038623D01*
X119210198Y-101390000D01*
X114597440Y-101390000D01*
X114597440Y-100750000D01*
X114553162Y-100514683D01*
X114414090Y-100298559D01*
X114201890Y-100153569D01*
X113950000Y-100102560D01*
X111150000Y-100102560D01*
X110914683Y-100146838D01*
X110698559Y-100285910D01*
X110553569Y-100498110D01*
X110502560Y-100750000D01*
X110502560Y-103550000D01*
X110546838Y-103785317D01*
X110685910Y-104001441D01*
X110898110Y-104146431D01*
X111150000Y-104197440D01*
X113950000Y-104197440D01*
X114185317Y-104153162D01*
X114401441Y-104014090D01*
X114546431Y-103801890D01*
X114597440Y-103550000D01*
X114597440Y-102910000D01*
X114866293Y-102910000D01*
X114765258Y-103153319D01*
X114764743Y-103744089D01*
X114990344Y-104290086D01*
X115407717Y-104708188D01*
X115953319Y-104934742D01*
X116544089Y-104935257D01*
X117090086Y-104709656D01*
X117508188Y-104292283D01*
X117734742Y-103746681D01*
X117735257Y-103155911D01*
X117633649Y-102910000D01*
X119525000Y-102910000D01*
X119815839Y-102852148D01*
X120062401Y-102687401D01*
X136337401Y-86412401D01*
X136430920Y-86272440D01*
X136550000Y-86272440D01*
X136785317Y-86228162D01*
X137001441Y-86089090D01*
X137049134Y-86019289D01*
X137085910Y-86076441D01*
X137298110Y-86221431D01*
X137550000Y-86272440D01*
X139050000Y-86272440D01*
X139285317Y-86228162D01*
X139501441Y-86089090D01*
X139646431Y-85876890D01*
X139697440Y-85625000D01*
X139697440Y-84375000D01*
X139653162Y-84139683D01*
X139652735Y-84139019D01*
X139746431Y-84001890D01*
X139797440Y-83750000D01*
X139797440Y-82450000D01*
X139753162Y-82214683D01*
X139650755Y-82055538D01*
X139697440Y-81825000D01*
X139697440Y-80575000D01*
X139653162Y-80339683D01*
X139514090Y-80123559D01*
X139301890Y-79978569D01*
X139050000Y-79927560D01*
X137550000Y-79927560D01*
X137314683Y-79971838D01*
X137098559Y-80110910D01*
X137052031Y-80179006D01*
X136909698Y-80036673D01*
X136676309Y-79940000D01*
X136085750Y-79940000D01*
X135927000Y-80098750D01*
X135927000Y-81073000D01*
X135947000Y-81073000D01*
X135947000Y-81327000D01*
X135927000Y-81327000D01*
X135927000Y-81347000D01*
X135673000Y-81347000D01*
X135673000Y-81327000D01*
X134573750Y-81327000D01*
X134415000Y-81485750D01*
X134415000Y-81951310D01*
X134455460Y-82048988D01*
X134353569Y-82198110D01*
X134324836Y-82340000D01*
X133852407Y-82340000D01*
X133924093Y-81979610D01*
X133851210Y-81613202D01*
X134482581Y-80981831D01*
X134573750Y-81073000D01*
X135673000Y-81073000D01*
X135673000Y-80098750D01*
X135519331Y-79945081D01*
X136704412Y-78760000D01*
X143685198Y-78760000D01*
X144840000Y-79914802D01*
X144840000Y-79940000D01*
X144485750Y-79940000D01*
X144327000Y-80098750D01*
X144327000Y-81073000D01*
X144347000Y-81073000D01*
X144347000Y-81327000D01*
X144327000Y-81327000D01*
X144327000Y-81347000D01*
X144073000Y-81347000D01*
X144073000Y-81327000D01*
X144053000Y-81327000D01*
X144053000Y-81073000D01*
X144073000Y-81073000D01*
X144073000Y-80098750D01*
X143914250Y-79940000D01*
X143323691Y-79940000D01*
X143090302Y-80036673D01*
X142949064Y-80177910D01*
X142914090Y-80123559D01*
X142701890Y-79978569D01*
X142450000Y-79927560D01*
X140950000Y-79927560D01*
X140714683Y-79971838D01*
X140498559Y-80110910D01*
X140353569Y-80323110D01*
X140302560Y-80575000D01*
X140302560Y-81825000D01*
X140346838Y-82060317D01*
X140347265Y-82060981D01*
X140253569Y-82198110D01*
X140202560Y-82450000D01*
X140202560Y-83750000D01*
X140246838Y-83985317D01*
X140349245Y-84144462D01*
X140302560Y-84375000D01*
X140302560Y-85625000D01*
X140346838Y-85860317D01*
X140485910Y-86076441D01*
X140698110Y-86221431D01*
X140950000Y-86272440D01*
X141727758Y-86272440D01*
X120197638Y-107802560D01*
X118550000Y-107802560D01*
X118314683Y-107846838D01*
X118098559Y-107985910D01*
X117953569Y-108198110D01*
X117902560Y-108450000D01*
X117902560Y-110650000D01*
X117946838Y-110885317D01*
X118085910Y-111101441D01*
X118298110Y-111246431D01*
X118550000Y-111297440D01*
X121350000Y-111297440D01*
X121585317Y-111253162D01*
X121801441Y-111114090D01*
X121946431Y-110901890D01*
X121997440Y-110650000D01*
X121997440Y-109551540D01*
X182214518Y-109551540D01*
X182637616Y-110575515D01*
X183420365Y-111359631D01*
X184443599Y-111784515D01*
X185551540Y-111785482D01*
X186575515Y-111362384D01*
X187359631Y-110579635D01*
X187784515Y-109556401D01*
X187785482Y-108448460D01*
X187362384Y-107424485D01*
X186579635Y-106640369D01*
X185556401Y-106215485D01*
X184448460Y-106214518D01*
X183424485Y-106637616D01*
X182640369Y-107420365D01*
X182215485Y-108443599D01*
X182214518Y-109551540D01*
X121997440Y-109551540D01*
X121997440Y-108450000D01*
X121953162Y-108214683D01*
X121946098Y-108203704D01*
X143877362Y-86272440D01*
X144950000Y-86272440D01*
X145185317Y-86228162D01*
X145401441Y-86089090D01*
X145546431Y-85876890D01*
X145597440Y-85625000D01*
X145597440Y-84375000D01*
X145553162Y-84139683D01*
X145552735Y-84139019D01*
X145646431Y-84001890D01*
X145697440Y-83750000D01*
X145697440Y-82877362D01*
X146137401Y-82437401D01*
X146206421Y-82334106D01*
X146248946Y-82547895D01*
X146570853Y-83029664D01*
X146900026Y-83249610D01*
X146570853Y-83469556D01*
X146248946Y-83951325D01*
X146135907Y-84519610D01*
X146248946Y-85087895D01*
X146570853Y-85569664D01*
X147052622Y-85891571D01*
X147620907Y-86004610D01*
X147679093Y-86004610D01*
X148247378Y-85891571D01*
X148729147Y-85569664D01*
X149051054Y-85087895D01*
X149164093Y-84519610D01*
X149051054Y-83951325D01*
X148729147Y-83469556D01*
X148399974Y-83249610D01*
X148729147Y-83029664D01*
X149051054Y-82547895D01*
X149164093Y-81979610D01*
X149051054Y-81411325D01*
X149028229Y-81377165D01*
X149237401Y-81237401D01*
X150314802Y-80160000D01*
X174045363Y-80160000D01*
X173945907Y-80660000D01*
X174058946Y-81228285D01*
X174380853Y-81710054D01*
X174710026Y-81930000D01*
X174380853Y-82149946D01*
X174058946Y-82631715D01*
X173945907Y-83200000D01*
X174058946Y-83768285D01*
X174380853Y-84250054D01*
X174710026Y-84470000D01*
X174380853Y-84689946D01*
X174058946Y-85171715D01*
X173945907Y-85740000D01*
X174058946Y-86308285D01*
X174380853Y-86790054D01*
X174710026Y-87010000D01*
X174380853Y-87229946D01*
X174058946Y-87711715D01*
X173945907Y-88280000D01*
X174058946Y-88848285D01*
X174380853Y-89330054D01*
X174710026Y-89550000D01*
X174380853Y-89769946D01*
X174058946Y-90251715D01*
X173945907Y-90820000D01*
X174058946Y-91388285D01*
X174380853Y-91870054D01*
X174710026Y-92090000D01*
X174380853Y-92309946D01*
X174058946Y-92791715D01*
X173945907Y-93360000D01*
X174058946Y-93928285D01*
X174380853Y-94410054D01*
X174710026Y-94630000D01*
X174380853Y-94849946D01*
X174058946Y-95331715D01*
X173945907Y-95900000D01*
X174058946Y-96468285D01*
X174380853Y-96950054D01*
X174710026Y-97170000D01*
X174380853Y-97389946D01*
X174058946Y-97871715D01*
X173945907Y-98440000D01*
X174058946Y-99008285D01*
X174380853Y-99490054D01*
X174710026Y-99710000D01*
X174380853Y-99929946D01*
X174058946Y-100411715D01*
X173945907Y-100980000D01*
X174058946Y-101548285D01*
X174380853Y-102030054D01*
X174710026Y-102250000D01*
X174380853Y-102469946D01*
X174058946Y-102951715D01*
X173945907Y-103520000D01*
X174058946Y-104088285D01*
X174380853Y-104570054D01*
X174710026Y-104790000D01*
X174380853Y-105009946D01*
X174058946Y-105491715D01*
X173945907Y-106060000D01*
X174058946Y-106628285D01*
X174380853Y-107110054D01*
X174862622Y-107431961D01*
X175430907Y-107545000D01*
X175489093Y-107545000D01*
X176057378Y-107431961D01*
X176539147Y-107110054D01*
X176730000Y-106824422D01*
X176920853Y-107110054D01*
X177402622Y-107431961D01*
X177970907Y-107545000D01*
X178029093Y-107545000D01*
X178597378Y-107431961D01*
X179079147Y-107110054D01*
X179401054Y-106628285D01*
X179514093Y-106060000D01*
X179401054Y-105491715D01*
X179079147Y-105009946D01*
X178749974Y-104790000D01*
X179079147Y-104570054D01*
X179401054Y-104088285D01*
X179514093Y-103520000D01*
X179401054Y-102951715D01*
X179079147Y-102469946D01*
X178749974Y-102250000D01*
X179079147Y-102030054D01*
X179401054Y-101548285D01*
X179514093Y-100980000D01*
X179401054Y-100411715D01*
X179079147Y-99929946D01*
X178749974Y-99710000D01*
X179079147Y-99490054D01*
X179401054Y-99008285D01*
X179514093Y-98440000D01*
X179401054Y-97871715D01*
X179079147Y-97389946D01*
X178749974Y-97170000D01*
X179079147Y-96950054D01*
X179401054Y-96468285D01*
X179514093Y-95900000D01*
X179401054Y-95331715D01*
X179079147Y-94849946D01*
X178749974Y-94630000D01*
X179079147Y-94410054D01*
X179401054Y-93928285D01*
X179514093Y-93360000D01*
X179401054Y-92791715D01*
X179079147Y-92309946D01*
X178749974Y-92090000D01*
X179079147Y-91870054D01*
X179401054Y-91388285D01*
X179514093Y-90820000D01*
X179401054Y-90251715D01*
X179079147Y-89769946D01*
X178749974Y-89550000D01*
X179079147Y-89330054D01*
X179401054Y-88848285D01*
X179514093Y-88280000D01*
X179401054Y-87711715D01*
X179079147Y-87229946D01*
X178738447Y-87002298D01*
X178881358Y-86935183D01*
X179271645Y-86506924D01*
X179441476Y-86096890D01*
X179320155Y-85867000D01*
X178127000Y-85867000D01*
X178127000Y-85887000D01*
X177873000Y-85887000D01*
X177873000Y-85867000D01*
X177853000Y-85867000D01*
X177853000Y-85613000D01*
X177873000Y-85613000D01*
X177873000Y-85593000D01*
X178127000Y-85593000D01*
X178127000Y-85613000D01*
X179320155Y-85613000D01*
X179441476Y-85383110D01*
X179271645Y-84973076D01*
X178881358Y-84544817D01*
X178738447Y-84477702D01*
X179079147Y-84250054D01*
X179401054Y-83768285D01*
X179514093Y-83200000D01*
X179401054Y-82631715D01*
X179079147Y-82149946D01*
X178749974Y-81930000D01*
X179079147Y-81710054D01*
X179401054Y-81228285D01*
X179514093Y-80660000D01*
X179414637Y-80160000D01*
X197432972Y-80160000D01*
X197613201Y-80234838D01*
X197985167Y-80235162D01*
X198328943Y-80093117D01*
X198592192Y-79830327D01*
X198734838Y-79486799D01*
X198735162Y-79114833D01*
X198593117Y-78771057D01*
X198330327Y-78507808D01*
X197986799Y-78365162D01*
X197614833Y-78364838D01*
X197271057Y-78506883D01*
X197137707Y-78640000D01*
X179410658Y-78640000D01*
X179514093Y-78120000D01*
X179414637Y-77620000D01*
X199740000Y-77620000D01*
X200030839Y-77562148D01*
X200277401Y-77397401D01*
X204839680Y-72835122D01*
X204885167Y-72835162D01*
X205228943Y-72693117D01*
X205492192Y-72430327D01*
X205634838Y-72086799D01*
X205635162Y-71714833D01*
X205493117Y-71371057D01*
X205230327Y-71107808D01*
X204886799Y-70965162D01*
X204514833Y-70964838D01*
X204171057Y-71106883D01*
X203907808Y-71369673D01*
X203765162Y-71713201D01*
X203765121Y-71760077D01*
X199425198Y-76100000D01*
X179410658Y-76100000D01*
X179514093Y-75580000D01*
X179410658Y-75060000D01*
X189200000Y-75060000D01*
X189490839Y-75002148D01*
X189737401Y-74837401D01*
X190939680Y-73635122D01*
X190985167Y-73635162D01*
X191328943Y-73493117D01*
X191592192Y-73230327D01*
X191734838Y-72886799D01*
X191735162Y-72514833D01*
X191593117Y-72171057D01*
X191330327Y-71907808D01*
X191214917Y-71859885D01*
X198139680Y-64935122D01*
X198185167Y-64935162D01*
X198528943Y-64793117D01*
X198792192Y-64530327D01*
X198934838Y-64186799D01*
X198935162Y-63814833D01*
X198793117Y-63471057D01*
X198530327Y-63207808D01*
X198186799Y-63065162D01*
X197814833Y-63064838D01*
X197471057Y-63206883D01*
X197207808Y-63469673D01*
X197065162Y-63813201D01*
X197065121Y-63860077D01*
X189885198Y-71040000D01*
X179406680Y-71040000D01*
X179514093Y-70500000D01*
X179401054Y-69931715D01*
X179079147Y-69449946D01*
X178749974Y-69230000D01*
X179079147Y-69010054D01*
X179401054Y-68528285D01*
X179514093Y-67960000D01*
X179401054Y-67391715D01*
X179079147Y-66909946D01*
X178749974Y-66690000D01*
X179079147Y-66470054D01*
X179401054Y-65988285D01*
X179514093Y-65420000D01*
X179401054Y-64851715D01*
X179079147Y-64369946D01*
X178749974Y-64150000D01*
X179079147Y-63930054D01*
X179401054Y-63448285D01*
X179514093Y-62880000D01*
X179401054Y-62311715D01*
X179079147Y-61829946D01*
X178749974Y-61610000D01*
X179079147Y-61390054D01*
X179401054Y-60908285D01*
X179514093Y-60340000D01*
X179401054Y-59771715D01*
X179079147Y-59289946D01*
X178738447Y-59062298D01*
X178881358Y-58995183D01*
X179271645Y-58566924D01*
X179441476Y-58156890D01*
X179320155Y-57927000D01*
X178127000Y-57927000D01*
X178127000Y-57947000D01*
X177873000Y-57947000D01*
X177873000Y-57927000D01*
X177853000Y-57927000D01*
X177853000Y-57673000D01*
X177873000Y-57673000D01*
X177873000Y-56479181D01*
X178127000Y-56479181D01*
X178127000Y-57673000D01*
X179320155Y-57673000D01*
X179441476Y-57443110D01*
X179271645Y-57033076D01*
X178881358Y-56604817D01*
X178356892Y-56358514D01*
X178127000Y-56479181D01*
X177873000Y-56479181D01*
X177643108Y-56358514D01*
X177118642Y-56604817D01*
X176931192Y-56810504D01*
X176913162Y-56714683D01*
X176774090Y-56498559D01*
X176561890Y-56353569D01*
X176310000Y-56302560D01*
X174610000Y-56302560D01*
X174374683Y-56346838D01*
X174158559Y-56485910D01*
X174013569Y-56698110D01*
X173962560Y-56950000D01*
X173962560Y-58650000D01*
X174006838Y-58885317D01*
X174145910Y-59101441D01*
X174358110Y-59246431D01*
X174425541Y-59260086D01*
X174380853Y-59289946D01*
X174058946Y-59771715D01*
X173945907Y-60340000D01*
X174058946Y-60908285D01*
X174380853Y-61390054D01*
X174710026Y-61610000D01*
X174380853Y-61829946D01*
X174058946Y-62311715D01*
X173945907Y-62880000D01*
X174058946Y-63448285D01*
X174380853Y-63930054D01*
X174710026Y-64150000D01*
X174380853Y-64369946D01*
X174058946Y-64851715D01*
X173945907Y-65420000D01*
X174058946Y-65988285D01*
X174380853Y-66470054D01*
X174710026Y-66690000D01*
X174380853Y-66909946D01*
X174058946Y-67391715D01*
X173945907Y-67960000D01*
X174058946Y-68528285D01*
X174380853Y-69010054D01*
X174710026Y-69230000D01*
X174380853Y-69449946D01*
X174058946Y-69931715D01*
X173945907Y-70500000D01*
X174053320Y-71040000D01*
X150800000Y-71040000D01*
X150509161Y-71097852D01*
X150262599Y-71262599D01*
X149185198Y-72340000D01*
X149060581Y-72340000D01*
X149164093Y-71819610D01*
X149051054Y-71251325D01*
X148729147Y-70769556D01*
X148399974Y-70549610D01*
X148729147Y-70329664D01*
X149051054Y-69847895D01*
X149164093Y-69279610D01*
X149051054Y-68711325D01*
X148729147Y-68229556D01*
X148399974Y-68009610D01*
X148729147Y-67789664D01*
X149051054Y-67307895D01*
X149164093Y-66739610D01*
X149051054Y-66171325D01*
X148729147Y-65689556D01*
X148399974Y-65469610D01*
X148729147Y-65249664D01*
X149051054Y-64767895D01*
X149164093Y-64199610D01*
X149051054Y-63631325D01*
X148729147Y-63149556D01*
X148399974Y-62929610D01*
X148729147Y-62709664D01*
X149051054Y-62227895D01*
X149164093Y-61659610D01*
X149051054Y-61091325D01*
X148729147Y-60609556D01*
X148399974Y-60389610D01*
X148729147Y-60169664D01*
X149051054Y-59687895D01*
X149164093Y-59119610D01*
X149051054Y-58551325D01*
X148729147Y-58069556D01*
X148399974Y-57849610D01*
X148729147Y-57629664D01*
X149051054Y-57147895D01*
X149164093Y-56579610D01*
X149051054Y-56011325D01*
X148729147Y-55529556D01*
X148399974Y-55309610D01*
X148729147Y-55089664D01*
X149051054Y-54607895D01*
X149164093Y-54039610D01*
X149051054Y-53471325D01*
X148729147Y-52989556D01*
X148685223Y-52960207D01*
X148859698Y-52887937D01*
X149038327Y-52709309D01*
X149135000Y-52475920D01*
X149135000Y-51785360D01*
X148976250Y-51626610D01*
X147777000Y-51626610D01*
X147777000Y-51646610D01*
X147523000Y-51646610D01*
X147523000Y-51626610D01*
X146323750Y-51626610D01*
X146165000Y-51785360D01*
X146165000Y-52475920D01*
X146261673Y-52709309D01*
X146440302Y-52887937D01*
X146614777Y-52960207D01*
X146570853Y-52989556D01*
X146248946Y-53471325D01*
X146135907Y-54039610D01*
X146248946Y-54607895D01*
X146570853Y-55089664D01*
X146900026Y-55309610D01*
X146570853Y-55529556D01*
X146248946Y-56011325D01*
X146135907Y-56579610D01*
X146248946Y-57147895D01*
X146570853Y-57629664D01*
X146900026Y-57849610D01*
X146570853Y-58069556D01*
X146248946Y-58551325D01*
X146135907Y-59119610D01*
X146248946Y-59687895D01*
X146570853Y-60169664D01*
X146900026Y-60389610D01*
X146570853Y-60609556D01*
X146248946Y-61091325D01*
X146135907Y-61659610D01*
X146248946Y-62227895D01*
X146570853Y-62709664D01*
X146900026Y-62929610D01*
X146570853Y-63149556D01*
X146248946Y-63631325D01*
X146135907Y-64199610D01*
X146248946Y-64767895D01*
X146570853Y-65249664D01*
X146900026Y-65469610D01*
X146570853Y-65689556D01*
X146248946Y-66171325D01*
X146135907Y-66739610D01*
X146248946Y-67307895D01*
X146570853Y-67789664D01*
X146900026Y-68009610D01*
X146570853Y-68229556D01*
X146248946Y-68711325D01*
X146135907Y-69279610D01*
X146248946Y-69847895D01*
X146570853Y-70329664D01*
X146900026Y-70549610D01*
X146570853Y-70769556D01*
X146248946Y-71251325D01*
X146135907Y-71819610D01*
X146239419Y-72340000D01*
X134005192Y-72340000D01*
X133851210Y-72186018D01*
X133924093Y-71819610D01*
X133811054Y-71251325D01*
X133489147Y-70769556D01*
X133159974Y-70549610D01*
X133489147Y-70329664D01*
X133811054Y-69847895D01*
X133924093Y-69279610D01*
X133811054Y-68711325D01*
X133489147Y-68229556D01*
X133159974Y-68009610D01*
X133489147Y-67789664D01*
X133811054Y-67307895D01*
X133924093Y-66739610D01*
X133811054Y-66171325D01*
X133489147Y-65689556D01*
X133159974Y-65469610D01*
X133489147Y-65249664D01*
X133811054Y-64767895D01*
X133924093Y-64199610D01*
X133811054Y-63631325D01*
X133489147Y-63149556D01*
X133159974Y-62929610D01*
X133489147Y-62709664D01*
X133811054Y-62227895D01*
X133924093Y-61659610D01*
X133811054Y-61091325D01*
X133489147Y-60609556D01*
X133159974Y-60389610D01*
X133489147Y-60169664D01*
X133811054Y-59687895D01*
X133924093Y-59119610D01*
X133811054Y-58551325D01*
X133489147Y-58069556D01*
X133159974Y-57849610D01*
X133489147Y-57629664D01*
X133811054Y-57147895D01*
X133924093Y-56579610D01*
X133811054Y-56011325D01*
X133489147Y-55529556D01*
X133148447Y-55301908D01*
X133291358Y-55234793D01*
X133681645Y-54806534D01*
X133851476Y-54396500D01*
X133730155Y-54166610D01*
X132537000Y-54166610D01*
X132537000Y-54186610D01*
X132283000Y-54186610D01*
X132283000Y-54166610D01*
X132263000Y-54166610D01*
X132263000Y-53912610D01*
X132283000Y-53912610D01*
X132283000Y-53892610D01*
X132537000Y-53892610D01*
X132537000Y-53912610D01*
X133730155Y-53912610D01*
X133851476Y-53682720D01*
X133681645Y-53272686D01*
X133405499Y-52969673D01*
X133495317Y-52952772D01*
X133711441Y-52813700D01*
X133856431Y-52601500D01*
X133907440Y-52349610D01*
X133907440Y-50710000D01*
X146165000Y-50710000D01*
X146165000Y-51213860D01*
X146323750Y-51372610D01*
X147523000Y-51372610D01*
X147523000Y-51352610D01*
X147777000Y-51352610D01*
X147777000Y-51372610D01*
X148976250Y-51372610D01*
X149135000Y-51213860D01*
X149135000Y-50710000D01*
X193377675Y-50710000D01*
X193298559Y-50760910D01*
X193153569Y-50973110D01*
X193102560Y-51225000D01*
X193102560Y-57575000D01*
X193146838Y-57810317D01*
X193285910Y-58026441D01*
X193498110Y-58171431D01*
X193750000Y-58222440D01*
X198830000Y-58222440D01*
X199065317Y-58178162D01*
X199281441Y-58039090D01*
X199426431Y-57826890D01*
X199477440Y-57575000D01*
X199477440Y-55285000D01*
X204012560Y-55285000D01*
X204012560Y-57575000D01*
X204056838Y-57810317D01*
X204195910Y-58026441D01*
X204408110Y-58171431D01*
X204660000Y-58222440D01*
X209740000Y-58222440D01*
X209975317Y-58178162D01*
X210191441Y-58039090D01*
X210336431Y-57826890D01*
X210387440Y-57575000D01*
X210387440Y-51225000D01*
X210343162Y-50989683D01*
X210204090Y-50773559D01*
X210185400Y-50760788D01*
X213549805Y-51430010D01*
X216559187Y-53440814D01*
X218569989Y-56450193D01*
X219290000Y-60069931D01*
X219290000Y-103930069D01*
X218569989Y-107549807D01*
X216559187Y-110559186D01*
X213549805Y-112569990D01*
X210086083Y-113258967D01*
X210099699Y-113253327D01*
X210278327Y-113074698D01*
X210375000Y-112841309D01*
X210375000Y-109825750D01*
X210216250Y-109667000D01*
X207327000Y-109667000D01*
X207327000Y-109687000D01*
X207073000Y-109687000D01*
X207073000Y-109667000D01*
X204183750Y-109667000D01*
X204025000Y-109825750D01*
X204025000Y-112841309D01*
X204121673Y-113074698D01*
X204300301Y-113253327D01*
X204388837Y-113290000D01*
X199109082Y-113290000D01*
X199281441Y-113179090D01*
X199426431Y-112966890D01*
X199477440Y-112715000D01*
X199477440Y-106365000D01*
X199453674Y-106238691D01*
X204025000Y-106238691D01*
X204025000Y-109254250D01*
X204183750Y-109413000D01*
X207073000Y-109413000D01*
X207073000Y-105888750D01*
X207327000Y-105888750D01*
X207327000Y-109413000D01*
X210216250Y-109413000D01*
X210375000Y-109254250D01*
X210375000Y-107118130D01*
X210441588Y-107279286D01*
X210898309Y-107736805D01*
X211495349Y-107984718D01*
X212141814Y-107985282D01*
X212739286Y-107738412D01*
X213196805Y-107281691D01*
X213444718Y-106684651D01*
X213445282Y-106038186D01*
X213198412Y-105440714D01*
X212741691Y-104983195D01*
X212144651Y-104735282D01*
X211498186Y-104734718D01*
X210900714Y-104981588D01*
X210443195Y-105438309D01*
X210228464Y-105955439D01*
X210099699Y-105826673D01*
X209866310Y-105730000D01*
X207485750Y-105730000D01*
X207327000Y-105888750D01*
X207073000Y-105888750D01*
X206914250Y-105730000D01*
X204533690Y-105730000D01*
X204300301Y-105826673D01*
X204121673Y-106005302D01*
X204025000Y-106238691D01*
X199453674Y-106238691D01*
X199433162Y-106129683D01*
X199294090Y-105913559D01*
X199081890Y-105768569D01*
X198830000Y-105717560D01*
X193750000Y-105717560D01*
X193514683Y-105761838D01*
X193298559Y-105900910D01*
X193153569Y-106113110D01*
X193102560Y-106365000D01*
X193102560Y-108684327D01*
X192911325Y-108722367D01*
X192624210Y-108914210D01*
X192624208Y-108914213D01*
X189263420Y-112275000D01*
X114585000Y-112275000D01*
X114585000Y-111835750D01*
X114426250Y-111677000D01*
X112677000Y-111677000D01*
X112677000Y-111697000D01*
X112423000Y-111697000D01*
X112423000Y-111677000D01*
X110673750Y-111677000D01*
X110515000Y-111835750D01*
X110515000Y-112275000D01*
X98826579Y-112275000D01*
X96875271Y-110323691D01*
X110515000Y-110323691D01*
X110515000Y-111264250D01*
X110673750Y-111423000D01*
X112423000Y-111423000D01*
X112423000Y-109973750D01*
X112677000Y-109973750D01*
X112677000Y-111423000D01*
X114426250Y-111423000D01*
X114585000Y-111264250D01*
X114585000Y-110744089D01*
X114764743Y-110744089D01*
X114990344Y-111290086D01*
X115407717Y-111708188D01*
X115953319Y-111934742D01*
X116544089Y-111935257D01*
X117090086Y-111709656D01*
X117508188Y-111292283D01*
X117734742Y-110746681D01*
X117735257Y-110155911D01*
X117509656Y-109609914D01*
X117092283Y-109191812D01*
X116546681Y-108965258D01*
X115955911Y-108964743D01*
X115409914Y-109190344D01*
X114991812Y-109607717D01*
X114765258Y-110153319D01*
X114764743Y-110744089D01*
X114585000Y-110744089D01*
X114585000Y-110323691D01*
X114488327Y-110090302D01*
X114309699Y-109911673D01*
X114076310Y-109815000D01*
X112835750Y-109815000D01*
X112677000Y-109973750D01*
X112423000Y-109973750D01*
X112264250Y-109815000D01*
X111023690Y-109815000D01*
X110790301Y-109911673D01*
X110611673Y-110090302D01*
X110515000Y-110323691D01*
X96875271Y-110323691D01*
X73575000Y-87023420D01*
X73575000Y-58122440D01*
X75230000Y-58122440D01*
X75465317Y-58078162D01*
X75681441Y-57939090D01*
X75826431Y-57726890D01*
X75877440Y-57475000D01*
X75877440Y-51125000D01*
X75833162Y-50889683D01*
X75717539Y-50710000D01*
X80575017Y-50710000D01*
X80463569Y-50873110D01*
G36*
X69553569Y-50873110D02*
X69502560Y-51125000D01*
X69502560Y-57475000D01*
X69546838Y-57710317D01*
X69685910Y-57926441D01*
X69898110Y-58071431D01*
X70150000Y-58122440D01*
X71805000Y-58122440D01*
X71805000Y-87389995D01*
X71804999Y-87390000D01*
X71861190Y-87672484D01*
X71872367Y-87728675D01*
X72064210Y-88015790D01*
X88782442Y-104734022D01*
X88544651Y-104635282D01*
X87898186Y-104634718D01*
X87300714Y-104881588D01*
X86843195Y-105338309D01*
X86629474Y-105853006D01*
X86604090Y-105813559D01*
X86391890Y-105668569D01*
X86140000Y-105617560D01*
X81060000Y-105617560D01*
X80824683Y-105661838D01*
X80608559Y-105800910D01*
X80463569Y-106013110D01*
X80412560Y-106265000D01*
X80412560Y-108555000D01*
X75877440Y-108555000D01*
X75877440Y-106265000D01*
X75833162Y-106029683D01*
X75694090Y-105813559D01*
X75481890Y-105668569D01*
X75230000Y-105617560D01*
X70150000Y-105617560D01*
X69914683Y-105661838D01*
X69698559Y-105800910D01*
X69553569Y-106013110D01*
X69502560Y-106265000D01*
X69502560Y-112615000D01*
X69546838Y-112850317D01*
X69685910Y-113066441D01*
X69898110Y-113211431D01*
X70150000Y-113262440D01*
X75230000Y-113262440D01*
X75465317Y-113218162D01*
X75681441Y-113079090D01*
X75826431Y-112866890D01*
X75877440Y-112615000D01*
X75877440Y-110325000D01*
X80412560Y-110325000D01*
X80412560Y-112615000D01*
X80456838Y-112850317D01*
X80595910Y-113066441D01*
X80808110Y-113211431D01*
X81060000Y-113262440D01*
X86140000Y-113262440D01*
X86375317Y-113218162D01*
X86591441Y-113079090D01*
X86736431Y-112866890D01*
X86787440Y-112615000D01*
X86787440Y-107048238D01*
X86841588Y-107179286D01*
X87298309Y-107636805D01*
X87895349Y-107884718D01*
X88541814Y-107885282D01*
X89139286Y-107638412D01*
X89596805Y-107181691D01*
X89844718Y-106584651D01*
X89845282Y-105938186D01*
X89745771Y-105697350D01*
X97338421Y-113290000D01*
X70069931Y-113290000D01*
X66450193Y-112569989D01*
X63440814Y-110559187D01*
X61430010Y-107549805D01*
X60710000Y-103930069D01*
X60710000Y-60069931D01*
X61430010Y-56450195D01*
X63440814Y-53440813D01*
X66450193Y-51430011D01*
X69601329Y-50803211D01*
X69553569Y-50873110D01*
X69553569Y-50873110D01*
G37*
X69553569Y-50873110D02*
X69502560Y-51125000D01*
X69502560Y-57475000D01*
X69546838Y-57710317D01*
X69685910Y-57926441D01*
X69898110Y-58071431D01*
X70150000Y-58122440D01*
X71805000Y-58122440D01*
X71805000Y-87389995D01*
X71804999Y-87390000D01*
X71861190Y-87672484D01*
X71872367Y-87728675D01*
X72064210Y-88015790D01*
X88782442Y-104734022D01*
X88544651Y-104635282D01*
X87898186Y-104634718D01*
X87300714Y-104881588D01*
X86843195Y-105338309D01*
X86629474Y-105853006D01*
X86604090Y-105813559D01*
X86391890Y-105668569D01*
X86140000Y-105617560D01*
X81060000Y-105617560D01*
X80824683Y-105661838D01*
X80608559Y-105800910D01*
X80463569Y-106013110D01*
X80412560Y-106265000D01*
X80412560Y-108555000D01*
X75877440Y-108555000D01*
X75877440Y-106265000D01*
X75833162Y-106029683D01*
X75694090Y-105813559D01*
X75481890Y-105668569D01*
X75230000Y-105617560D01*
X70150000Y-105617560D01*
X69914683Y-105661838D01*
X69698559Y-105800910D01*
X69553569Y-106013110D01*
X69502560Y-106265000D01*
X69502560Y-112615000D01*
X69546838Y-112850317D01*
X69685910Y-113066441D01*
X69898110Y-113211431D01*
X70150000Y-113262440D01*
X75230000Y-113262440D01*
X75465317Y-113218162D01*
X75681441Y-113079090D01*
X75826431Y-112866890D01*
X75877440Y-112615000D01*
X75877440Y-110325000D01*
X80412560Y-110325000D01*
X80412560Y-112615000D01*
X80456838Y-112850317D01*
X80595910Y-113066441D01*
X80808110Y-113211431D01*
X81060000Y-113262440D01*
X86140000Y-113262440D01*
X86375317Y-113218162D01*
X86591441Y-113079090D01*
X86736431Y-112866890D01*
X86787440Y-112615000D01*
X86787440Y-107048238D01*
X86841588Y-107179286D01*
X87298309Y-107636805D01*
X87895349Y-107884718D01*
X88541814Y-107885282D01*
X89139286Y-107638412D01*
X89596805Y-107181691D01*
X89844718Y-106584651D01*
X89845282Y-105938186D01*
X89745771Y-105697350D01*
X97338421Y-113290000D01*
X70069931Y-113290000D01*
X66450193Y-112569989D01*
X63440814Y-110559187D01*
X61430010Y-107549805D01*
X60710000Y-103930069D01*
X60710000Y-60069931D01*
X61430010Y-56450195D01*
X63440814Y-53440813D01*
X66450193Y-51430011D01*
X69601329Y-50803211D01*
X69553569Y-50873110D01*
M02*
