G04 #@! TF.FileFunction,Soldermask,Top*
%FSLAX46Y46*%
G04 Gerber Fmt 4.6, Leading zero omitted, Abs format (unit mm)*
G04 Created by KiCad (PCBNEW 4.0.7-e0-6372~58~ubuntu16.10.1) date Tue Sep 25 01:01:21 2018*
%MOMM*%
%LPD*%
G01*
G04 APERTURE LIST*
%ADD10C,0.100000*%
%ADD11C,0.800000*%
%ADD12R,2.100000X2.100000*%
%ADD13O,2.100000X2.100000*%
%ADD14R,1.700000X1.950000*%
%ADD15C,2.100000*%
%ADD16C,2.380000*%
%ADD17C,1.300000*%
%ADD18C,4.700000*%
G04 APERTURE END LIST*
D10*
D11*
X74821429Y-93764286D02*
X73488096Y-93764286D01*
X73488096Y-95859524D02*
X73488096Y-91859524D01*
X75392858Y-91859524D01*
X76916667Y-95859524D02*
X76916667Y-91859524D01*
X78440476Y-91859524D01*
X78821429Y-92050000D01*
X79011905Y-92240476D01*
X79202381Y-92621429D01*
X79202381Y-93192857D01*
X79011905Y-93573810D01*
X78821429Y-93764286D01*
X78440476Y-93954762D01*
X76916667Y-93954762D01*
X83011905Y-92050000D02*
X82630953Y-91859524D01*
X82059524Y-91859524D01*
X81488096Y-92050000D01*
X81107143Y-92430952D01*
X80916667Y-92811905D01*
X80726191Y-93573810D01*
X80726191Y-94145238D01*
X80916667Y-94907143D01*
X81107143Y-95288095D01*
X81488096Y-95669048D01*
X82059524Y-95859524D01*
X82440476Y-95859524D01*
X83011905Y-95669048D01*
X83202381Y-95478571D01*
X83202381Y-94145238D01*
X82440476Y-94145238D01*
X87202381Y-95478571D02*
X87011905Y-95669048D01*
X86440476Y-95859524D01*
X86059524Y-95859524D01*
X85488096Y-95669048D01*
X85107143Y-95288095D01*
X84916667Y-94907143D01*
X84726191Y-94145238D01*
X84726191Y-93573810D01*
X84916667Y-92811905D01*
X85107143Y-92430952D01*
X85488096Y-92050000D01*
X86059524Y-91859524D01*
X86440476Y-91859524D01*
X87011905Y-92050000D01*
X87202381Y-92240476D01*
D12*
X175460000Y-57800000D03*
D13*
X178000000Y-57800000D03*
X175460000Y-60340000D03*
X178000000Y-60340000D03*
X175460000Y-62880000D03*
X178000000Y-62880000D03*
X175460000Y-65420000D03*
X178000000Y-65420000D03*
X175460000Y-67960000D03*
X178000000Y-67960000D03*
X175460000Y-70500000D03*
X178000000Y-70500000D03*
X175460000Y-73040000D03*
X178000000Y-73040000D03*
X175460000Y-75580000D03*
X178000000Y-75580000D03*
X175460000Y-78120000D03*
X178000000Y-78120000D03*
X175460000Y-80660000D03*
X178000000Y-80660000D03*
X175460000Y-83200000D03*
X178000000Y-83200000D03*
X175460000Y-85740000D03*
X178000000Y-85740000D03*
X175460000Y-88280000D03*
X178000000Y-88280000D03*
X175460000Y-90820000D03*
X178000000Y-90820000D03*
X175460000Y-93360000D03*
X178000000Y-93360000D03*
X175460000Y-95900000D03*
X178000000Y-95900000D03*
X175460000Y-98440000D03*
X178000000Y-98440000D03*
X175460000Y-100980000D03*
X178000000Y-100980000D03*
X175460000Y-103520000D03*
X178000000Y-103520000D03*
X175460000Y-106060000D03*
X178000000Y-106060000D03*
D12*
X147650000Y-51499610D03*
D13*
X147650000Y-54039610D03*
X147650000Y-56579610D03*
X147650000Y-59119610D03*
X147650000Y-61659610D03*
X147650000Y-64199610D03*
X147650000Y-66739610D03*
X147650000Y-69279610D03*
X147650000Y-71819610D03*
X147650000Y-74359610D03*
X147650000Y-76899610D03*
X147650000Y-79439610D03*
X147650000Y-81979610D03*
X147650000Y-84519610D03*
D12*
X132410000Y-51499610D03*
D13*
X132410000Y-54039610D03*
X132410000Y-56579610D03*
X132410000Y-59119610D03*
X132410000Y-61659610D03*
X132410000Y-64199610D03*
X132410000Y-66739610D03*
X132410000Y-69279610D03*
X132410000Y-71819610D03*
X132410000Y-74359610D03*
X132410000Y-76899610D03*
X132410000Y-79439610D03*
X132410000Y-81979610D03*
X132410000Y-84519610D03*
D14*
X209250000Y-67425000D03*
X209250000Y-75375000D03*
X204750000Y-67425000D03*
X204750000Y-75375000D03*
X202250000Y-73800000D03*
X202250000Y-81750000D03*
X197750000Y-73800000D03*
X197750000Y-81750000D03*
X77750000Y-81750000D03*
X77750000Y-73800000D03*
X82250000Y-81750000D03*
X82250000Y-73800000D03*
X70750000Y-75375000D03*
X70750000Y-67425000D03*
X75250000Y-75375000D03*
X75250000Y-67425000D03*
X84750000Y-75375000D03*
X84750000Y-67425000D03*
X89250000Y-75375000D03*
X89250000Y-67425000D03*
X77750000Y-68975000D03*
X77750000Y-61025000D03*
X82250000Y-68975000D03*
X82250000Y-61025000D03*
X202250000Y-61025000D03*
X202250000Y-68975000D03*
X197750000Y-61025000D03*
X197750000Y-68975000D03*
X195250000Y-67400000D03*
X195250000Y-75350000D03*
X190750000Y-67400000D03*
X190750000Y-75350000D03*
D15*
X116250000Y-110450000D03*
X116250000Y-103450000D03*
D12*
X118000000Y-53000000D03*
D13*
X115460000Y-53000000D03*
D16*
X211820000Y-106360000D03*
X88220000Y-106260000D03*
D17*
X105900000Y-51800000D03*
X108900000Y-51800000D03*
D18*
X185000000Y-109000000D03*
M02*
