G04 #@! TF.FileFunction,Legend,Top*
%FSLAX46Y46*%
G04 Gerber Fmt 4.6, Leading zero omitted, Abs format (unit mm)*
G04 Created by KiCad (PCBNEW 4.0.7-e0-6372~58~ubuntu16.10.1) date Tue Sep 25 01:01:21 2018*
%MOMM*%
%LPD*%
G01*
G04 APERTURE LIST*
%ADD10C,0.100000*%
%ADD11C,0.150000*%
%ADD12C,0.260000*%
%ADD13C,0.375000*%
%ADD14C,0.200000*%
%ADD15C,0.120000*%
G04 APERTURE END LIST*
D10*
D11*
X69986037Y-52000012D02*
X209986037Y-52000012D01*
X70000000Y-112000000D02*
X210000000Y-112000000D01*
X62000000Y-60000000D02*
X62000000Y-104000000D01*
X218000000Y-104000000D02*
X218000000Y-60000000D01*
X218000000Y-60000000D02*
G75*
G03X210000000Y-52000000I-8000000J0D01*
G01*
X210000000Y-112000000D02*
G75*
G03X218000000Y-104000000I0J8000000D01*
G01*
X62000000Y-104000000D02*
G75*
G03X70000000Y-112000000I8000000J0D01*
G01*
X69986037Y-52000012D02*
G75*
G03X62000000Y-60000000I13963J-7999988D01*
G01*
X70000000Y-51000000D02*
X210000000Y-51000000D01*
X219000000Y-104000000D02*
X219000000Y-60000000D01*
X210000000Y-113000000D02*
G75*
G03X219000000Y-104000000I0J9000000D01*
G01*
X70000000Y-113000000D02*
X210000000Y-113000000D01*
X61000000Y-104000000D02*
G75*
G03X70000000Y-113000000I9000000J0D01*
G01*
X61000000Y-60000000D02*
X61000000Y-104000000D01*
X69984292Y-51000014D02*
G75*
G03X61000000Y-60000000I15708J-8999986D01*
G01*
D12*
X71535716Y-98434286D02*
X71135716Y-98434286D01*
X71135716Y-99062857D02*
X71135716Y-97862857D01*
X71707145Y-97862857D01*
X72164287Y-99062857D02*
X72164287Y-98262857D01*
X72164287Y-97862857D02*
X72107144Y-97920000D01*
X72164287Y-97977143D01*
X72221430Y-97920000D01*
X72164287Y-97862857D01*
X72164287Y-97977143D01*
X73192859Y-99005714D02*
X73078573Y-99062857D01*
X72850002Y-99062857D01*
X72735716Y-99005714D01*
X72678573Y-98891429D01*
X72678573Y-98434286D01*
X72735716Y-98320000D01*
X72850002Y-98262857D01*
X73078573Y-98262857D01*
X73192859Y-98320000D01*
X73250002Y-98434286D01*
X73250002Y-98548571D01*
X72678573Y-98662857D01*
X73935716Y-99062857D02*
X73821430Y-99005714D01*
X73764287Y-98891429D01*
X73764287Y-97862857D01*
X74907144Y-99062857D02*
X74907144Y-97862857D01*
X74907144Y-99005714D02*
X74792858Y-99062857D01*
X74564287Y-99062857D01*
X74450001Y-99005714D01*
X74392858Y-98948571D01*
X74335715Y-98834286D01*
X74335715Y-98491429D01*
X74392858Y-98377143D01*
X74450001Y-98320000D01*
X74564287Y-98262857D01*
X74792858Y-98262857D01*
X74907144Y-98320000D01*
X75478572Y-98605714D02*
X76392858Y-98605714D01*
X76964286Y-99062857D02*
X76964286Y-97862857D01*
X77421429Y-97862857D01*
X77535715Y-97920000D01*
X77592858Y-97977143D01*
X77650001Y-98091429D01*
X77650001Y-98262857D01*
X77592858Y-98377143D01*
X77535715Y-98434286D01*
X77421429Y-98491429D01*
X76964286Y-98491429D01*
X78164286Y-99062857D02*
X78164286Y-98262857D01*
X78164286Y-98491429D02*
X78221429Y-98377143D01*
X78278572Y-98320000D01*
X78392858Y-98262857D01*
X78507143Y-98262857D01*
X79078572Y-99062857D02*
X78964286Y-99005714D01*
X78907143Y-98948571D01*
X78850000Y-98834286D01*
X78850000Y-98491429D01*
X78907143Y-98377143D01*
X78964286Y-98320000D01*
X79078572Y-98262857D01*
X79250000Y-98262857D01*
X79364286Y-98320000D01*
X79421429Y-98377143D01*
X79478572Y-98491429D01*
X79478572Y-98834286D01*
X79421429Y-98948571D01*
X79364286Y-99005714D01*
X79250000Y-99062857D01*
X79078572Y-99062857D01*
X80507143Y-98262857D02*
X80507143Y-99234286D01*
X80450000Y-99348571D01*
X80392857Y-99405714D01*
X80278572Y-99462857D01*
X80107143Y-99462857D01*
X79992857Y-99405714D01*
X80507143Y-99005714D02*
X80392857Y-99062857D01*
X80164286Y-99062857D01*
X80050000Y-99005714D01*
X79992857Y-98948571D01*
X79935714Y-98834286D01*
X79935714Y-98491429D01*
X79992857Y-98377143D01*
X80050000Y-98320000D01*
X80164286Y-98262857D01*
X80392857Y-98262857D01*
X80507143Y-98320000D01*
X81078571Y-99062857D02*
X81078571Y-98262857D01*
X81078571Y-98491429D02*
X81135714Y-98377143D01*
X81192857Y-98320000D01*
X81307143Y-98262857D01*
X81421428Y-98262857D01*
X82335714Y-99062857D02*
X82335714Y-98434286D01*
X82278571Y-98320000D01*
X82164285Y-98262857D01*
X81935714Y-98262857D01*
X81821428Y-98320000D01*
X82335714Y-99005714D02*
X82221428Y-99062857D01*
X81935714Y-99062857D01*
X81821428Y-99005714D01*
X81764285Y-98891429D01*
X81764285Y-98777143D01*
X81821428Y-98662857D01*
X81935714Y-98605714D01*
X82221428Y-98605714D01*
X82335714Y-98548571D01*
X82907142Y-99062857D02*
X82907142Y-98262857D01*
X82907142Y-98377143D02*
X82964285Y-98320000D01*
X83078571Y-98262857D01*
X83249999Y-98262857D01*
X83364285Y-98320000D01*
X83421428Y-98434286D01*
X83421428Y-99062857D01*
X83421428Y-98434286D02*
X83478571Y-98320000D01*
X83592857Y-98262857D01*
X83764285Y-98262857D01*
X83878571Y-98320000D01*
X83935714Y-98434286D01*
X83935714Y-99062857D01*
X84507142Y-99062857D02*
X84507142Y-98262857D01*
X84507142Y-98377143D02*
X84564285Y-98320000D01*
X84678571Y-98262857D01*
X84849999Y-98262857D01*
X84964285Y-98320000D01*
X85021428Y-98434286D01*
X85021428Y-99062857D01*
X85021428Y-98434286D02*
X85078571Y-98320000D01*
X85192857Y-98262857D01*
X85364285Y-98262857D01*
X85478571Y-98320000D01*
X85535714Y-98434286D01*
X85535714Y-99062857D01*
X86621428Y-99062857D02*
X86621428Y-98434286D01*
X86564285Y-98320000D01*
X86449999Y-98262857D01*
X86221428Y-98262857D01*
X86107142Y-98320000D01*
X86621428Y-99005714D02*
X86507142Y-99062857D01*
X86221428Y-99062857D01*
X86107142Y-99005714D01*
X86049999Y-98891429D01*
X86049999Y-98777143D01*
X86107142Y-98662857D01*
X86221428Y-98605714D01*
X86507142Y-98605714D01*
X86621428Y-98548571D01*
X87192856Y-99062857D02*
X87192856Y-97862857D01*
X87192856Y-98320000D02*
X87307142Y-98262857D01*
X87535713Y-98262857D01*
X87649999Y-98320000D01*
X87707142Y-98377143D01*
X87764285Y-98491429D01*
X87764285Y-98834286D01*
X87707142Y-98948571D01*
X87649999Y-99005714D01*
X87535713Y-99062857D01*
X87307142Y-99062857D01*
X87192856Y-99005714D01*
X88449999Y-99062857D02*
X88335713Y-99005714D01*
X88278570Y-98891429D01*
X88278570Y-97862857D01*
X89364284Y-99005714D02*
X89249998Y-99062857D01*
X89021427Y-99062857D01*
X88907141Y-99005714D01*
X88849998Y-98891429D01*
X88849998Y-98434286D01*
X88907141Y-98320000D01*
X89021427Y-98262857D01*
X89249998Y-98262857D01*
X89364284Y-98320000D01*
X89421427Y-98434286D01*
X89421427Y-98548571D01*
X88849998Y-98662857D01*
X74707144Y-99980000D02*
X74592858Y-99922857D01*
X74421429Y-99922857D01*
X74250001Y-99980000D01*
X74135715Y-100094286D01*
X74078572Y-100208571D01*
X74021429Y-100437143D01*
X74021429Y-100608571D01*
X74078572Y-100837143D01*
X74135715Y-100951429D01*
X74250001Y-101065714D01*
X74421429Y-101122857D01*
X74535715Y-101122857D01*
X74707144Y-101065714D01*
X74764287Y-101008571D01*
X74764287Y-100608571D01*
X74535715Y-100608571D01*
X75792858Y-101122857D02*
X75792858Y-100494286D01*
X75735715Y-100380000D01*
X75621429Y-100322857D01*
X75392858Y-100322857D01*
X75278572Y-100380000D01*
X75792858Y-101065714D02*
X75678572Y-101122857D01*
X75392858Y-101122857D01*
X75278572Y-101065714D01*
X75221429Y-100951429D01*
X75221429Y-100837143D01*
X75278572Y-100722857D01*
X75392858Y-100665714D01*
X75678572Y-100665714D01*
X75792858Y-100608571D01*
X76364286Y-101122857D02*
X76364286Y-100322857D01*
X76364286Y-100437143D02*
X76421429Y-100380000D01*
X76535715Y-100322857D01*
X76707143Y-100322857D01*
X76821429Y-100380000D01*
X76878572Y-100494286D01*
X76878572Y-101122857D01*
X76878572Y-100494286D02*
X76935715Y-100380000D01*
X77050001Y-100322857D01*
X77221429Y-100322857D01*
X77335715Y-100380000D01*
X77392858Y-100494286D01*
X77392858Y-101122857D01*
X78421429Y-101065714D02*
X78307143Y-101122857D01*
X78078572Y-101122857D01*
X77964286Y-101065714D01*
X77907143Y-100951429D01*
X77907143Y-100494286D01*
X77964286Y-100380000D01*
X78078572Y-100322857D01*
X78307143Y-100322857D01*
X78421429Y-100380000D01*
X78478572Y-100494286D01*
X78478572Y-100608571D01*
X77907143Y-100722857D01*
X80592858Y-101008571D02*
X80535715Y-101065714D01*
X80364286Y-101122857D01*
X80250000Y-101122857D01*
X80078572Y-101065714D01*
X79964286Y-100951429D01*
X79907143Y-100837143D01*
X79850000Y-100608571D01*
X79850000Y-100437143D01*
X79907143Y-100208571D01*
X79964286Y-100094286D01*
X80078572Y-99980000D01*
X80250000Y-99922857D01*
X80364286Y-99922857D01*
X80535715Y-99980000D01*
X80592858Y-100037143D01*
X81278572Y-101122857D02*
X81164286Y-101065714D01*
X81107143Y-101008571D01*
X81050000Y-100894286D01*
X81050000Y-100551429D01*
X81107143Y-100437143D01*
X81164286Y-100380000D01*
X81278572Y-100322857D01*
X81450000Y-100322857D01*
X81564286Y-100380000D01*
X81621429Y-100437143D01*
X81678572Y-100551429D01*
X81678572Y-100894286D01*
X81621429Y-101008571D01*
X81564286Y-101065714D01*
X81450000Y-101122857D01*
X81278572Y-101122857D01*
X82192857Y-100322857D02*
X82192857Y-101122857D01*
X82192857Y-100437143D02*
X82250000Y-100380000D01*
X82364286Y-100322857D01*
X82535714Y-100322857D01*
X82650000Y-100380000D01*
X82707143Y-100494286D01*
X82707143Y-101122857D01*
X83221428Y-101065714D02*
X83335714Y-101122857D01*
X83564286Y-101122857D01*
X83678571Y-101065714D01*
X83735714Y-100951429D01*
X83735714Y-100894286D01*
X83678571Y-100780000D01*
X83564286Y-100722857D01*
X83392857Y-100722857D01*
X83278571Y-100665714D01*
X83221428Y-100551429D01*
X83221428Y-100494286D01*
X83278571Y-100380000D01*
X83392857Y-100322857D01*
X83564286Y-100322857D01*
X83678571Y-100380000D01*
X84421429Y-101122857D02*
X84307143Y-101065714D01*
X84250000Y-101008571D01*
X84192857Y-100894286D01*
X84192857Y-100551429D01*
X84250000Y-100437143D01*
X84307143Y-100380000D01*
X84421429Y-100322857D01*
X84592857Y-100322857D01*
X84707143Y-100380000D01*
X84764286Y-100437143D01*
X84821429Y-100551429D01*
X84821429Y-100894286D01*
X84764286Y-101008571D01*
X84707143Y-101065714D01*
X84592857Y-101122857D01*
X84421429Y-101122857D01*
X85507143Y-101122857D02*
X85392857Y-101065714D01*
X85335714Y-100951429D01*
X85335714Y-99922857D01*
X86421428Y-101065714D02*
X86307142Y-101122857D01*
X86078571Y-101122857D01*
X85964285Y-101065714D01*
X85907142Y-100951429D01*
X85907142Y-100494286D01*
X85964285Y-100380000D01*
X86078571Y-100322857D01*
X86307142Y-100322857D01*
X86421428Y-100380000D01*
X86478571Y-100494286D01*
X86478571Y-100608571D01*
X85907142Y-100722857D01*
D13*
X205000000Y-58357143D02*
X207000000Y-61357143D01*
X207000000Y-58357143D02*
X205000000Y-61357143D01*
X187000000Y-76928571D02*
X187000000Y-78357143D01*
X186000000Y-75357143D02*
X187000000Y-76928571D01*
X188000000Y-75357143D01*
X194214286Y-82785714D02*
X194642857Y-82928571D01*
X194785714Y-83071429D01*
X194928571Y-83357143D01*
X194928571Y-83785714D01*
X194785714Y-84071429D01*
X194642857Y-84214286D01*
X194357143Y-84357143D01*
X193214286Y-84357143D01*
X193214286Y-81357143D01*
X194214286Y-81357143D01*
X194500000Y-81500000D01*
X194642857Y-81642857D01*
X194785714Y-81928571D01*
X194785714Y-82214286D01*
X194642857Y-82500000D01*
X194500000Y-82642857D01*
X194214286Y-82785714D01*
X193214286Y-82785714D01*
X212285715Y-67500000D02*
X213714286Y-67500000D01*
X212000000Y-68357143D02*
X213000000Y-65357143D01*
X214000000Y-68357143D01*
D11*
X219000000Y-60000000D02*
G75*
G03X210000000Y-51000000I-9000000J0D01*
G01*
D14*
X100000000Y-112000000D02*
X100000000Y-52000000D01*
X180000000Y-112000000D02*
X100000000Y-112000000D01*
X180000000Y-52000000D02*
X180000000Y-112000000D01*
X100000000Y-52000000D02*
X180000000Y-52000000D01*
D15*
X174130000Y-107390000D02*
X179330000Y-107390000D01*
X174130000Y-59070000D02*
X174130000Y-107390000D01*
X179330000Y-56470000D02*
X179330000Y-107390000D01*
X174130000Y-59070000D02*
X176730000Y-59070000D01*
X176730000Y-59070000D02*
X176730000Y-56470000D01*
X176730000Y-56470000D02*
X179330000Y-56470000D01*
X174130000Y-57800000D02*
X174130000Y-56470000D01*
X174130000Y-56470000D02*
X175460000Y-56470000D01*
X210200000Y-68250000D02*
X210450000Y-68250000D01*
X210450000Y-68250000D02*
X210450000Y-74550000D01*
X210450000Y-74550000D02*
X210200000Y-74550000D01*
X205700000Y-68250000D02*
X208300000Y-68250000D01*
X203800000Y-74550000D02*
X203550000Y-74550000D01*
X203550000Y-74550000D02*
X203550000Y-68250000D01*
X203550000Y-68250000D02*
X203800000Y-68250000D01*
X208300000Y-74550000D02*
X205700000Y-74550000D01*
X203200000Y-74625000D02*
X203450000Y-74625000D01*
X203450000Y-74625000D02*
X203450000Y-80925000D01*
X203450000Y-80925000D02*
X203200000Y-80925000D01*
X198700000Y-74625000D02*
X201300000Y-74625000D01*
X196800000Y-80925000D02*
X196550000Y-80925000D01*
X196550000Y-80925000D02*
X196550000Y-74625000D01*
X196550000Y-74625000D02*
X196800000Y-74625000D01*
X201300000Y-80925000D02*
X198700000Y-80925000D01*
X76800000Y-80925000D02*
X76550000Y-80925000D01*
X76550000Y-80925000D02*
X76550000Y-74625000D01*
X76550000Y-74625000D02*
X76800000Y-74625000D01*
X81300000Y-80925000D02*
X78700000Y-80925000D01*
X83200000Y-74625000D02*
X83450000Y-74625000D01*
X83450000Y-74625000D02*
X83450000Y-80925000D01*
X83450000Y-80925000D02*
X83200000Y-80925000D01*
X78700000Y-74625000D02*
X81300000Y-74625000D01*
X69800000Y-74550000D02*
X69550000Y-74550000D01*
X69550000Y-74550000D02*
X69550000Y-68250000D01*
X69550000Y-68250000D02*
X69800000Y-68250000D01*
X74300000Y-74550000D02*
X71700000Y-74550000D01*
X76200000Y-68250000D02*
X76450000Y-68250000D01*
X76450000Y-68250000D02*
X76450000Y-74550000D01*
X76450000Y-74550000D02*
X76200000Y-74550000D01*
X71700000Y-68250000D02*
X74300000Y-68250000D01*
X83800000Y-74550000D02*
X83550000Y-74550000D01*
X83550000Y-74550000D02*
X83550000Y-68250000D01*
X83550000Y-68250000D02*
X83800000Y-68250000D01*
X88300000Y-74550000D02*
X85700000Y-74550000D01*
X90200000Y-68250000D02*
X90450000Y-68250000D01*
X90450000Y-68250000D02*
X90450000Y-74550000D01*
X90450000Y-74550000D02*
X90200000Y-74550000D01*
X85700000Y-68250000D02*
X88300000Y-68250000D01*
X76800000Y-68150000D02*
X76550000Y-68150000D01*
X76550000Y-68150000D02*
X76550000Y-61850000D01*
X76550000Y-61850000D02*
X76800000Y-61850000D01*
X81300000Y-68150000D02*
X78700000Y-68150000D01*
X83200000Y-61850000D02*
X83450000Y-61850000D01*
X83450000Y-61850000D02*
X83450000Y-68150000D01*
X83450000Y-68150000D02*
X83200000Y-68150000D01*
X78700000Y-61850000D02*
X81300000Y-61850000D01*
X203200000Y-61850000D02*
X203450000Y-61850000D01*
X203450000Y-61850000D02*
X203450000Y-68150000D01*
X203450000Y-68150000D02*
X203200000Y-68150000D01*
X198700000Y-61850000D02*
X201300000Y-61850000D01*
X196800000Y-68150000D02*
X196550000Y-68150000D01*
X196550000Y-68150000D02*
X196550000Y-61850000D01*
X196550000Y-61850000D02*
X196800000Y-61850000D01*
X201300000Y-68150000D02*
X198700000Y-68150000D01*
X196200000Y-68225000D02*
X196450000Y-68225000D01*
X196450000Y-68225000D02*
X196450000Y-74525000D01*
X196450000Y-74525000D02*
X196200000Y-74525000D01*
X191700000Y-68225000D02*
X194300000Y-68225000D01*
X189800000Y-74525000D02*
X189550000Y-74525000D01*
X189550000Y-74525000D02*
X189550000Y-68225000D01*
X189550000Y-68225000D02*
X189800000Y-68225000D01*
X194300000Y-74525000D02*
X191700000Y-74525000D01*
X114130000Y-51670000D02*
X114130000Y-54330000D01*
X116730000Y-51670000D02*
X114130000Y-51670000D01*
X116730000Y-54330000D02*
X114130000Y-54330000D01*
X116730000Y-51670000D02*
X116730000Y-54330000D01*
X118000000Y-51670000D02*
X119330000Y-51670000D01*
X119330000Y-51670000D02*
X119330000Y-53000000D01*
M02*
