M48
;DRILL file {KiCad 4.0.7-e0-6372~58~ubuntu16.10.1} date Tue Sep 25 01:01:18 2018
;FORMAT={3:3/ absolute / metric / suppress leading zeros}
FMAT,2
METRIC,TZ
T1C0.400
T2C1.000
T3C0.900
T4C1.700
T5C1.980
T6C4.300
%
G90
G05
M71
T1
X70800Y-72700
X75000Y-70000
X82000Y-63000
X82000Y-76000
X89000Y-69000
X190800Y-72700
X197800Y-79300
X198000Y-64000
X204700Y-71900
T2
X115460Y-53000
X118000Y-53000
X132410Y-51500
X132410Y-54040
X132410Y-56580
X132410Y-59120
X132410Y-61660
X132410Y-64200
X132410Y-66740
X132410Y-69280
X132410Y-71820
X132410Y-74360
X132410Y-76900
X132410Y-79440
X132410Y-81980
X132410Y-84520
X147650Y-51500
X147650Y-54040
X147650Y-56580
X147650Y-59120
X147650Y-61660
X147650Y-64200
X147650Y-66740
X147650Y-69280
X147650Y-71820
X147650Y-74360
X147650Y-76900
X147650Y-79440
X147650Y-81980
X147650Y-84520
X175460Y-57800
X175460Y-60340
X175460Y-62880
X175460Y-65420
X175460Y-67960
X175460Y-70500
X175460Y-73040
X175460Y-75580
X175460Y-78120
X175460Y-80660
X175460Y-83200
X175460Y-85740
X175460Y-88280
X175460Y-90820
X175460Y-93360
X175460Y-95900
X175460Y-98440
X175460Y-100980
X175460Y-103520
X175460Y-106060
X178000Y-57800
X178000Y-60340
X178000Y-62880
X178000Y-65420
X178000Y-67960
X178000Y-70500
X178000Y-73040
X178000Y-75580
X178000Y-78120
X178000Y-80660
X178000Y-83200
X178000Y-85740
X178000Y-88280
X178000Y-90820
X178000Y-93360
X178000Y-95900
X178000Y-98440
X178000Y-100980
X178000Y-103520
X178000Y-106060
T3
X105900Y-51800
X108900Y-51800
T4
X116250Y-103450
X116250Y-110450
T5
X88220Y-106260
X211820Y-106360
T6
X185000Y-109000
T0
M30
