G04 #@! TF.FileFunction,Copper,L1,Top,Signal*
%FSLAX46Y46*%
G04 Gerber Fmt 4.6, Leading zero omitted, Abs format (unit mm)*
G04 Created by KiCad (PCBNEW 4.0.7-e0-6372~58~ubuntu16.10.1) date Tue Sep 25 01:01:21 2018*
%MOMM*%
%LPD*%
G01*
G04 APERTURE LIST*
%ADD10C,0.100000*%
%ADD11R,1.700000X1.700000*%
%ADD12O,1.700000X1.700000*%
%ADD13R,1.300000X1.550000*%
%ADD14C,0.600000*%
%ADD15C,0.500000*%
%ADD16C,0.250000*%
%ADD17C,0.254000*%
G04 APERTURE END LIST*
D10*
D11*
X175460000Y-57800000D03*
D12*
X178000000Y-57800000D03*
X175460000Y-60340000D03*
X178000000Y-60340000D03*
X175460000Y-62880000D03*
X178000000Y-62880000D03*
X175460000Y-65420000D03*
X178000000Y-65420000D03*
X175460000Y-67960000D03*
X178000000Y-67960000D03*
X175460000Y-70500000D03*
X178000000Y-70500000D03*
X175460000Y-73040000D03*
X178000000Y-73040000D03*
X175460000Y-75580000D03*
X178000000Y-75580000D03*
X175460000Y-78120000D03*
X178000000Y-78120000D03*
X175460000Y-80660000D03*
X178000000Y-80660000D03*
X175460000Y-83200000D03*
X178000000Y-83200000D03*
X175460000Y-85740000D03*
X178000000Y-85740000D03*
X175460000Y-88280000D03*
X178000000Y-88280000D03*
X175460000Y-90820000D03*
X178000000Y-90820000D03*
X175460000Y-93360000D03*
X178000000Y-93360000D03*
X175460000Y-95900000D03*
X178000000Y-95900000D03*
X175460000Y-98440000D03*
X178000000Y-98440000D03*
X175460000Y-100980000D03*
X178000000Y-100980000D03*
X175460000Y-103520000D03*
X178000000Y-103520000D03*
X175460000Y-106060000D03*
X178000000Y-106060000D03*
D11*
X147650000Y-51499610D03*
D12*
X147650000Y-54039610D03*
X147650000Y-56579610D03*
X147650000Y-59119610D03*
X147650000Y-61659610D03*
X147650000Y-64199610D03*
X147650000Y-66739610D03*
X147650000Y-69279610D03*
X147650000Y-71819610D03*
X147650000Y-74359610D03*
X147650000Y-76899610D03*
X147650000Y-79439610D03*
X147650000Y-81979610D03*
X147650000Y-84519610D03*
D11*
X132410000Y-51499610D03*
D12*
X132410000Y-54039610D03*
X132410000Y-56579610D03*
X132410000Y-59119610D03*
X132410000Y-61659610D03*
X132410000Y-64199610D03*
X132410000Y-66739610D03*
X132410000Y-69279610D03*
X132410000Y-71819610D03*
X132410000Y-74359610D03*
X132410000Y-76899610D03*
X132410000Y-79439610D03*
X132410000Y-81979610D03*
X132410000Y-84519610D03*
D13*
X209250000Y-67425000D03*
X209250000Y-75375000D03*
X204750000Y-67425000D03*
X204750000Y-75375000D03*
X202250000Y-73800000D03*
X202250000Y-81750000D03*
X197750000Y-73800000D03*
X197750000Y-81750000D03*
X77750000Y-81750000D03*
X77750000Y-73800000D03*
X82250000Y-81750000D03*
X82250000Y-73800000D03*
X70750000Y-75375000D03*
X70750000Y-67425000D03*
X75250000Y-75375000D03*
X75250000Y-67425000D03*
X84750000Y-75375000D03*
X84750000Y-67425000D03*
X89250000Y-75375000D03*
X89250000Y-67425000D03*
X77750000Y-68975000D03*
X77750000Y-61025000D03*
X82250000Y-68975000D03*
X82250000Y-61025000D03*
X202250000Y-61025000D03*
X202250000Y-68975000D03*
X197750000Y-61025000D03*
X197750000Y-68975000D03*
X195250000Y-67400000D03*
X195250000Y-75350000D03*
X190750000Y-67400000D03*
X190750000Y-75350000D03*
D11*
X118000000Y-53000000D03*
D12*
X115460000Y-53000000D03*
D14*
X70800000Y-72700000D03*
X82000000Y-63000000D03*
X89000000Y-69000000D03*
X75000000Y-70000000D03*
X82000000Y-76000000D03*
X190800000Y-72700000D03*
X198000000Y-64000000D03*
X204700000Y-71900000D03*
X197800000Y-79300000D03*
D15*
X70750000Y-75375000D02*
X70750000Y-72750000D01*
X70750000Y-72750000D02*
X70800000Y-72700000D01*
D16*
X132410000Y-59119610D02*
X121579610Y-59119610D01*
X121579610Y-59119610D02*
X115460000Y-53000000D01*
X175460000Y-57800000D02*
X174360000Y-57800000D01*
X174360000Y-57800000D02*
X171860000Y-55300000D01*
X171860000Y-55300000D02*
X133689610Y-55300000D01*
X133259999Y-55729611D02*
X132410000Y-56579610D01*
X133689610Y-55300000D02*
X133259999Y-55729611D01*
X147650000Y-56579610D02*
X171699610Y-56579610D01*
X171699610Y-56579610D02*
X175460000Y-60340000D01*
X147650000Y-54039610D02*
X175039610Y-54039610D01*
X175039610Y-54039610D02*
X176740000Y-55740000D01*
X176740000Y-55740000D02*
X176740000Y-59080000D01*
X176740000Y-59080000D02*
X177150001Y-59490001D01*
X177150001Y-59490001D02*
X178000000Y-60340000D01*
X147650000Y-61659610D02*
X148852081Y-61659610D01*
X148852081Y-61659610D02*
X150072471Y-62880000D01*
X150072471Y-62880000D02*
X174257919Y-62880000D01*
X174257919Y-62880000D02*
X175460000Y-62880000D01*
X147650000Y-59119610D02*
X148852081Y-59119610D01*
X148852081Y-59119610D02*
X151332471Y-61600000D01*
X151332471Y-61600000D02*
X176720000Y-61600000D01*
X176720000Y-61600000D02*
X177150001Y-62030001D01*
X177150001Y-62030001D02*
X178000000Y-62880000D01*
X174257919Y-65420000D02*
X175460000Y-65420000D01*
X148969610Y-65420000D02*
X174257919Y-65420000D01*
X147650000Y-66739610D02*
X148969610Y-65420000D01*
X147650000Y-64199610D02*
X147689610Y-64160000D01*
X176740000Y-64160000D02*
X178000000Y-65420000D01*
X147689610Y-64160000D02*
X176740000Y-64160000D01*
X147650000Y-71819610D02*
X171600390Y-71819610D01*
X171600390Y-71819610D02*
X175460000Y-67960000D01*
X147650000Y-69279610D02*
X148499999Y-70129609D01*
X148499999Y-70129609D02*
X170470391Y-70129609D01*
X173900000Y-66700000D02*
X176740000Y-66700000D01*
X170470391Y-70129609D02*
X173900000Y-66700000D01*
X176740000Y-66700000D02*
X177150001Y-67110001D01*
X177150001Y-67110001D02*
X178000000Y-67960000D01*
X147650000Y-76899610D02*
X153950390Y-83200000D01*
X153950390Y-83200000D02*
X175460000Y-83200000D01*
X147650000Y-74359610D02*
X155240390Y-81950000D01*
X155240390Y-81950000D02*
X176750000Y-81950000D01*
X177150001Y-82350001D02*
X178000000Y-83200000D01*
X176750000Y-81950000D02*
X177150001Y-82350001D01*
X147650000Y-79439610D02*
X153950390Y-85740000D01*
X153950390Y-85740000D02*
X175460000Y-85740000D01*
X147650000Y-81979610D02*
X148852081Y-81979610D01*
X148852081Y-81979610D02*
X153872471Y-87000000D01*
X153872471Y-87000000D02*
X176720000Y-87000000D01*
X176720000Y-87000000D02*
X177150001Y-87430001D01*
X177150001Y-87430001D02*
X178000000Y-88280000D01*
X147650000Y-84519610D02*
X147650000Y-85721691D01*
X154028309Y-92100000D02*
X176740000Y-92100000D01*
X147650000Y-85721691D02*
X154028309Y-92100000D01*
X176740000Y-92100000D02*
X177150001Y-92510001D01*
X177150001Y-92510001D02*
X178000000Y-93360000D01*
X82000000Y-63000000D02*
X82000000Y-68725000D01*
X82000000Y-68725000D02*
X82250000Y-68975000D01*
X82250000Y-61025000D02*
X82250000Y-62750000D01*
X82250000Y-62750000D02*
X82000000Y-63000000D01*
X89250000Y-69250000D02*
X89000000Y-69000000D01*
X89250000Y-75375000D02*
X89250000Y-69250000D01*
X89250000Y-68750000D02*
X89000000Y-69000000D01*
X89250000Y-67425000D02*
X89250000Y-68750000D01*
X75000000Y-70000000D02*
X75000000Y-75125000D01*
X75000000Y-75125000D02*
X75250000Y-75375000D01*
X75250000Y-67425000D02*
X75250000Y-69750000D01*
X75250000Y-69750000D02*
X75000000Y-70000000D01*
X82250000Y-76250000D02*
X82000000Y-76000000D01*
X82250000Y-81750000D02*
X82250000Y-76250000D01*
X82250000Y-73800000D02*
X82250000Y-75750000D01*
X82250000Y-75750000D02*
X82000000Y-76000000D01*
X190800000Y-72700000D02*
X190800000Y-67450000D01*
X190800000Y-67450000D02*
X190750000Y-67400000D01*
X190800000Y-72700000D02*
X190800000Y-75300000D01*
X190800000Y-75300000D02*
X190750000Y-75350000D01*
X198000000Y-64000000D02*
X198000000Y-68725000D01*
X198000000Y-68725000D02*
X197750000Y-68975000D01*
X198000000Y-64000000D02*
X198000000Y-61275000D01*
X198000000Y-61275000D02*
X197750000Y-61025000D01*
X204750000Y-67425000D02*
X204750000Y-71850000D01*
X204750000Y-71850000D02*
X204700000Y-71900000D01*
X204700000Y-71900000D02*
X204700000Y-75325000D01*
X204700000Y-75325000D02*
X204750000Y-75375000D01*
X197800000Y-79300000D02*
X197800000Y-73850000D01*
X197800000Y-73850000D02*
X197750000Y-73800000D01*
X197800000Y-79300000D02*
X197800000Y-81700000D01*
X197800000Y-81700000D02*
X197750000Y-81750000D01*
D17*
G36*
X130912560Y-52349610D02*
X130956838Y-52584927D01*
X131095910Y-52801051D01*
X131308110Y-52946041D01*
X131416107Y-52967911D01*
X131138355Y-53272686D01*
X130968524Y-53682720D01*
X131089845Y-53912610D01*
X132283000Y-53912610D01*
X132283000Y-53892610D01*
X132537000Y-53892610D01*
X132537000Y-53912610D01*
X133730155Y-53912610D01*
X133851476Y-53682720D01*
X133681645Y-53272686D01*
X133405499Y-52969673D01*
X133495317Y-52952772D01*
X133711441Y-52813700D01*
X133856431Y-52601500D01*
X133907440Y-52349610D01*
X133907440Y-50710000D01*
X146165000Y-50710000D01*
X146165000Y-51213860D01*
X146323750Y-51372610D01*
X147523000Y-51372610D01*
X147523000Y-51352610D01*
X147777000Y-51352610D01*
X147777000Y-51372610D01*
X148976250Y-51372610D01*
X149135000Y-51213860D01*
X149135000Y-50710000D01*
X209930069Y-50710000D01*
X213549805Y-51430010D01*
X216559187Y-53440814D01*
X218569989Y-56450193D01*
X219290000Y-60069931D01*
X219290000Y-103930069D01*
X218569989Y-107549807D01*
X216559187Y-110559186D01*
X213549805Y-112569990D01*
X209930069Y-113290000D01*
X70069931Y-113290000D01*
X66450193Y-112569989D01*
X63717540Y-110744089D01*
X114764743Y-110744089D01*
X114990344Y-111290086D01*
X115407717Y-111708188D01*
X115953319Y-111934742D01*
X116544089Y-111935257D01*
X117090086Y-111709656D01*
X117508188Y-111292283D01*
X117734742Y-110746681D01*
X117735257Y-110155911D01*
X117509656Y-109609914D01*
X117451384Y-109551540D01*
X182214518Y-109551540D01*
X182637616Y-110575515D01*
X183420365Y-111359631D01*
X184443599Y-111784515D01*
X185551540Y-111785482D01*
X186575515Y-111362384D01*
X187359631Y-110579635D01*
X187784515Y-109556401D01*
X187785482Y-108448460D01*
X187362384Y-107424485D01*
X186621008Y-106681814D01*
X210194718Y-106681814D01*
X210441588Y-107279286D01*
X210898309Y-107736805D01*
X211495349Y-107984718D01*
X212141814Y-107985282D01*
X212739286Y-107738412D01*
X213196805Y-107281691D01*
X213444718Y-106684651D01*
X213445282Y-106038186D01*
X213198412Y-105440714D01*
X212741691Y-104983195D01*
X212144651Y-104735282D01*
X211498186Y-104734718D01*
X210900714Y-104981588D01*
X210443195Y-105438309D01*
X210195282Y-106035349D01*
X210194718Y-106681814D01*
X186621008Y-106681814D01*
X186579635Y-106640369D01*
X185556401Y-106215485D01*
X184448460Y-106214518D01*
X183424485Y-106637616D01*
X182640369Y-107420365D01*
X182215485Y-108443599D01*
X182214518Y-109551540D01*
X117451384Y-109551540D01*
X117092283Y-109191812D01*
X116546681Y-108965258D01*
X115955911Y-108964743D01*
X115409914Y-109190344D01*
X114991812Y-109607717D01*
X114765258Y-110153319D01*
X114764743Y-110744089D01*
X63717540Y-110744089D01*
X63440814Y-110559187D01*
X61430010Y-107549805D01*
X61237465Y-106581814D01*
X86594718Y-106581814D01*
X86841588Y-107179286D01*
X87298309Y-107636805D01*
X87895349Y-107884718D01*
X88541814Y-107885282D01*
X89139286Y-107638412D01*
X89596805Y-107181691D01*
X89844718Y-106584651D01*
X89845282Y-105938186D01*
X89598412Y-105340714D01*
X89141691Y-104883195D01*
X88544651Y-104635282D01*
X87898186Y-104634718D01*
X87300714Y-104881588D01*
X86843195Y-105338309D01*
X86595282Y-105935349D01*
X86594718Y-106581814D01*
X61237465Y-106581814D01*
X60710000Y-103930069D01*
X60710000Y-103744089D01*
X114764743Y-103744089D01*
X114990344Y-104290086D01*
X115407717Y-104708188D01*
X115953319Y-104934742D01*
X116544089Y-104935257D01*
X117090086Y-104709656D01*
X117508188Y-104292283D01*
X117734742Y-103746681D01*
X117735257Y-103155911D01*
X117509656Y-102609914D01*
X117092283Y-102191812D01*
X116546681Y-101965258D01*
X115955911Y-101964743D01*
X115409914Y-102190344D01*
X114991812Y-102607717D01*
X114765258Y-103153319D01*
X114764743Y-103744089D01*
X60710000Y-103744089D01*
X60710000Y-82035750D01*
X76465000Y-82035750D01*
X76465000Y-82651309D01*
X76561673Y-82884698D01*
X76740301Y-83063327D01*
X76973690Y-83160000D01*
X77464250Y-83160000D01*
X77623000Y-83001250D01*
X77623000Y-81877000D01*
X77877000Y-81877000D01*
X77877000Y-83001250D01*
X78035750Y-83160000D01*
X78526310Y-83160000D01*
X78759699Y-83063327D01*
X78938327Y-82884698D01*
X79035000Y-82651309D01*
X79035000Y-82035750D01*
X78876250Y-81877000D01*
X77877000Y-81877000D01*
X77623000Y-81877000D01*
X76623750Y-81877000D01*
X76465000Y-82035750D01*
X60710000Y-82035750D01*
X60710000Y-80848691D01*
X76465000Y-80848691D01*
X76465000Y-81464250D01*
X76623750Y-81623000D01*
X77623000Y-81623000D01*
X77623000Y-80498750D01*
X77877000Y-80498750D01*
X77877000Y-81623000D01*
X78876250Y-81623000D01*
X79035000Y-81464250D01*
X79035000Y-80848691D01*
X78938327Y-80615302D01*
X78759699Y-80436673D01*
X78526310Y-80340000D01*
X78035750Y-80340000D01*
X77877000Y-80498750D01*
X77623000Y-80498750D01*
X77464250Y-80340000D01*
X76973690Y-80340000D01*
X76740301Y-80436673D01*
X76561673Y-80615302D01*
X76465000Y-80848691D01*
X60710000Y-80848691D01*
X60710000Y-75660750D01*
X69465000Y-75660750D01*
X69465000Y-76276309D01*
X69561673Y-76509698D01*
X69740301Y-76688327D01*
X69973690Y-76785000D01*
X70464250Y-76785000D01*
X70623000Y-76626250D01*
X70623000Y-75502000D01*
X70877000Y-75502000D01*
X70877000Y-76626250D01*
X71035750Y-76785000D01*
X71526310Y-76785000D01*
X71759699Y-76688327D01*
X71938327Y-76509698D01*
X72035000Y-76276309D01*
X72035000Y-75660750D01*
X71876250Y-75502000D01*
X70877000Y-75502000D01*
X70623000Y-75502000D01*
X69623750Y-75502000D01*
X69465000Y-75660750D01*
X60710000Y-75660750D01*
X60710000Y-74473691D01*
X69465000Y-74473691D01*
X69465000Y-75089250D01*
X69623750Y-75248000D01*
X70623000Y-75248000D01*
X70623000Y-74123750D01*
X70877000Y-74123750D01*
X70877000Y-75248000D01*
X71876250Y-75248000D01*
X72035000Y-75089250D01*
X72035000Y-74473691D01*
X71938327Y-74240302D01*
X71759699Y-74061673D01*
X71526310Y-73965000D01*
X71035750Y-73965000D01*
X70877000Y-74123750D01*
X70623000Y-74123750D01*
X70464250Y-73965000D01*
X69973690Y-73965000D01*
X69740301Y-74061673D01*
X69561673Y-74240302D01*
X69465000Y-74473691D01*
X60710000Y-74473691D01*
X60710000Y-67710750D01*
X69465000Y-67710750D01*
X69465000Y-68326309D01*
X69561673Y-68559698D01*
X69740301Y-68738327D01*
X69973690Y-68835000D01*
X70464250Y-68835000D01*
X70623000Y-68676250D01*
X70623000Y-67552000D01*
X70877000Y-67552000D01*
X70877000Y-68676250D01*
X71035750Y-68835000D01*
X71526310Y-68835000D01*
X71759699Y-68738327D01*
X71938327Y-68559698D01*
X72035000Y-68326309D01*
X72035000Y-67710750D01*
X71876250Y-67552000D01*
X70877000Y-67552000D01*
X70623000Y-67552000D01*
X69623750Y-67552000D01*
X69465000Y-67710750D01*
X60710000Y-67710750D01*
X60710000Y-66523691D01*
X69465000Y-66523691D01*
X69465000Y-67139250D01*
X69623750Y-67298000D01*
X70623000Y-67298000D01*
X70623000Y-66173750D01*
X70877000Y-66173750D01*
X70877000Y-67298000D01*
X71876250Y-67298000D01*
X72035000Y-67139250D01*
X72035000Y-66650000D01*
X73952560Y-66650000D01*
X73952560Y-68200000D01*
X73996838Y-68435317D01*
X74135910Y-68651441D01*
X74348110Y-68796431D01*
X74490000Y-68825164D01*
X74490000Y-69199056D01*
X74471057Y-69206883D01*
X74207808Y-69469673D01*
X74065162Y-69813201D01*
X74064838Y-70185167D01*
X74206883Y-70528943D01*
X74240000Y-70562118D01*
X74240000Y-74077069D01*
X74148559Y-74135910D01*
X74003569Y-74348110D01*
X73952560Y-74600000D01*
X73952560Y-76150000D01*
X73996838Y-76385317D01*
X74135910Y-76601441D01*
X74348110Y-76746431D01*
X74600000Y-76797440D01*
X75900000Y-76797440D01*
X76135317Y-76753162D01*
X76351441Y-76614090D01*
X76496431Y-76401890D01*
X76547440Y-76150000D01*
X76547440Y-74900337D01*
X76561673Y-74934698D01*
X76740301Y-75113327D01*
X76973690Y-75210000D01*
X77464250Y-75210000D01*
X77623000Y-75051250D01*
X77623000Y-73927000D01*
X77877000Y-73927000D01*
X77877000Y-75051250D01*
X78035750Y-75210000D01*
X78526310Y-75210000D01*
X78759699Y-75113327D01*
X78938327Y-74934698D01*
X79035000Y-74701309D01*
X79035000Y-74085750D01*
X78876250Y-73927000D01*
X77877000Y-73927000D01*
X77623000Y-73927000D01*
X76623750Y-73927000D01*
X76465000Y-74085750D01*
X76465000Y-74305378D01*
X76364090Y-74148559D01*
X76151890Y-74003569D01*
X75900000Y-73952560D01*
X75760000Y-73952560D01*
X75760000Y-72898691D01*
X76465000Y-72898691D01*
X76465000Y-73514250D01*
X76623750Y-73673000D01*
X77623000Y-73673000D01*
X77623000Y-72548750D01*
X77877000Y-72548750D01*
X77877000Y-73673000D01*
X78876250Y-73673000D01*
X79035000Y-73514250D01*
X79035000Y-73025000D01*
X80952560Y-73025000D01*
X80952560Y-74575000D01*
X80996838Y-74810317D01*
X81135910Y-75026441D01*
X81348110Y-75171431D01*
X81488200Y-75199800D01*
X81471057Y-75206883D01*
X81207808Y-75469673D01*
X81065162Y-75813201D01*
X81064838Y-76185167D01*
X81206883Y-76528943D01*
X81469673Y-76792192D01*
X81490000Y-76800633D01*
X81490000Y-80348258D01*
X81364683Y-80371838D01*
X81148559Y-80510910D01*
X81003569Y-80723110D01*
X80952560Y-80975000D01*
X80952560Y-82525000D01*
X80996838Y-82760317D01*
X81135910Y-82976441D01*
X81348110Y-83121431D01*
X81600000Y-83172440D01*
X82900000Y-83172440D01*
X83135317Y-83128162D01*
X83351441Y-82989090D01*
X83496431Y-82776890D01*
X83547440Y-82525000D01*
X83547440Y-80975000D01*
X83503162Y-80739683D01*
X83364090Y-80523559D01*
X83151890Y-80378569D01*
X83010000Y-80349836D01*
X83010000Y-76250000D01*
X82990109Y-76150000D01*
X82960272Y-76000000D01*
X83010000Y-75750000D01*
X83010000Y-75660750D01*
X83465000Y-75660750D01*
X83465000Y-76276309D01*
X83561673Y-76509698D01*
X83740301Y-76688327D01*
X83973690Y-76785000D01*
X84464250Y-76785000D01*
X84623000Y-76626250D01*
X84623000Y-75502000D01*
X84877000Y-75502000D01*
X84877000Y-76626250D01*
X85035750Y-76785000D01*
X85526310Y-76785000D01*
X85759699Y-76688327D01*
X85938327Y-76509698D01*
X86035000Y-76276309D01*
X86035000Y-75660750D01*
X85876250Y-75502000D01*
X84877000Y-75502000D01*
X84623000Y-75502000D01*
X83623750Y-75502000D01*
X83465000Y-75660750D01*
X83010000Y-75660750D01*
X83010000Y-75201742D01*
X83135317Y-75178162D01*
X83351441Y-75039090D01*
X83465000Y-74872891D01*
X83465000Y-75089250D01*
X83623750Y-75248000D01*
X84623000Y-75248000D01*
X84623000Y-74123750D01*
X84877000Y-74123750D01*
X84877000Y-75248000D01*
X85876250Y-75248000D01*
X86035000Y-75089250D01*
X86035000Y-74473691D01*
X85938327Y-74240302D01*
X85759699Y-74061673D01*
X85526310Y-73965000D01*
X85035750Y-73965000D01*
X84877000Y-74123750D01*
X84623000Y-74123750D01*
X84464250Y-73965000D01*
X83973690Y-73965000D01*
X83740301Y-74061673D01*
X83561673Y-74240302D01*
X83547440Y-74274663D01*
X83547440Y-73025000D01*
X83503162Y-72789683D01*
X83364090Y-72573559D01*
X83151890Y-72428569D01*
X82900000Y-72377560D01*
X81600000Y-72377560D01*
X81364683Y-72421838D01*
X81148559Y-72560910D01*
X81003569Y-72773110D01*
X80952560Y-73025000D01*
X79035000Y-73025000D01*
X79035000Y-72898691D01*
X78938327Y-72665302D01*
X78759699Y-72486673D01*
X78526310Y-72390000D01*
X78035750Y-72390000D01*
X77877000Y-72548750D01*
X77623000Y-72548750D01*
X77464250Y-72390000D01*
X76973690Y-72390000D01*
X76740301Y-72486673D01*
X76561673Y-72665302D01*
X76465000Y-72898691D01*
X75760000Y-72898691D01*
X75760000Y-70562463D01*
X75792192Y-70530327D01*
X75934838Y-70186799D01*
X75934943Y-70066590D01*
X75952148Y-70040840D01*
X76010000Y-69750000D01*
X76010000Y-69260750D01*
X76465000Y-69260750D01*
X76465000Y-69876309D01*
X76561673Y-70109698D01*
X76740301Y-70288327D01*
X76973690Y-70385000D01*
X77464250Y-70385000D01*
X77623000Y-70226250D01*
X77623000Y-69102000D01*
X77877000Y-69102000D01*
X77877000Y-70226250D01*
X78035750Y-70385000D01*
X78526310Y-70385000D01*
X78759699Y-70288327D01*
X78938327Y-70109698D01*
X79035000Y-69876309D01*
X79035000Y-69260750D01*
X78876250Y-69102000D01*
X77877000Y-69102000D01*
X77623000Y-69102000D01*
X76623750Y-69102000D01*
X76465000Y-69260750D01*
X76010000Y-69260750D01*
X76010000Y-68826742D01*
X76135317Y-68803162D01*
X76351441Y-68664090D01*
X76465000Y-68497891D01*
X76465000Y-68689250D01*
X76623750Y-68848000D01*
X77623000Y-68848000D01*
X77623000Y-67723750D01*
X77877000Y-67723750D01*
X77877000Y-68848000D01*
X78876250Y-68848000D01*
X79035000Y-68689250D01*
X79035000Y-68073691D01*
X78938327Y-67840302D01*
X78759699Y-67661673D01*
X78526310Y-67565000D01*
X78035750Y-67565000D01*
X77877000Y-67723750D01*
X77623000Y-67723750D01*
X77464250Y-67565000D01*
X76973690Y-67565000D01*
X76740301Y-67661673D01*
X76561673Y-67840302D01*
X76547440Y-67874663D01*
X76547440Y-66650000D01*
X76503162Y-66414683D01*
X76364090Y-66198559D01*
X76151890Y-66053569D01*
X75900000Y-66002560D01*
X74600000Y-66002560D01*
X74364683Y-66046838D01*
X74148559Y-66185910D01*
X74003569Y-66398110D01*
X73952560Y-66650000D01*
X72035000Y-66650000D01*
X72035000Y-66523691D01*
X71938327Y-66290302D01*
X71759699Y-66111673D01*
X71526310Y-66015000D01*
X71035750Y-66015000D01*
X70877000Y-66173750D01*
X70623000Y-66173750D01*
X70464250Y-66015000D01*
X69973690Y-66015000D01*
X69740301Y-66111673D01*
X69561673Y-66290302D01*
X69465000Y-66523691D01*
X60710000Y-66523691D01*
X60710000Y-61310750D01*
X76465000Y-61310750D01*
X76465000Y-61926309D01*
X76561673Y-62159698D01*
X76740301Y-62338327D01*
X76973690Y-62435000D01*
X77464250Y-62435000D01*
X77623000Y-62276250D01*
X77623000Y-61152000D01*
X77877000Y-61152000D01*
X77877000Y-62276250D01*
X78035750Y-62435000D01*
X78526310Y-62435000D01*
X78759699Y-62338327D01*
X78938327Y-62159698D01*
X79035000Y-61926309D01*
X79035000Y-61310750D01*
X78876250Y-61152000D01*
X77877000Y-61152000D01*
X77623000Y-61152000D01*
X76623750Y-61152000D01*
X76465000Y-61310750D01*
X60710000Y-61310750D01*
X60710000Y-60123691D01*
X76465000Y-60123691D01*
X76465000Y-60739250D01*
X76623750Y-60898000D01*
X77623000Y-60898000D01*
X77623000Y-59773750D01*
X77877000Y-59773750D01*
X77877000Y-60898000D01*
X78876250Y-60898000D01*
X79035000Y-60739250D01*
X79035000Y-60250000D01*
X80952560Y-60250000D01*
X80952560Y-61800000D01*
X80996838Y-62035317D01*
X81135910Y-62251441D01*
X81308375Y-62369281D01*
X81207808Y-62469673D01*
X81065162Y-62813201D01*
X81064838Y-63185167D01*
X81206883Y-63528943D01*
X81240000Y-63562118D01*
X81240000Y-67677069D01*
X81148559Y-67735910D01*
X81003569Y-67948110D01*
X80952560Y-68200000D01*
X80952560Y-69750000D01*
X80996838Y-69985317D01*
X81135910Y-70201441D01*
X81348110Y-70346431D01*
X81600000Y-70397440D01*
X82900000Y-70397440D01*
X83135317Y-70353162D01*
X83351441Y-70214090D01*
X83496431Y-70001890D01*
X83547440Y-69750000D01*
X83547440Y-68525337D01*
X83561673Y-68559698D01*
X83740301Y-68738327D01*
X83973690Y-68835000D01*
X84464250Y-68835000D01*
X84623000Y-68676250D01*
X84623000Y-67552000D01*
X84877000Y-67552000D01*
X84877000Y-68676250D01*
X85035750Y-68835000D01*
X85526310Y-68835000D01*
X85759699Y-68738327D01*
X85938327Y-68559698D01*
X86035000Y-68326309D01*
X86035000Y-67710750D01*
X85876250Y-67552000D01*
X84877000Y-67552000D01*
X84623000Y-67552000D01*
X83623750Y-67552000D01*
X83465000Y-67710750D01*
X83465000Y-67905378D01*
X83364090Y-67748559D01*
X83151890Y-67603569D01*
X82900000Y-67552560D01*
X82760000Y-67552560D01*
X82760000Y-66523691D01*
X83465000Y-66523691D01*
X83465000Y-67139250D01*
X83623750Y-67298000D01*
X84623000Y-67298000D01*
X84623000Y-66173750D01*
X84877000Y-66173750D01*
X84877000Y-67298000D01*
X85876250Y-67298000D01*
X86035000Y-67139250D01*
X86035000Y-66650000D01*
X87952560Y-66650000D01*
X87952560Y-68200000D01*
X87996838Y-68435317D01*
X88133735Y-68648060D01*
X88065162Y-68813201D01*
X88064838Y-69185167D01*
X88206883Y-69528943D01*
X88469673Y-69792192D01*
X88490000Y-69800633D01*
X88490000Y-73973258D01*
X88364683Y-73996838D01*
X88148559Y-74135910D01*
X88003569Y-74348110D01*
X87952560Y-74600000D01*
X87952560Y-76150000D01*
X87996838Y-76385317D01*
X88135910Y-76601441D01*
X88348110Y-76746431D01*
X88600000Y-76797440D01*
X89900000Y-76797440D01*
X90135317Y-76753162D01*
X90351441Y-76614090D01*
X90496431Y-76401890D01*
X90547440Y-76150000D01*
X90547440Y-74600000D01*
X90503162Y-74364683D01*
X90364090Y-74148559D01*
X90151890Y-74003569D01*
X90010000Y-73974836D01*
X90010000Y-69250000D01*
X89963255Y-69015000D01*
X89960272Y-69000000D01*
X89994141Y-68829726D01*
X90135317Y-68803162D01*
X90351441Y-68664090D01*
X90496431Y-68451890D01*
X90547440Y-68200000D01*
X90547440Y-66650000D01*
X90503162Y-66414683D01*
X90364090Y-66198559D01*
X90151890Y-66053569D01*
X89900000Y-66002560D01*
X88600000Y-66002560D01*
X88364683Y-66046838D01*
X88148559Y-66185910D01*
X88003569Y-66398110D01*
X87952560Y-66650000D01*
X86035000Y-66650000D01*
X86035000Y-66523691D01*
X85938327Y-66290302D01*
X85759699Y-66111673D01*
X85526310Y-66015000D01*
X85035750Y-66015000D01*
X84877000Y-66173750D01*
X84623000Y-66173750D01*
X84464250Y-66015000D01*
X83973690Y-66015000D01*
X83740301Y-66111673D01*
X83561673Y-66290302D01*
X83465000Y-66523691D01*
X82760000Y-66523691D01*
X82760000Y-63562463D01*
X82792192Y-63530327D01*
X82934838Y-63186799D01*
X82934943Y-63066590D01*
X82952148Y-63040840D01*
X83010000Y-62750000D01*
X83010000Y-62426742D01*
X83135317Y-62403162D01*
X83351441Y-62264090D01*
X83496431Y-62051890D01*
X83547440Y-61800000D01*
X83547440Y-60250000D01*
X83503162Y-60014683D01*
X83364090Y-59798559D01*
X83151890Y-59653569D01*
X82900000Y-59602560D01*
X81600000Y-59602560D01*
X81364683Y-59646838D01*
X81148559Y-59785910D01*
X81003569Y-59998110D01*
X80952560Y-60250000D01*
X79035000Y-60250000D01*
X79035000Y-60123691D01*
X78938327Y-59890302D01*
X78759699Y-59711673D01*
X78526310Y-59615000D01*
X78035750Y-59615000D01*
X77877000Y-59773750D01*
X77623000Y-59773750D01*
X77464250Y-59615000D01*
X76973690Y-59615000D01*
X76740301Y-59711673D01*
X76561673Y-59890302D01*
X76465000Y-60123691D01*
X60710000Y-60123691D01*
X60710000Y-60069931D01*
X61430010Y-56450195D01*
X63440814Y-53440813D01*
X64144078Y-52970907D01*
X113975000Y-52970907D01*
X113975000Y-53029093D01*
X114088039Y-53597378D01*
X114409946Y-54079147D01*
X114891715Y-54401054D01*
X115460000Y-54514093D01*
X115826408Y-54441210D01*
X121042209Y-59657011D01*
X121288770Y-59821758D01*
X121337024Y-59831356D01*
X121579610Y-59879610D01*
X131137046Y-59879610D01*
X131330853Y-60169664D01*
X131660026Y-60389610D01*
X131330853Y-60609556D01*
X131008946Y-61091325D01*
X130895907Y-61659610D01*
X131008946Y-62227895D01*
X131330853Y-62709664D01*
X131660026Y-62929610D01*
X131330853Y-63149556D01*
X131008946Y-63631325D01*
X130895907Y-64199610D01*
X131008946Y-64767895D01*
X131330853Y-65249664D01*
X131660026Y-65469610D01*
X131330853Y-65689556D01*
X131008946Y-66171325D01*
X130895907Y-66739610D01*
X131008946Y-67307895D01*
X131330853Y-67789664D01*
X131660026Y-68009610D01*
X131330853Y-68229556D01*
X131008946Y-68711325D01*
X130895907Y-69279610D01*
X131008946Y-69847895D01*
X131330853Y-70329664D01*
X131660026Y-70549610D01*
X131330853Y-70769556D01*
X131008946Y-71251325D01*
X130895907Y-71819610D01*
X131008946Y-72387895D01*
X131330853Y-72869664D01*
X131660026Y-73089610D01*
X131330853Y-73309556D01*
X131008946Y-73791325D01*
X130895907Y-74359610D01*
X131008946Y-74927895D01*
X131330853Y-75409664D01*
X131660026Y-75629610D01*
X131330853Y-75849556D01*
X131008946Y-76331325D01*
X130895907Y-76899610D01*
X131008946Y-77467895D01*
X131330853Y-77949664D01*
X131660026Y-78169610D01*
X131330853Y-78389556D01*
X131008946Y-78871325D01*
X130895907Y-79439610D01*
X131008946Y-80007895D01*
X131330853Y-80489664D01*
X131660026Y-80709610D01*
X131330853Y-80929556D01*
X131008946Y-81411325D01*
X130895907Y-81979610D01*
X131008946Y-82547895D01*
X131330853Y-83029664D01*
X131660026Y-83249610D01*
X131330853Y-83469556D01*
X131008946Y-83951325D01*
X130895907Y-84519610D01*
X131008946Y-85087895D01*
X131330853Y-85569664D01*
X131812622Y-85891571D01*
X132380907Y-86004610D01*
X132439093Y-86004610D01*
X133007378Y-85891571D01*
X133489147Y-85569664D01*
X133811054Y-85087895D01*
X133924093Y-84519610D01*
X133811054Y-83951325D01*
X133489147Y-83469556D01*
X133159974Y-83249610D01*
X133489147Y-83029664D01*
X133811054Y-82547895D01*
X133924093Y-81979610D01*
X133811054Y-81411325D01*
X133489147Y-80929556D01*
X133159974Y-80709610D01*
X133489147Y-80489664D01*
X133811054Y-80007895D01*
X133924093Y-79439610D01*
X133811054Y-78871325D01*
X133489147Y-78389556D01*
X133159974Y-78169610D01*
X133489147Y-77949664D01*
X133811054Y-77467895D01*
X133924093Y-76899610D01*
X133811054Y-76331325D01*
X133489147Y-75849556D01*
X133159974Y-75629610D01*
X133489147Y-75409664D01*
X133811054Y-74927895D01*
X133924093Y-74359610D01*
X133811054Y-73791325D01*
X133489147Y-73309556D01*
X133159974Y-73089610D01*
X133489147Y-72869664D01*
X133811054Y-72387895D01*
X133924093Y-71819610D01*
X133811054Y-71251325D01*
X133489147Y-70769556D01*
X133159974Y-70549610D01*
X133489147Y-70329664D01*
X133811054Y-69847895D01*
X133924093Y-69279610D01*
X133811054Y-68711325D01*
X133489147Y-68229556D01*
X133159974Y-68009610D01*
X133489147Y-67789664D01*
X133811054Y-67307895D01*
X133924093Y-66739610D01*
X133811054Y-66171325D01*
X133489147Y-65689556D01*
X133159974Y-65469610D01*
X133489147Y-65249664D01*
X133811054Y-64767895D01*
X133924093Y-64199610D01*
X133811054Y-63631325D01*
X133489147Y-63149556D01*
X133159974Y-62929610D01*
X133489147Y-62709664D01*
X133811054Y-62227895D01*
X133924093Y-61659610D01*
X133811054Y-61091325D01*
X133489147Y-60609556D01*
X133159974Y-60389610D01*
X133489147Y-60169664D01*
X133811054Y-59687895D01*
X133924093Y-59119610D01*
X133811054Y-58551325D01*
X133489147Y-58069556D01*
X133159974Y-57849610D01*
X133489147Y-57629664D01*
X133811054Y-57147895D01*
X133924093Y-56579610D01*
X133851210Y-56213202D01*
X134004412Y-56060000D01*
X146239264Y-56060000D01*
X146135907Y-56579610D01*
X146248946Y-57147895D01*
X146570853Y-57629664D01*
X146900026Y-57849610D01*
X146570853Y-58069556D01*
X146248946Y-58551325D01*
X146135907Y-59119610D01*
X146248946Y-59687895D01*
X146570853Y-60169664D01*
X146900026Y-60389610D01*
X146570853Y-60609556D01*
X146248946Y-61091325D01*
X146135907Y-61659610D01*
X146248946Y-62227895D01*
X146570853Y-62709664D01*
X146900026Y-62929610D01*
X146570853Y-63149556D01*
X146248946Y-63631325D01*
X146135907Y-64199610D01*
X146248946Y-64767895D01*
X146570853Y-65249664D01*
X146900026Y-65469610D01*
X146570853Y-65689556D01*
X146248946Y-66171325D01*
X146135907Y-66739610D01*
X146248946Y-67307895D01*
X146570853Y-67789664D01*
X146900026Y-68009610D01*
X146570853Y-68229556D01*
X146248946Y-68711325D01*
X146135907Y-69279610D01*
X146248946Y-69847895D01*
X146570853Y-70329664D01*
X146900026Y-70549610D01*
X146570853Y-70769556D01*
X146248946Y-71251325D01*
X146135907Y-71819610D01*
X146248946Y-72387895D01*
X146570853Y-72869664D01*
X146900026Y-73089610D01*
X146570853Y-73309556D01*
X146248946Y-73791325D01*
X146135907Y-74359610D01*
X146248946Y-74927895D01*
X146570853Y-75409664D01*
X146900026Y-75629610D01*
X146570853Y-75849556D01*
X146248946Y-76331325D01*
X146135907Y-76899610D01*
X146248946Y-77467895D01*
X146570853Y-77949664D01*
X146900026Y-78169610D01*
X146570853Y-78389556D01*
X146248946Y-78871325D01*
X146135907Y-79439610D01*
X146248946Y-80007895D01*
X146570853Y-80489664D01*
X146900026Y-80709610D01*
X146570853Y-80929556D01*
X146248946Y-81411325D01*
X146135907Y-81979610D01*
X146248946Y-82547895D01*
X146570853Y-83029664D01*
X146900026Y-83249610D01*
X146570853Y-83469556D01*
X146248946Y-83951325D01*
X146135907Y-84519610D01*
X146248946Y-85087895D01*
X146570853Y-85569664D01*
X146904044Y-85792295D01*
X146947852Y-86012530D01*
X147112599Y-86259092D01*
X153490908Y-92637401D01*
X153737470Y-92802148D01*
X154028309Y-92860000D01*
X174045363Y-92860000D01*
X173945907Y-93360000D01*
X174058946Y-93928285D01*
X174380853Y-94410054D01*
X174710026Y-94630000D01*
X174380853Y-94849946D01*
X174058946Y-95331715D01*
X173945907Y-95900000D01*
X174058946Y-96468285D01*
X174380853Y-96950054D01*
X174710026Y-97170000D01*
X174380853Y-97389946D01*
X174058946Y-97871715D01*
X173945907Y-98440000D01*
X174058946Y-99008285D01*
X174380853Y-99490054D01*
X174710026Y-99710000D01*
X174380853Y-99929946D01*
X174058946Y-100411715D01*
X173945907Y-100980000D01*
X174058946Y-101548285D01*
X174380853Y-102030054D01*
X174710026Y-102250000D01*
X174380853Y-102469946D01*
X174058946Y-102951715D01*
X173945907Y-103520000D01*
X174058946Y-104088285D01*
X174380853Y-104570054D01*
X174710026Y-104790000D01*
X174380853Y-105009946D01*
X174058946Y-105491715D01*
X173945907Y-106060000D01*
X174058946Y-106628285D01*
X174380853Y-107110054D01*
X174862622Y-107431961D01*
X175430907Y-107545000D01*
X175489093Y-107545000D01*
X176057378Y-107431961D01*
X176539147Y-107110054D01*
X176730000Y-106824422D01*
X176920853Y-107110054D01*
X177402622Y-107431961D01*
X177970907Y-107545000D01*
X178029093Y-107545000D01*
X178597378Y-107431961D01*
X179079147Y-107110054D01*
X179401054Y-106628285D01*
X179514093Y-106060000D01*
X179401054Y-105491715D01*
X179079147Y-105009946D01*
X178749974Y-104790000D01*
X179079147Y-104570054D01*
X179401054Y-104088285D01*
X179514093Y-103520000D01*
X179401054Y-102951715D01*
X179079147Y-102469946D01*
X178749974Y-102250000D01*
X179079147Y-102030054D01*
X179401054Y-101548285D01*
X179514093Y-100980000D01*
X179401054Y-100411715D01*
X179079147Y-99929946D01*
X178749974Y-99710000D01*
X179079147Y-99490054D01*
X179401054Y-99008285D01*
X179514093Y-98440000D01*
X179401054Y-97871715D01*
X179079147Y-97389946D01*
X178749974Y-97170000D01*
X179079147Y-96950054D01*
X179401054Y-96468285D01*
X179514093Y-95900000D01*
X179401054Y-95331715D01*
X179079147Y-94849946D01*
X178749974Y-94630000D01*
X179079147Y-94410054D01*
X179401054Y-93928285D01*
X179514093Y-93360000D01*
X179401054Y-92791715D01*
X179079147Y-92309946D01*
X178749974Y-92090000D01*
X179079147Y-91870054D01*
X179401054Y-91388285D01*
X179514093Y-90820000D01*
X179401054Y-90251715D01*
X179079147Y-89769946D01*
X178749974Y-89550000D01*
X179079147Y-89330054D01*
X179401054Y-88848285D01*
X179514093Y-88280000D01*
X179401054Y-87711715D01*
X179079147Y-87229946D01*
X178738447Y-87002298D01*
X178881358Y-86935183D01*
X179271645Y-86506924D01*
X179441476Y-86096890D01*
X179320155Y-85867000D01*
X178127000Y-85867000D01*
X178127000Y-85887000D01*
X177873000Y-85887000D01*
X177873000Y-85867000D01*
X177853000Y-85867000D01*
X177853000Y-85613000D01*
X177873000Y-85613000D01*
X177873000Y-85593000D01*
X178127000Y-85593000D01*
X178127000Y-85613000D01*
X179320155Y-85613000D01*
X179441476Y-85383110D01*
X179271645Y-84973076D01*
X178881358Y-84544817D01*
X178738447Y-84477702D01*
X179079147Y-84250054D01*
X179401054Y-83768285D01*
X179514093Y-83200000D01*
X179401054Y-82631715D01*
X179079147Y-82149946D01*
X178749974Y-81930000D01*
X179079147Y-81710054D01*
X179401054Y-81228285D01*
X179514093Y-80660000D01*
X179401054Y-80091715D01*
X179079147Y-79609946D01*
X178749974Y-79390000D01*
X179079147Y-79170054D01*
X179401054Y-78688285D01*
X179514093Y-78120000D01*
X179401054Y-77551715D01*
X179079147Y-77069946D01*
X178749974Y-76850000D01*
X179079147Y-76630054D01*
X179401054Y-76148285D01*
X179514093Y-75580000D01*
X179401054Y-75011715D01*
X179079147Y-74529946D01*
X178749974Y-74310000D01*
X179079147Y-74090054D01*
X179401054Y-73608285D01*
X179514093Y-73040000D01*
X179401054Y-72471715D01*
X179079147Y-71989946D01*
X178749974Y-71770000D01*
X179079147Y-71550054D01*
X179401054Y-71068285D01*
X179514093Y-70500000D01*
X179401054Y-69931715D01*
X179079147Y-69449946D01*
X178749974Y-69230000D01*
X179079147Y-69010054D01*
X179401054Y-68528285D01*
X179514093Y-67960000D01*
X179401054Y-67391715D01*
X179079147Y-66909946D01*
X178749974Y-66690000D01*
X178847253Y-66625000D01*
X189452560Y-66625000D01*
X189452560Y-68175000D01*
X189496838Y-68410317D01*
X189635910Y-68626441D01*
X189848110Y-68771431D01*
X190040000Y-68810290D01*
X190040000Y-72137537D01*
X190007808Y-72169673D01*
X189865162Y-72513201D01*
X189864838Y-72885167D01*
X190006883Y-73228943D01*
X190040000Y-73262118D01*
X190040000Y-73938850D01*
X189864683Y-73971838D01*
X189648559Y-74110910D01*
X189503569Y-74323110D01*
X189452560Y-74575000D01*
X189452560Y-76125000D01*
X189496838Y-76360317D01*
X189635910Y-76576441D01*
X189848110Y-76721431D01*
X190100000Y-76772440D01*
X191400000Y-76772440D01*
X191635317Y-76728162D01*
X191851441Y-76589090D01*
X191996431Y-76376890D01*
X192047440Y-76125000D01*
X192047440Y-75635750D01*
X193965000Y-75635750D01*
X193965000Y-76251309D01*
X194061673Y-76484698D01*
X194240301Y-76663327D01*
X194473690Y-76760000D01*
X194964250Y-76760000D01*
X195123000Y-76601250D01*
X195123000Y-75477000D01*
X195377000Y-75477000D01*
X195377000Y-76601250D01*
X195535750Y-76760000D01*
X196026310Y-76760000D01*
X196259699Y-76663327D01*
X196438327Y-76484698D01*
X196535000Y-76251309D01*
X196535000Y-75635750D01*
X196376250Y-75477000D01*
X195377000Y-75477000D01*
X195123000Y-75477000D01*
X194123750Y-75477000D01*
X193965000Y-75635750D01*
X192047440Y-75635750D01*
X192047440Y-74575000D01*
X192023674Y-74448691D01*
X193965000Y-74448691D01*
X193965000Y-75064250D01*
X194123750Y-75223000D01*
X195123000Y-75223000D01*
X195123000Y-74098750D01*
X195377000Y-74098750D01*
X195377000Y-75223000D01*
X196376250Y-75223000D01*
X196535000Y-75064250D01*
X196535000Y-74869622D01*
X196635910Y-75026441D01*
X196848110Y-75171431D01*
X197040000Y-75210290D01*
X197040000Y-78737537D01*
X197007808Y-78769673D01*
X196865162Y-79113201D01*
X196864838Y-79485167D01*
X197006883Y-79828943D01*
X197040000Y-79862118D01*
X197040000Y-80338850D01*
X196864683Y-80371838D01*
X196648559Y-80510910D01*
X196503569Y-80723110D01*
X196452560Y-80975000D01*
X196452560Y-82525000D01*
X196496838Y-82760317D01*
X196635910Y-82976441D01*
X196848110Y-83121431D01*
X197100000Y-83172440D01*
X198400000Y-83172440D01*
X198635317Y-83128162D01*
X198851441Y-82989090D01*
X198996431Y-82776890D01*
X199047440Y-82525000D01*
X199047440Y-82035750D01*
X200965000Y-82035750D01*
X200965000Y-82651309D01*
X201061673Y-82884698D01*
X201240301Y-83063327D01*
X201473690Y-83160000D01*
X201964250Y-83160000D01*
X202123000Y-83001250D01*
X202123000Y-81877000D01*
X202377000Y-81877000D01*
X202377000Y-83001250D01*
X202535750Y-83160000D01*
X203026310Y-83160000D01*
X203259699Y-83063327D01*
X203438327Y-82884698D01*
X203535000Y-82651309D01*
X203535000Y-82035750D01*
X203376250Y-81877000D01*
X202377000Y-81877000D01*
X202123000Y-81877000D01*
X201123750Y-81877000D01*
X200965000Y-82035750D01*
X199047440Y-82035750D01*
X199047440Y-80975000D01*
X199023674Y-80848691D01*
X200965000Y-80848691D01*
X200965000Y-81464250D01*
X201123750Y-81623000D01*
X202123000Y-81623000D01*
X202123000Y-80498750D01*
X202377000Y-80498750D01*
X202377000Y-81623000D01*
X203376250Y-81623000D01*
X203535000Y-81464250D01*
X203535000Y-80848691D01*
X203438327Y-80615302D01*
X203259699Y-80436673D01*
X203026310Y-80340000D01*
X202535750Y-80340000D01*
X202377000Y-80498750D01*
X202123000Y-80498750D01*
X201964250Y-80340000D01*
X201473690Y-80340000D01*
X201240301Y-80436673D01*
X201061673Y-80615302D01*
X200965000Y-80848691D01*
X199023674Y-80848691D01*
X199003162Y-80739683D01*
X198864090Y-80523559D01*
X198651890Y-80378569D01*
X198560000Y-80359961D01*
X198560000Y-79862463D01*
X198592192Y-79830327D01*
X198734838Y-79486799D01*
X198735162Y-79114833D01*
X198593117Y-78771057D01*
X198560000Y-78737882D01*
X198560000Y-75192334D01*
X198635317Y-75178162D01*
X198851441Y-75039090D01*
X198996431Y-74826890D01*
X199047440Y-74575000D01*
X199047440Y-74085750D01*
X200965000Y-74085750D01*
X200965000Y-74701309D01*
X201061673Y-74934698D01*
X201240301Y-75113327D01*
X201473690Y-75210000D01*
X201964250Y-75210000D01*
X202123000Y-75051250D01*
X202123000Y-73927000D01*
X201123750Y-73927000D01*
X200965000Y-74085750D01*
X199047440Y-74085750D01*
X199047440Y-73025000D01*
X199023674Y-72898691D01*
X200965000Y-72898691D01*
X200965000Y-73514250D01*
X201123750Y-73673000D01*
X202123000Y-73673000D01*
X202123000Y-72548750D01*
X202377000Y-72548750D01*
X202377000Y-73673000D01*
X203376250Y-73673000D01*
X203535000Y-73514250D01*
X203535000Y-72898691D01*
X203438327Y-72665302D01*
X203259699Y-72486673D01*
X203026310Y-72390000D01*
X202535750Y-72390000D01*
X202377000Y-72548750D01*
X202123000Y-72548750D01*
X201964250Y-72390000D01*
X201473690Y-72390000D01*
X201240301Y-72486673D01*
X201061673Y-72665302D01*
X200965000Y-72898691D01*
X199023674Y-72898691D01*
X199003162Y-72789683D01*
X198864090Y-72573559D01*
X198651890Y-72428569D01*
X198400000Y-72377560D01*
X197100000Y-72377560D01*
X196864683Y-72421838D01*
X196648559Y-72560910D01*
X196503569Y-72773110D01*
X196452560Y-73025000D01*
X196452560Y-74249663D01*
X196438327Y-74215302D01*
X196259699Y-74036673D01*
X196026310Y-73940000D01*
X195535750Y-73940000D01*
X195377000Y-74098750D01*
X195123000Y-74098750D01*
X194964250Y-73940000D01*
X194473690Y-73940000D01*
X194240301Y-74036673D01*
X194061673Y-74215302D01*
X193965000Y-74448691D01*
X192023674Y-74448691D01*
X192003162Y-74339683D01*
X191864090Y-74123559D01*
X191651890Y-73978569D01*
X191560000Y-73959961D01*
X191560000Y-73262463D01*
X191592192Y-73230327D01*
X191734838Y-72886799D01*
X191735162Y-72514833D01*
X191593117Y-72171057D01*
X191560000Y-72137882D01*
X191560000Y-68792334D01*
X191635317Y-68778162D01*
X191851441Y-68639090D01*
X191996431Y-68426890D01*
X192047440Y-68175000D01*
X192047440Y-67685750D01*
X193965000Y-67685750D01*
X193965000Y-68301309D01*
X194061673Y-68534698D01*
X194240301Y-68713327D01*
X194473690Y-68810000D01*
X194964250Y-68810000D01*
X195123000Y-68651250D01*
X195123000Y-67527000D01*
X195377000Y-67527000D01*
X195377000Y-68651250D01*
X195535750Y-68810000D01*
X196026310Y-68810000D01*
X196259699Y-68713327D01*
X196438327Y-68534698D01*
X196452560Y-68500337D01*
X196452560Y-69750000D01*
X196496838Y-69985317D01*
X196635910Y-70201441D01*
X196848110Y-70346431D01*
X197100000Y-70397440D01*
X198400000Y-70397440D01*
X198635317Y-70353162D01*
X198851441Y-70214090D01*
X198996431Y-70001890D01*
X199047440Y-69750000D01*
X199047440Y-69260750D01*
X200965000Y-69260750D01*
X200965000Y-69876309D01*
X201061673Y-70109698D01*
X201240301Y-70288327D01*
X201473690Y-70385000D01*
X201964250Y-70385000D01*
X202123000Y-70226250D01*
X202123000Y-69102000D01*
X202377000Y-69102000D01*
X202377000Y-70226250D01*
X202535750Y-70385000D01*
X203026310Y-70385000D01*
X203259699Y-70288327D01*
X203438327Y-70109698D01*
X203535000Y-69876309D01*
X203535000Y-69260750D01*
X203376250Y-69102000D01*
X202377000Y-69102000D01*
X202123000Y-69102000D01*
X201123750Y-69102000D01*
X200965000Y-69260750D01*
X199047440Y-69260750D01*
X199047440Y-68200000D01*
X199023674Y-68073691D01*
X200965000Y-68073691D01*
X200965000Y-68689250D01*
X201123750Y-68848000D01*
X202123000Y-68848000D01*
X202123000Y-67723750D01*
X202377000Y-67723750D01*
X202377000Y-68848000D01*
X203376250Y-68848000D01*
X203535000Y-68689250D01*
X203535000Y-68494622D01*
X203635910Y-68651441D01*
X203848110Y-68796431D01*
X203990000Y-68825164D01*
X203990000Y-71287624D01*
X203907808Y-71369673D01*
X203765162Y-71713201D01*
X203764838Y-72085167D01*
X203906883Y-72428943D01*
X203940000Y-72462118D01*
X203940000Y-73982666D01*
X203864683Y-73996838D01*
X203648559Y-74135910D01*
X203535000Y-74302109D01*
X203535000Y-74085750D01*
X203376250Y-73927000D01*
X202377000Y-73927000D01*
X202377000Y-75051250D01*
X202535750Y-75210000D01*
X203026310Y-75210000D01*
X203259699Y-75113327D01*
X203438327Y-74934698D01*
X203452560Y-74900337D01*
X203452560Y-76150000D01*
X203496838Y-76385317D01*
X203635910Y-76601441D01*
X203848110Y-76746431D01*
X204100000Y-76797440D01*
X205400000Y-76797440D01*
X205635317Y-76753162D01*
X205851441Y-76614090D01*
X205996431Y-76401890D01*
X206047440Y-76150000D01*
X206047440Y-75660750D01*
X207965000Y-75660750D01*
X207965000Y-76276309D01*
X208061673Y-76509698D01*
X208240301Y-76688327D01*
X208473690Y-76785000D01*
X208964250Y-76785000D01*
X209123000Y-76626250D01*
X209123000Y-75502000D01*
X209377000Y-75502000D01*
X209377000Y-76626250D01*
X209535750Y-76785000D01*
X210026310Y-76785000D01*
X210259699Y-76688327D01*
X210438327Y-76509698D01*
X210535000Y-76276309D01*
X210535000Y-75660750D01*
X210376250Y-75502000D01*
X209377000Y-75502000D01*
X209123000Y-75502000D01*
X208123750Y-75502000D01*
X207965000Y-75660750D01*
X206047440Y-75660750D01*
X206047440Y-74600000D01*
X206023674Y-74473691D01*
X207965000Y-74473691D01*
X207965000Y-75089250D01*
X208123750Y-75248000D01*
X209123000Y-75248000D01*
X209123000Y-74123750D01*
X209377000Y-74123750D01*
X209377000Y-75248000D01*
X210376250Y-75248000D01*
X210535000Y-75089250D01*
X210535000Y-74473691D01*
X210438327Y-74240302D01*
X210259699Y-74061673D01*
X210026310Y-73965000D01*
X209535750Y-73965000D01*
X209377000Y-74123750D01*
X209123000Y-74123750D01*
X208964250Y-73965000D01*
X208473690Y-73965000D01*
X208240301Y-74061673D01*
X208061673Y-74240302D01*
X207965000Y-74473691D01*
X206023674Y-74473691D01*
X206003162Y-74364683D01*
X205864090Y-74148559D01*
X205651890Y-74003569D01*
X205460000Y-73964710D01*
X205460000Y-72462463D01*
X205492192Y-72430327D01*
X205634838Y-72086799D01*
X205635162Y-71714833D01*
X205510000Y-71411917D01*
X205510000Y-68826742D01*
X205635317Y-68803162D01*
X205851441Y-68664090D01*
X205996431Y-68451890D01*
X206047440Y-68200000D01*
X206047440Y-67710750D01*
X207965000Y-67710750D01*
X207965000Y-68326309D01*
X208061673Y-68559698D01*
X208240301Y-68738327D01*
X208473690Y-68835000D01*
X208964250Y-68835000D01*
X209123000Y-68676250D01*
X209123000Y-67552000D01*
X209377000Y-67552000D01*
X209377000Y-68676250D01*
X209535750Y-68835000D01*
X210026310Y-68835000D01*
X210259699Y-68738327D01*
X210438327Y-68559698D01*
X210535000Y-68326309D01*
X210535000Y-67710750D01*
X210376250Y-67552000D01*
X209377000Y-67552000D01*
X209123000Y-67552000D01*
X208123750Y-67552000D01*
X207965000Y-67710750D01*
X206047440Y-67710750D01*
X206047440Y-66650000D01*
X206023674Y-66523691D01*
X207965000Y-66523691D01*
X207965000Y-67139250D01*
X208123750Y-67298000D01*
X209123000Y-67298000D01*
X209123000Y-66173750D01*
X209377000Y-66173750D01*
X209377000Y-67298000D01*
X210376250Y-67298000D01*
X210535000Y-67139250D01*
X210535000Y-66523691D01*
X210438327Y-66290302D01*
X210259699Y-66111673D01*
X210026310Y-66015000D01*
X209535750Y-66015000D01*
X209377000Y-66173750D01*
X209123000Y-66173750D01*
X208964250Y-66015000D01*
X208473690Y-66015000D01*
X208240301Y-66111673D01*
X208061673Y-66290302D01*
X207965000Y-66523691D01*
X206023674Y-66523691D01*
X206003162Y-66414683D01*
X205864090Y-66198559D01*
X205651890Y-66053569D01*
X205400000Y-66002560D01*
X204100000Y-66002560D01*
X203864683Y-66046838D01*
X203648559Y-66185910D01*
X203503569Y-66398110D01*
X203452560Y-66650000D01*
X203452560Y-67874663D01*
X203438327Y-67840302D01*
X203259699Y-67661673D01*
X203026310Y-67565000D01*
X202535750Y-67565000D01*
X202377000Y-67723750D01*
X202123000Y-67723750D01*
X201964250Y-67565000D01*
X201473690Y-67565000D01*
X201240301Y-67661673D01*
X201061673Y-67840302D01*
X200965000Y-68073691D01*
X199023674Y-68073691D01*
X199003162Y-67964683D01*
X198864090Y-67748559D01*
X198760000Y-67677437D01*
X198760000Y-64562463D01*
X198792192Y-64530327D01*
X198934838Y-64186799D01*
X198935162Y-63814833D01*
X198793117Y-63471057D01*
X198760000Y-63437882D01*
X198760000Y-62322931D01*
X198851441Y-62264090D01*
X198996431Y-62051890D01*
X199047440Y-61800000D01*
X199047440Y-61310750D01*
X200965000Y-61310750D01*
X200965000Y-61926309D01*
X201061673Y-62159698D01*
X201240301Y-62338327D01*
X201473690Y-62435000D01*
X201964250Y-62435000D01*
X202123000Y-62276250D01*
X202123000Y-61152000D01*
X202377000Y-61152000D01*
X202377000Y-62276250D01*
X202535750Y-62435000D01*
X203026310Y-62435000D01*
X203259699Y-62338327D01*
X203438327Y-62159698D01*
X203535000Y-61926309D01*
X203535000Y-61310750D01*
X203376250Y-61152000D01*
X202377000Y-61152000D01*
X202123000Y-61152000D01*
X201123750Y-61152000D01*
X200965000Y-61310750D01*
X199047440Y-61310750D01*
X199047440Y-60250000D01*
X199023674Y-60123691D01*
X200965000Y-60123691D01*
X200965000Y-60739250D01*
X201123750Y-60898000D01*
X202123000Y-60898000D01*
X202123000Y-59773750D01*
X202377000Y-59773750D01*
X202377000Y-60898000D01*
X203376250Y-60898000D01*
X203535000Y-60739250D01*
X203535000Y-60123691D01*
X203438327Y-59890302D01*
X203259699Y-59711673D01*
X203026310Y-59615000D01*
X202535750Y-59615000D01*
X202377000Y-59773750D01*
X202123000Y-59773750D01*
X201964250Y-59615000D01*
X201473690Y-59615000D01*
X201240301Y-59711673D01*
X201061673Y-59890302D01*
X200965000Y-60123691D01*
X199023674Y-60123691D01*
X199003162Y-60014683D01*
X198864090Y-59798559D01*
X198651890Y-59653569D01*
X198400000Y-59602560D01*
X197100000Y-59602560D01*
X196864683Y-59646838D01*
X196648559Y-59785910D01*
X196503569Y-59998110D01*
X196452560Y-60250000D01*
X196452560Y-61800000D01*
X196496838Y-62035317D01*
X196635910Y-62251441D01*
X196848110Y-62396431D01*
X197100000Y-62447440D01*
X197240000Y-62447440D01*
X197240000Y-63437537D01*
X197207808Y-63469673D01*
X197065162Y-63813201D01*
X197064838Y-64185167D01*
X197206883Y-64528943D01*
X197240000Y-64562118D01*
X197240000Y-67552560D01*
X197100000Y-67552560D01*
X196864683Y-67596838D01*
X196648559Y-67735910D01*
X196535000Y-67902109D01*
X196535000Y-67685750D01*
X196376250Y-67527000D01*
X195377000Y-67527000D01*
X195123000Y-67527000D01*
X194123750Y-67527000D01*
X193965000Y-67685750D01*
X192047440Y-67685750D01*
X192047440Y-66625000D01*
X192023674Y-66498691D01*
X193965000Y-66498691D01*
X193965000Y-67114250D01*
X194123750Y-67273000D01*
X195123000Y-67273000D01*
X195123000Y-66148750D01*
X195377000Y-66148750D01*
X195377000Y-67273000D01*
X196376250Y-67273000D01*
X196535000Y-67114250D01*
X196535000Y-66498691D01*
X196438327Y-66265302D01*
X196259699Y-66086673D01*
X196026310Y-65990000D01*
X195535750Y-65990000D01*
X195377000Y-66148750D01*
X195123000Y-66148750D01*
X194964250Y-65990000D01*
X194473690Y-65990000D01*
X194240301Y-66086673D01*
X194061673Y-66265302D01*
X193965000Y-66498691D01*
X192023674Y-66498691D01*
X192003162Y-66389683D01*
X191864090Y-66173559D01*
X191651890Y-66028569D01*
X191400000Y-65977560D01*
X190100000Y-65977560D01*
X189864683Y-66021838D01*
X189648559Y-66160910D01*
X189503569Y-66373110D01*
X189452560Y-66625000D01*
X178847253Y-66625000D01*
X179079147Y-66470054D01*
X179401054Y-65988285D01*
X179514093Y-65420000D01*
X179401054Y-64851715D01*
X179079147Y-64369946D01*
X178749974Y-64150000D01*
X179079147Y-63930054D01*
X179401054Y-63448285D01*
X179514093Y-62880000D01*
X179401054Y-62311715D01*
X179079147Y-61829946D01*
X178749974Y-61610000D01*
X179079147Y-61390054D01*
X179401054Y-60908285D01*
X179514093Y-60340000D01*
X179401054Y-59771715D01*
X179079147Y-59289946D01*
X178738447Y-59062298D01*
X178881358Y-58995183D01*
X179271645Y-58566924D01*
X179441476Y-58156890D01*
X179320155Y-57927000D01*
X178127000Y-57927000D01*
X178127000Y-57947000D01*
X177873000Y-57947000D01*
X177873000Y-57927000D01*
X177853000Y-57927000D01*
X177853000Y-57673000D01*
X177873000Y-57673000D01*
X177873000Y-56479181D01*
X178127000Y-56479181D01*
X178127000Y-57673000D01*
X179320155Y-57673000D01*
X179441476Y-57443110D01*
X179271645Y-57033076D01*
X178881358Y-56604817D01*
X178356892Y-56358514D01*
X178127000Y-56479181D01*
X177873000Y-56479181D01*
X177643108Y-56358514D01*
X177500000Y-56425721D01*
X177500000Y-55740000D01*
X177442148Y-55449161D01*
X177277401Y-55202599D01*
X175577011Y-53502209D01*
X175330449Y-53337462D01*
X175039610Y-53279610D01*
X148922954Y-53279610D01*
X148729147Y-52989556D01*
X148685223Y-52960207D01*
X148859698Y-52887937D01*
X149038327Y-52709309D01*
X149135000Y-52475920D01*
X149135000Y-51785360D01*
X148976250Y-51626610D01*
X147777000Y-51626610D01*
X147777000Y-51646610D01*
X147523000Y-51646610D01*
X147523000Y-51626610D01*
X146323750Y-51626610D01*
X146165000Y-51785360D01*
X146165000Y-52475920D01*
X146261673Y-52709309D01*
X146440302Y-52887937D01*
X146614777Y-52960207D01*
X146570853Y-52989556D01*
X146248946Y-53471325D01*
X146135907Y-54039610D01*
X146235441Y-54540000D01*
X133792040Y-54540000D01*
X133851476Y-54396500D01*
X133730155Y-54166610D01*
X132537000Y-54166610D01*
X132537000Y-54186610D01*
X132283000Y-54186610D01*
X132283000Y-54166610D01*
X131089845Y-54166610D01*
X130968524Y-54396500D01*
X131138355Y-54806534D01*
X131528642Y-55234793D01*
X131671553Y-55301908D01*
X131330853Y-55529556D01*
X131008946Y-56011325D01*
X130895907Y-56579610D01*
X131008946Y-57147895D01*
X131330853Y-57629664D01*
X131660026Y-57849610D01*
X131330853Y-58069556D01*
X131137046Y-58359610D01*
X121894412Y-58359610D01*
X118019802Y-54485000D01*
X118127002Y-54485000D01*
X118127002Y-54326252D01*
X118285750Y-54485000D01*
X118976310Y-54485000D01*
X119209699Y-54388327D01*
X119388327Y-54209698D01*
X119485000Y-53976309D01*
X119485000Y-53285750D01*
X119326250Y-53127000D01*
X118127000Y-53127000D01*
X118127000Y-53147000D01*
X117873000Y-53147000D01*
X117873000Y-53127000D01*
X117853000Y-53127000D01*
X117853000Y-52873000D01*
X117873000Y-52873000D01*
X117873000Y-51673750D01*
X118127000Y-51673750D01*
X118127000Y-52873000D01*
X119326250Y-52873000D01*
X119485000Y-52714250D01*
X119485000Y-52023691D01*
X119388327Y-51790302D01*
X119209699Y-51611673D01*
X118976310Y-51515000D01*
X118285750Y-51515000D01*
X118127000Y-51673750D01*
X117873000Y-51673750D01*
X117714250Y-51515000D01*
X117023690Y-51515000D01*
X116790301Y-51611673D01*
X116611673Y-51790302D01*
X116539403Y-51964777D01*
X116510054Y-51920853D01*
X116028285Y-51598946D01*
X115460000Y-51485907D01*
X114891715Y-51598946D01*
X114409946Y-51920853D01*
X114088039Y-52402622D01*
X113975000Y-52970907D01*
X64144078Y-52970907D01*
X65574884Y-52014873D01*
X104814812Y-52014873D01*
X104979646Y-52413800D01*
X105284595Y-52719282D01*
X105683233Y-52884811D01*
X106114873Y-52885188D01*
X106513800Y-52720354D01*
X106819282Y-52415405D01*
X106984811Y-52016767D01*
X106984812Y-52014873D01*
X107814812Y-52014873D01*
X107979646Y-52413800D01*
X108284595Y-52719282D01*
X108683233Y-52884811D01*
X109114873Y-52885188D01*
X109513800Y-52720354D01*
X109819282Y-52415405D01*
X109984811Y-52016767D01*
X109985188Y-51585127D01*
X109820354Y-51186200D01*
X109515405Y-50880718D01*
X109116767Y-50715189D01*
X108685127Y-50714812D01*
X108286200Y-50879646D01*
X107980718Y-51184595D01*
X107815189Y-51583233D01*
X107814812Y-52014873D01*
X106984812Y-52014873D01*
X106985188Y-51585127D01*
X106820354Y-51186200D01*
X106515405Y-50880718D01*
X106116767Y-50715189D01*
X105685127Y-50714812D01*
X105286200Y-50879646D01*
X104980718Y-51184595D01*
X104815189Y-51583233D01*
X104814812Y-52014873D01*
X65574884Y-52014873D01*
X66450193Y-51430011D01*
X70069931Y-50710000D01*
X130912560Y-50710000D01*
X130912560Y-52349610D01*
X130912560Y-52349610D01*
G37*
X130912560Y-52349610D02*
X130956838Y-52584927D01*
X131095910Y-52801051D01*
X131308110Y-52946041D01*
X131416107Y-52967911D01*
X131138355Y-53272686D01*
X130968524Y-53682720D01*
X131089845Y-53912610D01*
X132283000Y-53912610D01*
X132283000Y-53892610D01*
X132537000Y-53892610D01*
X132537000Y-53912610D01*
X133730155Y-53912610D01*
X133851476Y-53682720D01*
X133681645Y-53272686D01*
X133405499Y-52969673D01*
X133495317Y-52952772D01*
X133711441Y-52813700D01*
X133856431Y-52601500D01*
X133907440Y-52349610D01*
X133907440Y-50710000D01*
X146165000Y-50710000D01*
X146165000Y-51213860D01*
X146323750Y-51372610D01*
X147523000Y-51372610D01*
X147523000Y-51352610D01*
X147777000Y-51352610D01*
X147777000Y-51372610D01*
X148976250Y-51372610D01*
X149135000Y-51213860D01*
X149135000Y-50710000D01*
X209930069Y-50710000D01*
X213549805Y-51430010D01*
X216559187Y-53440814D01*
X218569989Y-56450193D01*
X219290000Y-60069931D01*
X219290000Y-103930069D01*
X218569989Y-107549807D01*
X216559187Y-110559186D01*
X213549805Y-112569990D01*
X209930069Y-113290000D01*
X70069931Y-113290000D01*
X66450193Y-112569989D01*
X63717540Y-110744089D01*
X114764743Y-110744089D01*
X114990344Y-111290086D01*
X115407717Y-111708188D01*
X115953319Y-111934742D01*
X116544089Y-111935257D01*
X117090086Y-111709656D01*
X117508188Y-111292283D01*
X117734742Y-110746681D01*
X117735257Y-110155911D01*
X117509656Y-109609914D01*
X117451384Y-109551540D01*
X182214518Y-109551540D01*
X182637616Y-110575515D01*
X183420365Y-111359631D01*
X184443599Y-111784515D01*
X185551540Y-111785482D01*
X186575515Y-111362384D01*
X187359631Y-110579635D01*
X187784515Y-109556401D01*
X187785482Y-108448460D01*
X187362384Y-107424485D01*
X186621008Y-106681814D01*
X210194718Y-106681814D01*
X210441588Y-107279286D01*
X210898309Y-107736805D01*
X211495349Y-107984718D01*
X212141814Y-107985282D01*
X212739286Y-107738412D01*
X213196805Y-107281691D01*
X213444718Y-106684651D01*
X213445282Y-106038186D01*
X213198412Y-105440714D01*
X212741691Y-104983195D01*
X212144651Y-104735282D01*
X211498186Y-104734718D01*
X210900714Y-104981588D01*
X210443195Y-105438309D01*
X210195282Y-106035349D01*
X210194718Y-106681814D01*
X186621008Y-106681814D01*
X186579635Y-106640369D01*
X185556401Y-106215485D01*
X184448460Y-106214518D01*
X183424485Y-106637616D01*
X182640369Y-107420365D01*
X182215485Y-108443599D01*
X182214518Y-109551540D01*
X117451384Y-109551540D01*
X117092283Y-109191812D01*
X116546681Y-108965258D01*
X115955911Y-108964743D01*
X115409914Y-109190344D01*
X114991812Y-109607717D01*
X114765258Y-110153319D01*
X114764743Y-110744089D01*
X63717540Y-110744089D01*
X63440814Y-110559187D01*
X61430010Y-107549805D01*
X61237465Y-106581814D01*
X86594718Y-106581814D01*
X86841588Y-107179286D01*
X87298309Y-107636805D01*
X87895349Y-107884718D01*
X88541814Y-107885282D01*
X89139286Y-107638412D01*
X89596805Y-107181691D01*
X89844718Y-106584651D01*
X89845282Y-105938186D01*
X89598412Y-105340714D01*
X89141691Y-104883195D01*
X88544651Y-104635282D01*
X87898186Y-104634718D01*
X87300714Y-104881588D01*
X86843195Y-105338309D01*
X86595282Y-105935349D01*
X86594718Y-106581814D01*
X61237465Y-106581814D01*
X60710000Y-103930069D01*
X60710000Y-103744089D01*
X114764743Y-103744089D01*
X114990344Y-104290086D01*
X115407717Y-104708188D01*
X115953319Y-104934742D01*
X116544089Y-104935257D01*
X117090086Y-104709656D01*
X117508188Y-104292283D01*
X117734742Y-103746681D01*
X117735257Y-103155911D01*
X117509656Y-102609914D01*
X117092283Y-102191812D01*
X116546681Y-101965258D01*
X115955911Y-101964743D01*
X115409914Y-102190344D01*
X114991812Y-102607717D01*
X114765258Y-103153319D01*
X114764743Y-103744089D01*
X60710000Y-103744089D01*
X60710000Y-82035750D01*
X76465000Y-82035750D01*
X76465000Y-82651309D01*
X76561673Y-82884698D01*
X76740301Y-83063327D01*
X76973690Y-83160000D01*
X77464250Y-83160000D01*
X77623000Y-83001250D01*
X77623000Y-81877000D01*
X77877000Y-81877000D01*
X77877000Y-83001250D01*
X78035750Y-83160000D01*
X78526310Y-83160000D01*
X78759699Y-83063327D01*
X78938327Y-82884698D01*
X79035000Y-82651309D01*
X79035000Y-82035750D01*
X78876250Y-81877000D01*
X77877000Y-81877000D01*
X77623000Y-81877000D01*
X76623750Y-81877000D01*
X76465000Y-82035750D01*
X60710000Y-82035750D01*
X60710000Y-80848691D01*
X76465000Y-80848691D01*
X76465000Y-81464250D01*
X76623750Y-81623000D01*
X77623000Y-81623000D01*
X77623000Y-80498750D01*
X77877000Y-80498750D01*
X77877000Y-81623000D01*
X78876250Y-81623000D01*
X79035000Y-81464250D01*
X79035000Y-80848691D01*
X78938327Y-80615302D01*
X78759699Y-80436673D01*
X78526310Y-80340000D01*
X78035750Y-80340000D01*
X77877000Y-80498750D01*
X77623000Y-80498750D01*
X77464250Y-80340000D01*
X76973690Y-80340000D01*
X76740301Y-80436673D01*
X76561673Y-80615302D01*
X76465000Y-80848691D01*
X60710000Y-80848691D01*
X60710000Y-75660750D01*
X69465000Y-75660750D01*
X69465000Y-76276309D01*
X69561673Y-76509698D01*
X69740301Y-76688327D01*
X69973690Y-76785000D01*
X70464250Y-76785000D01*
X70623000Y-76626250D01*
X70623000Y-75502000D01*
X70877000Y-75502000D01*
X70877000Y-76626250D01*
X71035750Y-76785000D01*
X71526310Y-76785000D01*
X71759699Y-76688327D01*
X71938327Y-76509698D01*
X72035000Y-76276309D01*
X72035000Y-75660750D01*
X71876250Y-75502000D01*
X70877000Y-75502000D01*
X70623000Y-75502000D01*
X69623750Y-75502000D01*
X69465000Y-75660750D01*
X60710000Y-75660750D01*
X60710000Y-74473691D01*
X69465000Y-74473691D01*
X69465000Y-75089250D01*
X69623750Y-75248000D01*
X70623000Y-75248000D01*
X70623000Y-74123750D01*
X70877000Y-74123750D01*
X70877000Y-75248000D01*
X71876250Y-75248000D01*
X72035000Y-75089250D01*
X72035000Y-74473691D01*
X71938327Y-74240302D01*
X71759699Y-74061673D01*
X71526310Y-73965000D01*
X71035750Y-73965000D01*
X70877000Y-74123750D01*
X70623000Y-74123750D01*
X70464250Y-73965000D01*
X69973690Y-73965000D01*
X69740301Y-74061673D01*
X69561673Y-74240302D01*
X69465000Y-74473691D01*
X60710000Y-74473691D01*
X60710000Y-67710750D01*
X69465000Y-67710750D01*
X69465000Y-68326309D01*
X69561673Y-68559698D01*
X69740301Y-68738327D01*
X69973690Y-68835000D01*
X70464250Y-68835000D01*
X70623000Y-68676250D01*
X70623000Y-67552000D01*
X70877000Y-67552000D01*
X70877000Y-68676250D01*
X71035750Y-68835000D01*
X71526310Y-68835000D01*
X71759699Y-68738327D01*
X71938327Y-68559698D01*
X72035000Y-68326309D01*
X72035000Y-67710750D01*
X71876250Y-67552000D01*
X70877000Y-67552000D01*
X70623000Y-67552000D01*
X69623750Y-67552000D01*
X69465000Y-67710750D01*
X60710000Y-67710750D01*
X60710000Y-66523691D01*
X69465000Y-66523691D01*
X69465000Y-67139250D01*
X69623750Y-67298000D01*
X70623000Y-67298000D01*
X70623000Y-66173750D01*
X70877000Y-66173750D01*
X70877000Y-67298000D01*
X71876250Y-67298000D01*
X72035000Y-67139250D01*
X72035000Y-66650000D01*
X73952560Y-66650000D01*
X73952560Y-68200000D01*
X73996838Y-68435317D01*
X74135910Y-68651441D01*
X74348110Y-68796431D01*
X74490000Y-68825164D01*
X74490000Y-69199056D01*
X74471057Y-69206883D01*
X74207808Y-69469673D01*
X74065162Y-69813201D01*
X74064838Y-70185167D01*
X74206883Y-70528943D01*
X74240000Y-70562118D01*
X74240000Y-74077069D01*
X74148559Y-74135910D01*
X74003569Y-74348110D01*
X73952560Y-74600000D01*
X73952560Y-76150000D01*
X73996838Y-76385317D01*
X74135910Y-76601441D01*
X74348110Y-76746431D01*
X74600000Y-76797440D01*
X75900000Y-76797440D01*
X76135317Y-76753162D01*
X76351441Y-76614090D01*
X76496431Y-76401890D01*
X76547440Y-76150000D01*
X76547440Y-74900337D01*
X76561673Y-74934698D01*
X76740301Y-75113327D01*
X76973690Y-75210000D01*
X77464250Y-75210000D01*
X77623000Y-75051250D01*
X77623000Y-73927000D01*
X77877000Y-73927000D01*
X77877000Y-75051250D01*
X78035750Y-75210000D01*
X78526310Y-75210000D01*
X78759699Y-75113327D01*
X78938327Y-74934698D01*
X79035000Y-74701309D01*
X79035000Y-74085750D01*
X78876250Y-73927000D01*
X77877000Y-73927000D01*
X77623000Y-73927000D01*
X76623750Y-73927000D01*
X76465000Y-74085750D01*
X76465000Y-74305378D01*
X76364090Y-74148559D01*
X76151890Y-74003569D01*
X75900000Y-73952560D01*
X75760000Y-73952560D01*
X75760000Y-72898691D01*
X76465000Y-72898691D01*
X76465000Y-73514250D01*
X76623750Y-73673000D01*
X77623000Y-73673000D01*
X77623000Y-72548750D01*
X77877000Y-72548750D01*
X77877000Y-73673000D01*
X78876250Y-73673000D01*
X79035000Y-73514250D01*
X79035000Y-73025000D01*
X80952560Y-73025000D01*
X80952560Y-74575000D01*
X80996838Y-74810317D01*
X81135910Y-75026441D01*
X81348110Y-75171431D01*
X81488200Y-75199800D01*
X81471057Y-75206883D01*
X81207808Y-75469673D01*
X81065162Y-75813201D01*
X81064838Y-76185167D01*
X81206883Y-76528943D01*
X81469673Y-76792192D01*
X81490000Y-76800633D01*
X81490000Y-80348258D01*
X81364683Y-80371838D01*
X81148559Y-80510910D01*
X81003569Y-80723110D01*
X80952560Y-80975000D01*
X80952560Y-82525000D01*
X80996838Y-82760317D01*
X81135910Y-82976441D01*
X81348110Y-83121431D01*
X81600000Y-83172440D01*
X82900000Y-83172440D01*
X83135317Y-83128162D01*
X83351441Y-82989090D01*
X83496431Y-82776890D01*
X83547440Y-82525000D01*
X83547440Y-80975000D01*
X83503162Y-80739683D01*
X83364090Y-80523559D01*
X83151890Y-80378569D01*
X83010000Y-80349836D01*
X83010000Y-76250000D01*
X82990109Y-76150000D01*
X82960272Y-76000000D01*
X83010000Y-75750000D01*
X83010000Y-75660750D01*
X83465000Y-75660750D01*
X83465000Y-76276309D01*
X83561673Y-76509698D01*
X83740301Y-76688327D01*
X83973690Y-76785000D01*
X84464250Y-76785000D01*
X84623000Y-76626250D01*
X84623000Y-75502000D01*
X84877000Y-75502000D01*
X84877000Y-76626250D01*
X85035750Y-76785000D01*
X85526310Y-76785000D01*
X85759699Y-76688327D01*
X85938327Y-76509698D01*
X86035000Y-76276309D01*
X86035000Y-75660750D01*
X85876250Y-75502000D01*
X84877000Y-75502000D01*
X84623000Y-75502000D01*
X83623750Y-75502000D01*
X83465000Y-75660750D01*
X83010000Y-75660750D01*
X83010000Y-75201742D01*
X83135317Y-75178162D01*
X83351441Y-75039090D01*
X83465000Y-74872891D01*
X83465000Y-75089250D01*
X83623750Y-75248000D01*
X84623000Y-75248000D01*
X84623000Y-74123750D01*
X84877000Y-74123750D01*
X84877000Y-75248000D01*
X85876250Y-75248000D01*
X86035000Y-75089250D01*
X86035000Y-74473691D01*
X85938327Y-74240302D01*
X85759699Y-74061673D01*
X85526310Y-73965000D01*
X85035750Y-73965000D01*
X84877000Y-74123750D01*
X84623000Y-74123750D01*
X84464250Y-73965000D01*
X83973690Y-73965000D01*
X83740301Y-74061673D01*
X83561673Y-74240302D01*
X83547440Y-74274663D01*
X83547440Y-73025000D01*
X83503162Y-72789683D01*
X83364090Y-72573559D01*
X83151890Y-72428569D01*
X82900000Y-72377560D01*
X81600000Y-72377560D01*
X81364683Y-72421838D01*
X81148559Y-72560910D01*
X81003569Y-72773110D01*
X80952560Y-73025000D01*
X79035000Y-73025000D01*
X79035000Y-72898691D01*
X78938327Y-72665302D01*
X78759699Y-72486673D01*
X78526310Y-72390000D01*
X78035750Y-72390000D01*
X77877000Y-72548750D01*
X77623000Y-72548750D01*
X77464250Y-72390000D01*
X76973690Y-72390000D01*
X76740301Y-72486673D01*
X76561673Y-72665302D01*
X76465000Y-72898691D01*
X75760000Y-72898691D01*
X75760000Y-70562463D01*
X75792192Y-70530327D01*
X75934838Y-70186799D01*
X75934943Y-70066590D01*
X75952148Y-70040840D01*
X76010000Y-69750000D01*
X76010000Y-69260750D01*
X76465000Y-69260750D01*
X76465000Y-69876309D01*
X76561673Y-70109698D01*
X76740301Y-70288327D01*
X76973690Y-70385000D01*
X77464250Y-70385000D01*
X77623000Y-70226250D01*
X77623000Y-69102000D01*
X77877000Y-69102000D01*
X77877000Y-70226250D01*
X78035750Y-70385000D01*
X78526310Y-70385000D01*
X78759699Y-70288327D01*
X78938327Y-70109698D01*
X79035000Y-69876309D01*
X79035000Y-69260750D01*
X78876250Y-69102000D01*
X77877000Y-69102000D01*
X77623000Y-69102000D01*
X76623750Y-69102000D01*
X76465000Y-69260750D01*
X76010000Y-69260750D01*
X76010000Y-68826742D01*
X76135317Y-68803162D01*
X76351441Y-68664090D01*
X76465000Y-68497891D01*
X76465000Y-68689250D01*
X76623750Y-68848000D01*
X77623000Y-68848000D01*
X77623000Y-67723750D01*
X77877000Y-67723750D01*
X77877000Y-68848000D01*
X78876250Y-68848000D01*
X79035000Y-68689250D01*
X79035000Y-68073691D01*
X78938327Y-67840302D01*
X78759699Y-67661673D01*
X78526310Y-67565000D01*
X78035750Y-67565000D01*
X77877000Y-67723750D01*
X77623000Y-67723750D01*
X77464250Y-67565000D01*
X76973690Y-67565000D01*
X76740301Y-67661673D01*
X76561673Y-67840302D01*
X76547440Y-67874663D01*
X76547440Y-66650000D01*
X76503162Y-66414683D01*
X76364090Y-66198559D01*
X76151890Y-66053569D01*
X75900000Y-66002560D01*
X74600000Y-66002560D01*
X74364683Y-66046838D01*
X74148559Y-66185910D01*
X74003569Y-66398110D01*
X73952560Y-66650000D01*
X72035000Y-66650000D01*
X72035000Y-66523691D01*
X71938327Y-66290302D01*
X71759699Y-66111673D01*
X71526310Y-66015000D01*
X71035750Y-66015000D01*
X70877000Y-66173750D01*
X70623000Y-66173750D01*
X70464250Y-66015000D01*
X69973690Y-66015000D01*
X69740301Y-66111673D01*
X69561673Y-66290302D01*
X69465000Y-66523691D01*
X60710000Y-66523691D01*
X60710000Y-61310750D01*
X76465000Y-61310750D01*
X76465000Y-61926309D01*
X76561673Y-62159698D01*
X76740301Y-62338327D01*
X76973690Y-62435000D01*
X77464250Y-62435000D01*
X77623000Y-62276250D01*
X77623000Y-61152000D01*
X77877000Y-61152000D01*
X77877000Y-62276250D01*
X78035750Y-62435000D01*
X78526310Y-62435000D01*
X78759699Y-62338327D01*
X78938327Y-62159698D01*
X79035000Y-61926309D01*
X79035000Y-61310750D01*
X78876250Y-61152000D01*
X77877000Y-61152000D01*
X77623000Y-61152000D01*
X76623750Y-61152000D01*
X76465000Y-61310750D01*
X60710000Y-61310750D01*
X60710000Y-60123691D01*
X76465000Y-60123691D01*
X76465000Y-60739250D01*
X76623750Y-60898000D01*
X77623000Y-60898000D01*
X77623000Y-59773750D01*
X77877000Y-59773750D01*
X77877000Y-60898000D01*
X78876250Y-60898000D01*
X79035000Y-60739250D01*
X79035000Y-60250000D01*
X80952560Y-60250000D01*
X80952560Y-61800000D01*
X80996838Y-62035317D01*
X81135910Y-62251441D01*
X81308375Y-62369281D01*
X81207808Y-62469673D01*
X81065162Y-62813201D01*
X81064838Y-63185167D01*
X81206883Y-63528943D01*
X81240000Y-63562118D01*
X81240000Y-67677069D01*
X81148559Y-67735910D01*
X81003569Y-67948110D01*
X80952560Y-68200000D01*
X80952560Y-69750000D01*
X80996838Y-69985317D01*
X81135910Y-70201441D01*
X81348110Y-70346431D01*
X81600000Y-70397440D01*
X82900000Y-70397440D01*
X83135317Y-70353162D01*
X83351441Y-70214090D01*
X83496431Y-70001890D01*
X83547440Y-69750000D01*
X83547440Y-68525337D01*
X83561673Y-68559698D01*
X83740301Y-68738327D01*
X83973690Y-68835000D01*
X84464250Y-68835000D01*
X84623000Y-68676250D01*
X84623000Y-67552000D01*
X84877000Y-67552000D01*
X84877000Y-68676250D01*
X85035750Y-68835000D01*
X85526310Y-68835000D01*
X85759699Y-68738327D01*
X85938327Y-68559698D01*
X86035000Y-68326309D01*
X86035000Y-67710750D01*
X85876250Y-67552000D01*
X84877000Y-67552000D01*
X84623000Y-67552000D01*
X83623750Y-67552000D01*
X83465000Y-67710750D01*
X83465000Y-67905378D01*
X83364090Y-67748559D01*
X83151890Y-67603569D01*
X82900000Y-67552560D01*
X82760000Y-67552560D01*
X82760000Y-66523691D01*
X83465000Y-66523691D01*
X83465000Y-67139250D01*
X83623750Y-67298000D01*
X84623000Y-67298000D01*
X84623000Y-66173750D01*
X84877000Y-66173750D01*
X84877000Y-67298000D01*
X85876250Y-67298000D01*
X86035000Y-67139250D01*
X86035000Y-66650000D01*
X87952560Y-66650000D01*
X87952560Y-68200000D01*
X87996838Y-68435317D01*
X88133735Y-68648060D01*
X88065162Y-68813201D01*
X88064838Y-69185167D01*
X88206883Y-69528943D01*
X88469673Y-69792192D01*
X88490000Y-69800633D01*
X88490000Y-73973258D01*
X88364683Y-73996838D01*
X88148559Y-74135910D01*
X88003569Y-74348110D01*
X87952560Y-74600000D01*
X87952560Y-76150000D01*
X87996838Y-76385317D01*
X88135910Y-76601441D01*
X88348110Y-76746431D01*
X88600000Y-76797440D01*
X89900000Y-76797440D01*
X90135317Y-76753162D01*
X90351441Y-76614090D01*
X90496431Y-76401890D01*
X90547440Y-76150000D01*
X90547440Y-74600000D01*
X90503162Y-74364683D01*
X90364090Y-74148559D01*
X90151890Y-74003569D01*
X90010000Y-73974836D01*
X90010000Y-69250000D01*
X89963255Y-69015000D01*
X89960272Y-69000000D01*
X89994141Y-68829726D01*
X90135317Y-68803162D01*
X90351441Y-68664090D01*
X90496431Y-68451890D01*
X90547440Y-68200000D01*
X90547440Y-66650000D01*
X90503162Y-66414683D01*
X90364090Y-66198559D01*
X90151890Y-66053569D01*
X89900000Y-66002560D01*
X88600000Y-66002560D01*
X88364683Y-66046838D01*
X88148559Y-66185910D01*
X88003569Y-66398110D01*
X87952560Y-66650000D01*
X86035000Y-66650000D01*
X86035000Y-66523691D01*
X85938327Y-66290302D01*
X85759699Y-66111673D01*
X85526310Y-66015000D01*
X85035750Y-66015000D01*
X84877000Y-66173750D01*
X84623000Y-66173750D01*
X84464250Y-66015000D01*
X83973690Y-66015000D01*
X83740301Y-66111673D01*
X83561673Y-66290302D01*
X83465000Y-66523691D01*
X82760000Y-66523691D01*
X82760000Y-63562463D01*
X82792192Y-63530327D01*
X82934838Y-63186799D01*
X82934943Y-63066590D01*
X82952148Y-63040840D01*
X83010000Y-62750000D01*
X83010000Y-62426742D01*
X83135317Y-62403162D01*
X83351441Y-62264090D01*
X83496431Y-62051890D01*
X83547440Y-61800000D01*
X83547440Y-60250000D01*
X83503162Y-60014683D01*
X83364090Y-59798559D01*
X83151890Y-59653569D01*
X82900000Y-59602560D01*
X81600000Y-59602560D01*
X81364683Y-59646838D01*
X81148559Y-59785910D01*
X81003569Y-59998110D01*
X80952560Y-60250000D01*
X79035000Y-60250000D01*
X79035000Y-60123691D01*
X78938327Y-59890302D01*
X78759699Y-59711673D01*
X78526310Y-59615000D01*
X78035750Y-59615000D01*
X77877000Y-59773750D01*
X77623000Y-59773750D01*
X77464250Y-59615000D01*
X76973690Y-59615000D01*
X76740301Y-59711673D01*
X76561673Y-59890302D01*
X76465000Y-60123691D01*
X60710000Y-60123691D01*
X60710000Y-60069931D01*
X61430010Y-56450195D01*
X63440814Y-53440813D01*
X64144078Y-52970907D01*
X113975000Y-52970907D01*
X113975000Y-53029093D01*
X114088039Y-53597378D01*
X114409946Y-54079147D01*
X114891715Y-54401054D01*
X115460000Y-54514093D01*
X115826408Y-54441210D01*
X121042209Y-59657011D01*
X121288770Y-59821758D01*
X121337024Y-59831356D01*
X121579610Y-59879610D01*
X131137046Y-59879610D01*
X131330853Y-60169664D01*
X131660026Y-60389610D01*
X131330853Y-60609556D01*
X131008946Y-61091325D01*
X130895907Y-61659610D01*
X131008946Y-62227895D01*
X131330853Y-62709664D01*
X131660026Y-62929610D01*
X131330853Y-63149556D01*
X131008946Y-63631325D01*
X130895907Y-64199610D01*
X131008946Y-64767895D01*
X131330853Y-65249664D01*
X131660026Y-65469610D01*
X131330853Y-65689556D01*
X131008946Y-66171325D01*
X130895907Y-66739610D01*
X131008946Y-67307895D01*
X131330853Y-67789664D01*
X131660026Y-68009610D01*
X131330853Y-68229556D01*
X131008946Y-68711325D01*
X130895907Y-69279610D01*
X131008946Y-69847895D01*
X131330853Y-70329664D01*
X131660026Y-70549610D01*
X131330853Y-70769556D01*
X131008946Y-71251325D01*
X130895907Y-71819610D01*
X131008946Y-72387895D01*
X131330853Y-72869664D01*
X131660026Y-73089610D01*
X131330853Y-73309556D01*
X131008946Y-73791325D01*
X130895907Y-74359610D01*
X131008946Y-74927895D01*
X131330853Y-75409664D01*
X131660026Y-75629610D01*
X131330853Y-75849556D01*
X131008946Y-76331325D01*
X130895907Y-76899610D01*
X131008946Y-77467895D01*
X131330853Y-77949664D01*
X131660026Y-78169610D01*
X131330853Y-78389556D01*
X131008946Y-78871325D01*
X130895907Y-79439610D01*
X131008946Y-80007895D01*
X131330853Y-80489664D01*
X131660026Y-80709610D01*
X131330853Y-80929556D01*
X131008946Y-81411325D01*
X130895907Y-81979610D01*
X131008946Y-82547895D01*
X131330853Y-83029664D01*
X131660026Y-83249610D01*
X131330853Y-83469556D01*
X131008946Y-83951325D01*
X130895907Y-84519610D01*
X131008946Y-85087895D01*
X131330853Y-85569664D01*
X131812622Y-85891571D01*
X132380907Y-86004610D01*
X132439093Y-86004610D01*
X133007378Y-85891571D01*
X133489147Y-85569664D01*
X133811054Y-85087895D01*
X133924093Y-84519610D01*
X133811054Y-83951325D01*
X133489147Y-83469556D01*
X133159974Y-83249610D01*
X133489147Y-83029664D01*
X133811054Y-82547895D01*
X133924093Y-81979610D01*
X133811054Y-81411325D01*
X133489147Y-80929556D01*
X133159974Y-80709610D01*
X133489147Y-80489664D01*
X133811054Y-80007895D01*
X133924093Y-79439610D01*
X133811054Y-78871325D01*
X133489147Y-78389556D01*
X133159974Y-78169610D01*
X133489147Y-77949664D01*
X133811054Y-77467895D01*
X133924093Y-76899610D01*
X133811054Y-76331325D01*
X133489147Y-75849556D01*
X133159974Y-75629610D01*
X133489147Y-75409664D01*
X133811054Y-74927895D01*
X133924093Y-74359610D01*
X133811054Y-73791325D01*
X133489147Y-73309556D01*
X133159974Y-73089610D01*
X133489147Y-72869664D01*
X133811054Y-72387895D01*
X133924093Y-71819610D01*
X133811054Y-71251325D01*
X133489147Y-70769556D01*
X133159974Y-70549610D01*
X133489147Y-70329664D01*
X133811054Y-69847895D01*
X133924093Y-69279610D01*
X133811054Y-68711325D01*
X133489147Y-68229556D01*
X133159974Y-68009610D01*
X133489147Y-67789664D01*
X133811054Y-67307895D01*
X133924093Y-66739610D01*
X133811054Y-66171325D01*
X133489147Y-65689556D01*
X133159974Y-65469610D01*
X133489147Y-65249664D01*
X133811054Y-64767895D01*
X133924093Y-64199610D01*
X133811054Y-63631325D01*
X133489147Y-63149556D01*
X133159974Y-62929610D01*
X133489147Y-62709664D01*
X133811054Y-62227895D01*
X133924093Y-61659610D01*
X133811054Y-61091325D01*
X133489147Y-60609556D01*
X133159974Y-60389610D01*
X133489147Y-60169664D01*
X133811054Y-59687895D01*
X133924093Y-59119610D01*
X133811054Y-58551325D01*
X133489147Y-58069556D01*
X133159974Y-57849610D01*
X133489147Y-57629664D01*
X133811054Y-57147895D01*
X133924093Y-56579610D01*
X133851210Y-56213202D01*
X134004412Y-56060000D01*
X146239264Y-56060000D01*
X146135907Y-56579610D01*
X146248946Y-57147895D01*
X146570853Y-57629664D01*
X146900026Y-57849610D01*
X146570853Y-58069556D01*
X146248946Y-58551325D01*
X146135907Y-59119610D01*
X146248946Y-59687895D01*
X146570853Y-60169664D01*
X146900026Y-60389610D01*
X146570853Y-60609556D01*
X146248946Y-61091325D01*
X146135907Y-61659610D01*
X146248946Y-62227895D01*
X146570853Y-62709664D01*
X146900026Y-62929610D01*
X146570853Y-63149556D01*
X146248946Y-63631325D01*
X146135907Y-64199610D01*
X146248946Y-64767895D01*
X146570853Y-65249664D01*
X146900026Y-65469610D01*
X146570853Y-65689556D01*
X146248946Y-66171325D01*
X146135907Y-66739610D01*
X146248946Y-67307895D01*
X146570853Y-67789664D01*
X146900026Y-68009610D01*
X146570853Y-68229556D01*
X146248946Y-68711325D01*
X146135907Y-69279610D01*
X146248946Y-69847895D01*
X146570853Y-70329664D01*
X146900026Y-70549610D01*
X146570853Y-70769556D01*
X146248946Y-71251325D01*
X146135907Y-71819610D01*
X146248946Y-72387895D01*
X146570853Y-72869664D01*
X146900026Y-73089610D01*
X146570853Y-73309556D01*
X146248946Y-73791325D01*
X146135907Y-74359610D01*
X146248946Y-74927895D01*
X146570853Y-75409664D01*
X146900026Y-75629610D01*
X146570853Y-75849556D01*
X146248946Y-76331325D01*
X146135907Y-76899610D01*
X146248946Y-77467895D01*
X146570853Y-77949664D01*
X146900026Y-78169610D01*
X146570853Y-78389556D01*
X146248946Y-78871325D01*
X146135907Y-79439610D01*
X146248946Y-80007895D01*
X146570853Y-80489664D01*
X146900026Y-80709610D01*
X146570853Y-80929556D01*
X146248946Y-81411325D01*
X146135907Y-81979610D01*
X146248946Y-82547895D01*
X146570853Y-83029664D01*
X146900026Y-83249610D01*
X146570853Y-83469556D01*
X146248946Y-83951325D01*
X146135907Y-84519610D01*
X146248946Y-85087895D01*
X146570853Y-85569664D01*
X146904044Y-85792295D01*
X146947852Y-86012530D01*
X147112599Y-86259092D01*
X153490908Y-92637401D01*
X153737470Y-92802148D01*
X154028309Y-92860000D01*
X174045363Y-92860000D01*
X173945907Y-93360000D01*
X174058946Y-93928285D01*
X174380853Y-94410054D01*
X174710026Y-94630000D01*
X174380853Y-94849946D01*
X174058946Y-95331715D01*
X173945907Y-95900000D01*
X174058946Y-96468285D01*
X174380853Y-96950054D01*
X174710026Y-97170000D01*
X174380853Y-97389946D01*
X174058946Y-97871715D01*
X173945907Y-98440000D01*
X174058946Y-99008285D01*
X174380853Y-99490054D01*
X174710026Y-99710000D01*
X174380853Y-99929946D01*
X174058946Y-100411715D01*
X173945907Y-100980000D01*
X174058946Y-101548285D01*
X174380853Y-102030054D01*
X174710026Y-102250000D01*
X174380853Y-102469946D01*
X174058946Y-102951715D01*
X173945907Y-103520000D01*
X174058946Y-104088285D01*
X174380853Y-104570054D01*
X174710026Y-104790000D01*
X174380853Y-105009946D01*
X174058946Y-105491715D01*
X173945907Y-106060000D01*
X174058946Y-106628285D01*
X174380853Y-107110054D01*
X174862622Y-107431961D01*
X175430907Y-107545000D01*
X175489093Y-107545000D01*
X176057378Y-107431961D01*
X176539147Y-107110054D01*
X176730000Y-106824422D01*
X176920853Y-107110054D01*
X177402622Y-107431961D01*
X177970907Y-107545000D01*
X178029093Y-107545000D01*
X178597378Y-107431961D01*
X179079147Y-107110054D01*
X179401054Y-106628285D01*
X179514093Y-106060000D01*
X179401054Y-105491715D01*
X179079147Y-105009946D01*
X178749974Y-104790000D01*
X179079147Y-104570054D01*
X179401054Y-104088285D01*
X179514093Y-103520000D01*
X179401054Y-102951715D01*
X179079147Y-102469946D01*
X178749974Y-102250000D01*
X179079147Y-102030054D01*
X179401054Y-101548285D01*
X179514093Y-100980000D01*
X179401054Y-100411715D01*
X179079147Y-99929946D01*
X178749974Y-99710000D01*
X179079147Y-99490054D01*
X179401054Y-99008285D01*
X179514093Y-98440000D01*
X179401054Y-97871715D01*
X179079147Y-97389946D01*
X178749974Y-97170000D01*
X179079147Y-96950054D01*
X179401054Y-96468285D01*
X179514093Y-95900000D01*
X179401054Y-95331715D01*
X179079147Y-94849946D01*
X178749974Y-94630000D01*
X179079147Y-94410054D01*
X179401054Y-93928285D01*
X179514093Y-93360000D01*
X179401054Y-92791715D01*
X179079147Y-92309946D01*
X178749974Y-92090000D01*
X179079147Y-91870054D01*
X179401054Y-91388285D01*
X179514093Y-90820000D01*
X179401054Y-90251715D01*
X179079147Y-89769946D01*
X178749974Y-89550000D01*
X179079147Y-89330054D01*
X179401054Y-88848285D01*
X179514093Y-88280000D01*
X179401054Y-87711715D01*
X179079147Y-87229946D01*
X178738447Y-87002298D01*
X178881358Y-86935183D01*
X179271645Y-86506924D01*
X179441476Y-86096890D01*
X179320155Y-85867000D01*
X178127000Y-85867000D01*
X178127000Y-85887000D01*
X177873000Y-85887000D01*
X177873000Y-85867000D01*
X177853000Y-85867000D01*
X177853000Y-85613000D01*
X177873000Y-85613000D01*
X177873000Y-85593000D01*
X178127000Y-85593000D01*
X178127000Y-85613000D01*
X179320155Y-85613000D01*
X179441476Y-85383110D01*
X179271645Y-84973076D01*
X178881358Y-84544817D01*
X178738447Y-84477702D01*
X179079147Y-84250054D01*
X179401054Y-83768285D01*
X179514093Y-83200000D01*
X179401054Y-82631715D01*
X179079147Y-82149946D01*
X178749974Y-81930000D01*
X179079147Y-81710054D01*
X179401054Y-81228285D01*
X179514093Y-80660000D01*
X179401054Y-80091715D01*
X179079147Y-79609946D01*
X178749974Y-79390000D01*
X179079147Y-79170054D01*
X179401054Y-78688285D01*
X179514093Y-78120000D01*
X179401054Y-77551715D01*
X179079147Y-77069946D01*
X178749974Y-76850000D01*
X179079147Y-76630054D01*
X179401054Y-76148285D01*
X179514093Y-75580000D01*
X179401054Y-75011715D01*
X179079147Y-74529946D01*
X178749974Y-74310000D01*
X179079147Y-74090054D01*
X179401054Y-73608285D01*
X179514093Y-73040000D01*
X179401054Y-72471715D01*
X179079147Y-71989946D01*
X178749974Y-71770000D01*
X179079147Y-71550054D01*
X179401054Y-71068285D01*
X179514093Y-70500000D01*
X179401054Y-69931715D01*
X179079147Y-69449946D01*
X178749974Y-69230000D01*
X179079147Y-69010054D01*
X179401054Y-68528285D01*
X179514093Y-67960000D01*
X179401054Y-67391715D01*
X179079147Y-66909946D01*
X178749974Y-66690000D01*
X178847253Y-66625000D01*
X189452560Y-66625000D01*
X189452560Y-68175000D01*
X189496838Y-68410317D01*
X189635910Y-68626441D01*
X189848110Y-68771431D01*
X190040000Y-68810290D01*
X190040000Y-72137537D01*
X190007808Y-72169673D01*
X189865162Y-72513201D01*
X189864838Y-72885167D01*
X190006883Y-73228943D01*
X190040000Y-73262118D01*
X190040000Y-73938850D01*
X189864683Y-73971838D01*
X189648559Y-74110910D01*
X189503569Y-74323110D01*
X189452560Y-74575000D01*
X189452560Y-76125000D01*
X189496838Y-76360317D01*
X189635910Y-76576441D01*
X189848110Y-76721431D01*
X190100000Y-76772440D01*
X191400000Y-76772440D01*
X191635317Y-76728162D01*
X191851441Y-76589090D01*
X191996431Y-76376890D01*
X192047440Y-76125000D01*
X192047440Y-75635750D01*
X193965000Y-75635750D01*
X193965000Y-76251309D01*
X194061673Y-76484698D01*
X194240301Y-76663327D01*
X194473690Y-76760000D01*
X194964250Y-76760000D01*
X195123000Y-76601250D01*
X195123000Y-75477000D01*
X195377000Y-75477000D01*
X195377000Y-76601250D01*
X195535750Y-76760000D01*
X196026310Y-76760000D01*
X196259699Y-76663327D01*
X196438327Y-76484698D01*
X196535000Y-76251309D01*
X196535000Y-75635750D01*
X196376250Y-75477000D01*
X195377000Y-75477000D01*
X195123000Y-75477000D01*
X194123750Y-75477000D01*
X193965000Y-75635750D01*
X192047440Y-75635750D01*
X192047440Y-74575000D01*
X192023674Y-74448691D01*
X193965000Y-74448691D01*
X193965000Y-75064250D01*
X194123750Y-75223000D01*
X195123000Y-75223000D01*
X195123000Y-74098750D01*
X195377000Y-74098750D01*
X195377000Y-75223000D01*
X196376250Y-75223000D01*
X196535000Y-75064250D01*
X196535000Y-74869622D01*
X196635910Y-75026441D01*
X196848110Y-75171431D01*
X197040000Y-75210290D01*
X197040000Y-78737537D01*
X197007808Y-78769673D01*
X196865162Y-79113201D01*
X196864838Y-79485167D01*
X197006883Y-79828943D01*
X197040000Y-79862118D01*
X197040000Y-80338850D01*
X196864683Y-80371838D01*
X196648559Y-80510910D01*
X196503569Y-80723110D01*
X196452560Y-80975000D01*
X196452560Y-82525000D01*
X196496838Y-82760317D01*
X196635910Y-82976441D01*
X196848110Y-83121431D01*
X197100000Y-83172440D01*
X198400000Y-83172440D01*
X198635317Y-83128162D01*
X198851441Y-82989090D01*
X198996431Y-82776890D01*
X199047440Y-82525000D01*
X199047440Y-82035750D01*
X200965000Y-82035750D01*
X200965000Y-82651309D01*
X201061673Y-82884698D01*
X201240301Y-83063327D01*
X201473690Y-83160000D01*
X201964250Y-83160000D01*
X202123000Y-83001250D01*
X202123000Y-81877000D01*
X202377000Y-81877000D01*
X202377000Y-83001250D01*
X202535750Y-83160000D01*
X203026310Y-83160000D01*
X203259699Y-83063327D01*
X203438327Y-82884698D01*
X203535000Y-82651309D01*
X203535000Y-82035750D01*
X203376250Y-81877000D01*
X202377000Y-81877000D01*
X202123000Y-81877000D01*
X201123750Y-81877000D01*
X200965000Y-82035750D01*
X199047440Y-82035750D01*
X199047440Y-80975000D01*
X199023674Y-80848691D01*
X200965000Y-80848691D01*
X200965000Y-81464250D01*
X201123750Y-81623000D01*
X202123000Y-81623000D01*
X202123000Y-80498750D01*
X202377000Y-80498750D01*
X202377000Y-81623000D01*
X203376250Y-81623000D01*
X203535000Y-81464250D01*
X203535000Y-80848691D01*
X203438327Y-80615302D01*
X203259699Y-80436673D01*
X203026310Y-80340000D01*
X202535750Y-80340000D01*
X202377000Y-80498750D01*
X202123000Y-80498750D01*
X201964250Y-80340000D01*
X201473690Y-80340000D01*
X201240301Y-80436673D01*
X201061673Y-80615302D01*
X200965000Y-80848691D01*
X199023674Y-80848691D01*
X199003162Y-80739683D01*
X198864090Y-80523559D01*
X198651890Y-80378569D01*
X198560000Y-80359961D01*
X198560000Y-79862463D01*
X198592192Y-79830327D01*
X198734838Y-79486799D01*
X198735162Y-79114833D01*
X198593117Y-78771057D01*
X198560000Y-78737882D01*
X198560000Y-75192334D01*
X198635317Y-75178162D01*
X198851441Y-75039090D01*
X198996431Y-74826890D01*
X199047440Y-74575000D01*
X199047440Y-74085750D01*
X200965000Y-74085750D01*
X200965000Y-74701309D01*
X201061673Y-74934698D01*
X201240301Y-75113327D01*
X201473690Y-75210000D01*
X201964250Y-75210000D01*
X202123000Y-75051250D01*
X202123000Y-73927000D01*
X201123750Y-73927000D01*
X200965000Y-74085750D01*
X199047440Y-74085750D01*
X199047440Y-73025000D01*
X199023674Y-72898691D01*
X200965000Y-72898691D01*
X200965000Y-73514250D01*
X201123750Y-73673000D01*
X202123000Y-73673000D01*
X202123000Y-72548750D01*
X202377000Y-72548750D01*
X202377000Y-73673000D01*
X203376250Y-73673000D01*
X203535000Y-73514250D01*
X203535000Y-72898691D01*
X203438327Y-72665302D01*
X203259699Y-72486673D01*
X203026310Y-72390000D01*
X202535750Y-72390000D01*
X202377000Y-72548750D01*
X202123000Y-72548750D01*
X201964250Y-72390000D01*
X201473690Y-72390000D01*
X201240301Y-72486673D01*
X201061673Y-72665302D01*
X200965000Y-72898691D01*
X199023674Y-72898691D01*
X199003162Y-72789683D01*
X198864090Y-72573559D01*
X198651890Y-72428569D01*
X198400000Y-72377560D01*
X197100000Y-72377560D01*
X196864683Y-72421838D01*
X196648559Y-72560910D01*
X196503569Y-72773110D01*
X196452560Y-73025000D01*
X196452560Y-74249663D01*
X196438327Y-74215302D01*
X196259699Y-74036673D01*
X196026310Y-73940000D01*
X195535750Y-73940000D01*
X195377000Y-74098750D01*
X195123000Y-74098750D01*
X194964250Y-73940000D01*
X194473690Y-73940000D01*
X194240301Y-74036673D01*
X194061673Y-74215302D01*
X193965000Y-74448691D01*
X192023674Y-74448691D01*
X192003162Y-74339683D01*
X191864090Y-74123559D01*
X191651890Y-73978569D01*
X191560000Y-73959961D01*
X191560000Y-73262463D01*
X191592192Y-73230327D01*
X191734838Y-72886799D01*
X191735162Y-72514833D01*
X191593117Y-72171057D01*
X191560000Y-72137882D01*
X191560000Y-68792334D01*
X191635317Y-68778162D01*
X191851441Y-68639090D01*
X191996431Y-68426890D01*
X192047440Y-68175000D01*
X192047440Y-67685750D01*
X193965000Y-67685750D01*
X193965000Y-68301309D01*
X194061673Y-68534698D01*
X194240301Y-68713327D01*
X194473690Y-68810000D01*
X194964250Y-68810000D01*
X195123000Y-68651250D01*
X195123000Y-67527000D01*
X195377000Y-67527000D01*
X195377000Y-68651250D01*
X195535750Y-68810000D01*
X196026310Y-68810000D01*
X196259699Y-68713327D01*
X196438327Y-68534698D01*
X196452560Y-68500337D01*
X196452560Y-69750000D01*
X196496838Y-69985317D01*
X196635910Y-70201441D01*
X196848110Y-70346431D01*
X197100000Y-70397440D01*
X198400000Y-70397440D01*
X198635317Y-70353162D01*
X198851441Y-70214090D01*
X198996431Y-70001890D01*
X199047440Y-69750000D01*
X199047440Y-69260750D01*
X200965000Y-69260750D01*
X200965000Y-69876309D01*
X201061673Y-70109698D01*
X201240301Y-70288327D01*
X201473690Y-70385000D01*
X201964250Y-70385000D01*
X202123000Y-70226250D01*
X202123000Y-69102000D01*
X202377000Y-69102000D01*
X202377000Y-70226250D01*
X202535750Y-70385000D01*
X203026310Y-70385000D01*
X203259699Y-70288327D01*
X203438327Y-70109698D01*
X203535000Y-69876309D01*
X203535000Y-69260750D01*
X203376250Y-69102000D01*
X202377000Y-69102000D01*
X202123000Y-69102000D01*
X201123750Y-69102000D01*
X200965000Y-69260750D01*
X199047440Y-69260750D01*
X199047440Y-68200000D01*
X199023674Y-68073691D01*
X200965000Y-68073691D01*
X200965000Y-68689250D01*
X201123750Y-68848000D01*
X202123000Y-68848000D01*
X202123000Y-67723750D01*
X202377000Y-67723750D01*
X202377000Y-68848000D01*
X203376250Y-68848000D01*
X203535000Y-68689250D01*
X203535000Y-68494622D01*
X203635910Y-68651441D01*
X203848110Y-68796431D01*
X203990000Y-68825164D01*
X203990000Y-71287624D01*
X203907808Y-71369673D01*
X203765162Y-71713201D01*
X203764838Y-72085167D01*
X203906883Y-72428943D01*
X203940000Y-72462118D01*
X203940000Y-73982666D01*
X203864683Y-73996838D01*
X203648559Y-74135910D01*
X203535000Y-74302109D01*
X203535000Y-74085750D01*
X203376250Y-73927000D01*
X202377000Y-73927000D01*
X202377000Y-75051250D01*
X202535750Y-75210000D01*
X203026310Y-75210000D01*
X203259699Y-75113327D01*
X203438327Y-74934698D01*
X203452560Y-74900337D01*
X203452560Y-76150000D01*
X203496838Y-76385317D01*
X203635910Y-76601441D01*
X203848110Y-76746431D01*
X204100000Y-76797440D01*
X205400000Y-76797440D01*
X205635317Y-76753162D01*
X205851441Y-76614090D01*
X205996431Y-76401890D01*
X206047440Y-76150000D01*
X206047440Y-75660750D01*
X207965000Y-75660750D01*
X207965000Y-76276309D01*
X208061673Y-76509698D01*
X208240301Y-76688327D01*
X208473690Y-76785000D01*
X208964250Y-76785000D01*
X209123000Y-76626250D01*
X209123000Y-75502000D01*
X209377000Y-75502000D01*
X209377000Y-76626250D01*
X209535750Y-76785000D01*
X210026310Y-76785000D01*
X210259699Y-76688327D01*
X210438327Y-76509698D01*
X210535000Y-76276309D01*
X210535000Y-75660750D01*
X210376250Y-75502000D01*
X209377000Y-75502000D01*
X209123000Y-75502000D01*
X208123750Y-75502000D01*
X207965000Y-75660750D01*
X206047440Y-75660750D01*
X206047440Y-74600000D01*
X206023674Y-74473691D01*
X207965000Y-74473691D01*
X207965000Y-75089250D01*
X208123750Y-75248000D01*
X209123000Y-75248000D01*
X209123000Y-74123750D01*
X209377000Y-74123750D01*
X209377000Y-75248000D01*
X210376250Y-75248000D01*
X210535000Y-75089250D01*
X210535000Y-74473691D01*
X210438327Y-74240302D01*
X210259699Y-74061673D01*
X210026310Y-73965000D01*
X209535750Y-73965000D01*
X209377000Y-74123750D01*
X209123000Y-74123750D01*
X208964250Y-73965000D01*
X208473690Y-73965000D01*
X208240301Y-74061673D01*
X208061673Y-74240302D01*
X207965000Y-74473691D01*
X206023674Y-74473691D01*
X206003162Y-74364683D01*
X205864090Y-74148559D01*
X205651890Y-74003569D01*
X205460000Y-73964710D01*
X205460000Y-72462463D01*
X205492192Y-72430327D01*
X205634838Y-72086799D01*
X205635162Y-71714833D01*
X205510000Y-71411917D01*
X205510000Y-68826742D01*
X205635317Y-68803162D01*
X205851441Y-68664090D01*
X205996431Y-68451890D01*
X206047440Y-68200000D01*
X206047440Y-67710750D01*
X207965000Y-67710750D01*
X207965000Y-68326309D01*
X208061673Y-68559698D01*
X208240301Y-68738327D01*
X208473690Y-68835000D01*
X208964250Y-68835000D01*
X209123000Y-68676250D01*
X209123000Y-67552000D01*
X209377000Y-67552000D01*
X209377000Y-68676250D01*
X209535750Y-68835000D01*
X210026310Y-68835000D01*
X210259699Y-68738327D01*
X210438327Y-68559698D01*
X210535000Y-68326309D01*
X210535000Y-67710750D01*
X210376250Y-67552000D01*
X209377000Y-67552000D01*
X209123000Y-67552000D01*
X208123750Y-67552000D01*
X207965000Y-67710750D01*
X206047440Y-67710750D01*
X206047440Y-66650000D01*
X206023674Y-66523691D01*
X207965000Y-66523691D01*
X207965000Y-67139250D01*
X208123750Y-67298000D01*
X209123000Y-67298000D01*
X209123000Y-66173750D01*
X209377000Y-66173750D01*
X209377000Y-67298000D01*
X210376250Y-67298000D01*
X210535000Y-67139250D01*
X210535000Y-66523691D01*
X210438327Y-66290302D01*
X210259699Y-66111673D01*
X210026310Y-66015000D01*
X209535750Y-66015000D01*
X209377000Y-66173750D01*
X209123000Y-66173750D01*
X208964250Y-66015000D01*
X208473690Y-66015000D01*
X208240301Y-66111673D01*
X208061673Y-66290302D01*
X207965000Y-66523691D01*
X206023674Y-66523691D01*
X206003162Y-66414683D01*
X205864090Y-66198559D01*
X205651890Y-66053569D01*
X205400000Y-66002560D01*
X204100000Y-66002560D01*
X203864683Y-66046838D01*
X203648559Y-66185910D01*
X203503569Y-66398110D01*
X203452560Y-66650000D01*
X203452560Y-67874663D01*
X203438327Y-67840302D01*
X203259699Y-67661673D01*
X203026310Y-67565000D01*
X202535750Y-67565000D01*
X202377000Y-67723750D01*
X202123000Y-67723750D01*
X201964250Y-67565000D01*
X201473690Y-67565000D01*
X201240301Y-67661673D01*
X201061673Y-67840302D01*
X200965000Y-68073691D01*
X199023674Y-68073691D01*
X199003162Y-67964683D01*
X198864090Y-67748559D01*
X198760000Y-67677437D01*
X198760000Y-64562463D01*
X198792192Y-64530327D01*
X198934838Y-64186799D01*
X198935162Y-63814833D01*
X198793117Y-63471057D01*
X198760000Y-63437882D01*
X198760000Y-62322931D01*
X198851441Y-62264090D01*
X198996431Y-62051890D01*
X199047440Y-61800000D01*
X199047440Y-61310750D01*
X200965000Y-61310750D01*
X200965000Y-61926309D01*
X201061673Y-62159698D01*
X201240301Y-62338327D01*
X201473690Y-62435000D01*
X201964250Y-62435000D01*
X202123000Y-62276250D01*
X202123000Y-61152000D01*
X202377000Y-61152000D01*
X202377000Y-62276250D01*
X202535750Y-62435000D01*
X203026310Y-62435000D01*
X203259699Y-62338327D01*
X203438327Y-62159698D01*
X203535000Y-61926309D01*
X203535000Y-61310750D01*
X203376250Y-61152000D01*
X202377000Y-61152000D01*
X202123000Y-61152000D01*
X201123750Y-61152000D01*
X200965000Y-61310750D01*
X199047440Y-61310750D01*
X199047440Y-60250000D01*
X199023674Y-60123691D01*
X200965000Y-60123691D01*
X200965000Y-60739250D01*
X201123750Y-60898000D01*
X202123000Y-60898000D01*
X202123000Y-59773750D01*
X202377000Y-59773750D01*
X202377000Y-60898000D01*
X203376250Y-60898000D01*
X203535000Y-60739250D01*
X203535000Y-60123691D01*
X203438327Y-59890302D01*
X203259699Y-59711673D01*
X203026310Y-59615000D01*
X202535750Y-59615000D01*
X202377000Y-59773750D01*
X202123000Y-59773750D01*
X201964250Y-59615000D01*
X201473690Y-59615000D01*
X201240301Y-59711673D01*
X201061673Y-59890302D01*
X200965000Y-60123691D01*
X199023674Y-60123691D01*
X199003162Y-60014683D01*
X198864090Y-59798559D01*
X198651890Y-59653569D01*
X198400000Y-59602560D01*
X197100000Y-59602560D01*
X196864683Y-59646838D01*
X196648559Y-59785910D01*
X196503569Y-59998110D01*
X196452560Y-60250000D01*
X196452560Y-61800000D01*
X196496838Y-62035317D01*
X196635910Y-62251441D01*
X196848110Y-62396431D01*
X197100000Y-62447440D01*
X197240000Y-62447440D01*
X197240000Y-63437537D01*
X197207808Y-63469673D01*
X197065162Y-63813201D01*
X197064838Y-64185167D01*
X197206883Y-64528943D01*
X197240000Y-64562118D01*
X197240000Y-67552560D01*
X197100000Y-67552560D01*
X196864683Y-67596838D01*
X196648559Y-67735910D01*
X196535000Y-67902109D01*
X196535000Y-67685750D01*
X196376250Y-67527000D01*
X195377000Y-67527000D01*
X195123000Y-67527000D01*
X194123750Y-67527000D01*
X193965000Y-67685750D01*
X192047440Y-67685750D01*
X192047440Y-66625000D01*
X192023674Y-66498691D01*
X193965000Y-66498691D01*
X193965000Y-67114250D01*
X194123750Y-67273000D01*
X195123000Y-67273000D01*
X195123000Y-66148750D01*
X195377000Y-66148750D01*
X195377000Y-67273000D01*
X196376250Y-67273000D01*
X196535000Y-67114250D01*
X196535000Y-66498691D01*
X196438327Y-66265302D01*
X196259699Y-66086673D01*
X196026310Y-65990000D01*
X195535750Y-65990000D01*
X195377000Y-66148750D01*
X195123000Y-66148750D01*
X194964250Y-65990000D01*
X194473690Y-65990000D01*
X194240301Y-66086673D01*
X194061673Y-66265302D01*
X193965000Y-66498691D01*
X192023674Y-66498691D01*
X192003162Y-66389683D01*
X191864090Y-66173559D01*
X191651890Y-66028569D01*
X191400000Y-65977560D01*
X190100000Y-65977560D01*
X189864683Y-66021838D01*
X189648559Y-66160910D01*
X189503569Y-66373110D01*
X189452560Y-66625000D01*
X178847253Y-66625000D01*
X179079147Y-66470054D01*
X179401054Y-65988285D01*
X179514093Y-65420000D01*
X179401054Y-64851715D01*
X179079147Y-64369946D01*
X178749974Y-64150000D01*
X179079147Y-63930054D01*
X179401054Y-63448285D01*
X179514093Y-62880000D01*
X179401054Y-62311715D01*
X179079147Y-61829946D01*
X178749974Y-61610000D01*
X179079147Y-61390054D01*
X179401054Y-60908285D01*
X179514093Y-60340000D01*
X179401054Y-59771715D01*
X179079147Y-59289946D01*
X178738447Y-59062298D01*
X178881358Y-58995183D01*
X179271645Y-58566924D01*
X179441476Y-58156890D01*
X179320155Y-57927000D01*
X178127000Y-57927000D01*
X178127000Y-57947000D01*
X177873000Y-57947000D01*
X177873000Y-57927000D01*
X177853000Y-57927000D01*
X177853000Y-57673000D01*
X177873000Y-57673000D01*
X177873000Y-56479181D01*
X178127000Y-56479181D01*
X178127000Y-57673000D01*
X179320155Y-57673000D01*
X179441476Y-57443110D01*
X179271645Y-57033076D01*
X178881358Y-56604817D01*
X178356892Y-56358514D01*
X178127000Y-56479181D01*
X177873000Y-56479181D01*
X177643108Y-56358514D01*
X177500000Y-56425721D01*
X177500000Y-55740000D01*
X177442148Y-55449161D01*
X177277401Y-55202599D01*
X175577011Y-53502209D01*
X175330449Y-53337462D01*
X175039610Y-53279610D01*
X148922954Y-53279610D01*
X148729147Y-52989556D01*
X148685223Y-52960207D01*
X148859698Y-52887937D01*
X149038327Y-52709309D01*
X149135000Y-52475920D01*
X149135000Y-51785360D01*
X148976250Y-51626610D01*
X147777000Y-51626610D01*
X147777000Y-51646610D01*
X147523000Y-51646610D01*
X147523000Y-51626610D01*
X146323750Y-51626610D01*
X146165000Y-51785360D01*
X146165000Y-52475920D01*
X146261673Y-52709309D01*
X146440302Y-52887937D01*
X146614777Y-52960207D01*
X146570853Y-52989556D01*
X146248946Y-53471325D01*
X146135907Y-54039610D01*
X146235441Y-54540000D01*
X133792040Y-54540000D01*
X133851476Y-54396500D01*
X133730155Y-54166610D01*
X132537000Y-54166610D01*
X132537000Y-54186610D01*
X132283000Y-54186610D01*
X132283000Y-54166610D01*
X131089845Y-54166610D01*
X130968524Y-54396500D01*
X131138355Y-54806534D01*
X131528642Y-55234793D01*
X131671553Y-55301908D01*
X131330853Y-55529556D01*
X131008946Y-56011325D01*
X130895907Y-56579610D01*
X131008946Y-57147895D01*
X131330853Y-57629664D01*
X131660026Y-57849610D01*
X131330853Y-58069556D01*
X131137046Y-58359610D01*
X121894412Y-58359610D01*
X118019802Y-54485000D01*
X118127002Y-54485000D01*
X118127002Y-54326252D01*
X118285750Y-54485000D01*
X118976310Y-54485000D01*
X119209699Y-54388327D01*
X119388327Y-54209698D01*
X119485000Y-53976309D01*
X119485000Y-53285750D01*
X119326250Y-53127000D01*
X118127000Y-53127000D01*
X118127000Y-53147000D01*
X117873000Y-53147000D01*
X117873000Y-53127000D01*
X117853000Y-53127000D01*
X117853000Y-52873000D01*
X117873000Y-52873000D01*
X117873000Y-51673750D01*
X118127000Y-51673750D01*
X118127000Y-52873000D01*
X119326250Y-52873000D01*
X119485000Y-52714250D01*
X119485000Y-52023691D01*
X119388327Y-51790302D01*
X119209699Y-51611673D01*
X118976310Y-51515000D01*
X118285750Y-51515000D01*
X118127000Y-51673750D01*
X117873000Y-51673750D01*
X117714250Y-51515000D01*
X117023690Y-51515000D01*
X116790301Y-51611673D01*
X116611673Y-51790302D01*
X116539403Y-51964777D01*
X116510054Y-51920853D01*
X116028285Y-51598946D01*
X115460000Y-51485907D01*
X114891715Y-51598946D01*
X114409946Y-51920853D01*
X114088039Y-52402622D01*
X113975000Y-52970907D01*
X64144078Y-52970907D01*
X65574884Y-52014873D01*
X104814812Y-52014873D01*
X104979646Y-52413800D01*
X105284595Y-52719282D01*
X105683233Y-52884811D01*
X106114873Y-52885188D01*
X106513800Y-52720354D01*
X106819282Y-52415405D01*
X106984811Y-52016767D01*
X106984812Y-52014873D01*
X107814812Y-52014873D01*
X107979646Y-52413800D01*
X108284595Y-52719282D01*
X108683233Y-52884811D01*
X109114873Y-52885188D01*
X109513800Y-52720354D01*
X109819282Y-52415405D01*
X109984811Y-52016767D01*
X109985188Y-51585127D01*
X109820354Y-51186200D01*
X109515405Y-50880718D01*
X109116767Y-50715189D01*
X108685127Y-50714812D01*
X108286200Y-50879646D01*
X107980718Y-51184595D01*
X107815189Y-51583233D01*
X107814812Y-52014873D01*
X106984812Y-52014873D01*
X106985188Y-51585127D01*
X106820354Y-51186200D01*
X106515405Y-50880718D01*
X106116767Y-50715189D01*
X105685127Y-50714812D01*
X105286200Y-50879646D01*
X104980718Y-51184595D01*
X104815189Y-51583233D01*
X104814812Y-52014873D01*
X65574884Y-52014873D01*
X66450193Y-51430011D01*
X70069931Y-50710000D01*
X130912560Y-50710000D01*
X130912560Y-52349610D01*
M02*
